<?xml version="1.0" encoding="utf-8"?>
<!-- Generator: Adobe Illustrator 19.0.0, SVG Export Plug-In . SVG Version: 6.00 Build 0)  -->
<svg version="1.1" id="Layer_1" xmlns="http://www.w3.org/2000/svg" xmlns:xlink="http://www.w3.org/1999/xlink" x="0px" y="0px"
	 viewBox="0 0 471 254" style="enable-background:new 0 0 471 254;" xml:space="preserve">
<style type="text/css">
	.st0{fill:#231F20;}
	.st1{fill:#314DA0;}
	.st2{fill:#EC1C24;}
</style>
<g>
	<g>
		<path class="st0" d="M240.6,153.4c3.2,0,5.4,3.3,6.7,10v0.4c0,1.5-1.1,2.4-3.2,2.7c-1.7,0-2.9-2.1-3.5-6.2l-0.4-0.3h-1.2
			c-1.5,2.1-2.3,4.9-2.3,8.4l0.3,5c2.7,0,5.7-0.7,8.9-2.1c1.3,0,2.5,0.9,3.6,2.7c0,2.7-3.8,4.5-11.5,5.4l2.6,16.3
			c0,1.4-1.2,2.3-3.6,2.7c-2.1,0-3.2-3.2-3.2-9.6l-1.9-8.5l-6.7,1c-1.4,0-2.3-1-2.6-3.1c0-2,2.8-3.3,8.3-3.8l-0.4-6.2
			C231.6,158.3,235,153.4,240.6,153.4z"/>
		<path class="st0" d="M265.8,159c4.3,0,6.9,2.9,7.7,8.8v0.9c0,6.5-3.4,12.4-10.3,17.8c4,3.8,10.9,5.7,20.8,5.7
			c1.5,0.5,2.3,1.5,2.3,3.1c0,1.8-1.2,2.7-3.6,2.7c-6.7,0-13.7-1.7-21.1-5v2.9c0,6.9-1.5,10.3-4.5,10.3c-2.1,0-3.2-4-3.2-11.9v-7.8
			l-0.3-2.8l0.7-3.2l-0.7-9.6v-0.4c0-1.8,1-3,2.9-3.7C259.1,161.6,262.2,159,265.8,159z M260.7,180.9c2,0,4.2-3.5,6.7-10.4v-4.3
			l-1.2-1.3h-0.9C262.2,166.9,260.7,172.2,260.7,180.9z"/>
		<path class="st0" d="M308.9,159.8c3,0,4.5,1.2,4.5,3.5l-0.9,1.9l-0.6,18.3c0,8.3,1.7,13.4,5.1,15.4l0.2,1.5
			c-0.2,1.9-1.1,2.9-2.8,2.9h-0.6c-5.1-3.4-7.7-8.6-7.7-15.6h-0.7c-2.7,7.5-6,11.2-9.9,11.2c-3.6-1-5.4-3.6-5.4-7.9
			c0-9.4,3.9-18.8,11.6-28.1C304.2,160.8,306.6,159.8,308.9,159.8z M296.4,187l-0.4,2.8v1.9h1c5.1-12.5,7.7-20.1,7.7-22.8h-0.4
			C300.4,173.2,297.7,179.3,296.4,187z"/>
		<path class="st0" d="M332.9,164.7c5.8,0.5,8.7,3.2,8.7,8.3l0.2,1.3l-0.2,15.6c0,1.8,1.1,4.2,3.2,7.3v0.2c-0.5,1.9-1.5,2.9-3,2.9
			c-4.2-1.7-6.4-5.4-6.4-11V188l-0.3-0.2l0.3-0.4v-0.2l0.3-13.8c0-1.9-0.9-2.9-2.6-2.9H332c-3.4,1.3-5.1,8.6-5.1,21.9
			c0,4.6-1.2,6.9-3.6,6.9c-1.8,0-2.8-1.1-2.9-3.4v-10c0-12.9,1.2-19.4,3.5-19.4l1-0.3l2.2,0.3C328.9,165.3,330.9,164.7,332.9,164.7z
			"/>
		<path class="st0" d="M358.5,164.5l4.2-0.6c1.7,0,2.7,1,2.9,3.1c0,1.8-2.2,3-6.7,3.5c-2.8,2.1-4.2,4.9-4.2,8.2v3.3
			c1.4,7.3,3.7,11,7,11h1c1.9,0,4.8-1.8,8.6-5.3h0.6c1.4,0,2.5,0.9,3.3,2.8c-1,2.9-4,5.5-9.2,7.8c-1,0.3-2.1,0.5-3.4,0.6l-1.6,2.9
			v0.7c0,0.9,3.6,2.4,10.7,4.3c2.9,1.8,4.4,4.1,4.4,7c0,4.4-3.3,8.3-9.8,11.6l-3,0.5c-4.2-0.5-6.3-2.8-6.3-7v-0.2
			c0-1.3,0.8-2.1,2.4-2.4c1.3,0,2.1,1.4,2.4,4.2l0.7,0.5h1.1c2.8,0,5.5-2.2,8.1-6.5v-1c0-1.7-3.3-3.3-9.9-4.7
			c-3.5-1.6-5.2-3.8-5.2-6.5c0-2.1,0.2-3.6,0.5-4.6c-4-2.3-6.7-7.3-8.3-15v-2.2C348.6,172.7,351.9,167.4,358.5,164.5z"/>
		<path class="st0" d="M399.5,159.8c3,0,4.5,1.2,4.5,3.5l-0.9,1.9l-0.6,18.3c0,8.3,1.7,13.4,5.1,15.4l0.2,1.5
			c-0.2,1.9-1.1,2.9-2.8,2.9h-0.6c-5.1-3.4-7.7-8.6-7.7-15.6H396c-2.7,7.5-6,11.2-9.9,11.2c-3.6-1-5.4-3.6-5.4-7.9
			c0-9.4,3.9-18.8,11.6-28.1C394.8,160.8,397.2,159.8,399.5,159.8z M387.1,187l-0.4,2.8v1.9h1c5.1-12.5,7.7-20.1,7.7-22.8H395
			C391,173.2,388.4,179.3,387.1,187z"/>
		<path class="st0" d="M411.5,146.3c2.6,0.5,3.9,1.7,3.9,3.4c-0.7,1.9-1.8,2.8-3.3,2.8c-2.5-0.5-3.8-1.7-3.8-3.7
			C409,147.1,410,146.3,411.5,146.3z M415.4,160.3c1.1,0,2,1,2.8,2.9l-0.9,7.1v4.7c0,5.5,1,12.6,2.9,21.5c-0.7,1.3-1.8,1.9-3.5,1.9
			c-2.8,0-4.6-8-5.5-24v-3.5C411.1,163.8,412.5,160.3,415.4,160.3z"/>
		<path class="st0" d="M445.9,157.9c1.8,0,3.1,3,3.8,9.1c-0.7,1.7-1.8,2.5-3.4,2.5c-1.1-0.2-2.2-1.4-3.3-3.7l-1.8-0.6
			c-3.2,0-6.1,2.1-8.7,6.2v0.9c0,1,4.8,2.7,14.5,5c4,2.3,6,5.2,6,8.5c0,5.5-4.5,10.1-13.5,14l-3.8,0.6c-5.7-0.6-8.6-3.4-8.6-8.4
			v-0.3c0-1.6,1.1-2.5,3.2-2.8c1.6,0,2.7,1.7,3.3,5l0.8,0.6h1.7c3.9,0,7.5-2.6,10.9-7.8v-1.3c0-2-4.5-3.9-13.4-5.6
			c-4.7-1.9-7.1-4.5-7.1-7.8c0-4.3,3.7-8.4,11.2-12.2C440.9,159.4,443.7,158.8,445.9,157.9z"/>
	</g>
</g>
<g>
	<path class="st0" d="M218.9,29.9c1.6,0,2.7,2.5,3.2,7.5l0.4,5.4c0,4.1-0.8,14.7-2.3,31.8h0.6v0.3l0.4-0.3h0.8l12,0.9h0.8L240,74
		h0.7c1.1,0.7,1.8,1.6,2.3,2.8c0,2.5-2.9,4.1-8.7,4.7l-10.5-1h-1.9l-4.9,1.3c-1.8-0.7-2.8-1.7-2.8-3.2l2.2-34.3v-1.5l-0.6-10
		C215.7,31.1,216.7,30.1,218.9,29.9z"/>
	<path class="st0" d="M250.9,21.8c2.1,0,3.5,2.5,4.1,7.5v0.6c0,2.3-1.1,3.4-3.2,3.4c-2.2,0-3.2-2.2-3.2-6.5c-0.5,0-0.8-0.8-0.9-2.3
		C248.3,22.7,249.4,21.8,250.9,21.8z"/>
	<path class="st0" d="M280.3,42.4c3,0,4.5,1.2,4.5,3.5l-0.9,1.9l-0.6,18.3c0,8.3,1.7,13.4,5.1,15.4l0.2,1.5
		c-0.2,1.9-1.1,2.9-2.8,2.9h-0.6c-5.1-3.4-7.7-8.6-7.7-15.6h-0.7c-2.7,7.5-6,11.2-9.9,11.2c-3.6-1-5.4-3.6-5.4-7.9
		c0-9.4,3.9-18.8,11.6-28.1C275.6,43.4,278,42.4,280.3,42.4z M267.9,69.6l-0.4,2.8v1.9h1c5.1-12.5,7.7-20.1,7.7-22.8h-0.4
		C271.8,55.8,269.2,61.8,267.9,69.6z"/>
	<path class="st0" d="M303.1,20.3c1.9,0.4,2.9,1.3,2.9,2.8l-0.6,4.4v1.3c0,2.9,0.3,6,1,9.3h0.2c7.9-2.3,12.8-3.5,14.8-3.5
		c2,0.5,3,1.5,3,2.9c0,2.3-2.4,3.4-7.1,3.4l-10.7,3.7c0,9,1,21.2,3,36.7c-0.4,1.8-1.4,2.7-3,2.7h-0.2c-2.4,0-3.6-3-3.6-9
		c-0.9-4.5-1.6-14.2-2.3-29.1h-1.8c-6.4-0.4-9.6-1.9-9.6-4.4c0-0.7,0.7-1.6,2.2-2.7h1L297,40h3.3l-0.9-12.5
		C299.3,22.7,300.6,20.3,303.1,20.3z"/>
	<path class="st0" d="M336.6,45.1c2.7,0.1,7.3,4.7,13.8,14l0.2,1.7c0,1.9-4.7,3.3-14,4.3l-0.3,0.3v0.4c1.4,6,2.9,9,4.5,9h1.2
		c2.2,0,5.5-2.3,9.9-6.9h0.6c1.4,0,2.4,1,3.2,2.9c0,1.6-2.9,4.4-8.6,8.3c-1.5,0.9-3.3,1.5-5.4,1.9c-5.5,0-9.4-5.1-11.6-15.2
		c-3.1-0.5-4.7-1.7-4.7-3.8c0-1.5,1.2-2.4,3.5-2.9v0.4l1-0.4v-2.5C330,48.9,332.2,45.1,336.6,45.1z M337.3,52.3h-0.9l-0.4,3.7v3.1
		h0.4c3.8-0.1,5.7-0.5,5.7-1.2C340.3,55.3,338.7,53.4,337.3,52.3z"/>
	<path class="st0" d="M365.5,25.9c1.9,0.7,2.9,1.7,2.9,3.1l1,38.1v12.3c0,2.3-1,3.4-3,3.4h-1.3c-1.2-0.8-1.8-1.7-1.8-2.8V68.4
		l-0.9-39.6C362.4,27.1,363.4,26.1,365.5,25.9z"/>
	<path class="st0" d="M378,28.9c2.6,0.5,3.9,1.7,3.9,3.4c-0.7,1.9-1.8,2.8-3.3,2.8c-2.5-0.5-3.8-1.7-3.8-3.7
		C375.6,29.7,376.6,28.9,378,28.9z M381.9,42.9c1.1,0,2,1,2.8,2.9l-0.9,7.1v4.7c0,5.5,1,12.6,2.9,21.5c-0.7,1.3-1.8,1.9-3.5,1.9
		c-2.8,0-4.6-8-5.5-24v-3.5C377.6,46.4,379.1,42.9,381.9,42.9z"/>
	<path class="st0" d="M401.1,45.1c2.7,0.1,7.3,4.7,13.8,14l0.2,1.7c0,1.9-4.7,3.3-14,4.3l-0.3,0.3v0.4c1.4,6,2.9,9,4.5,9h1.2
		c2.2,0,5.5-2.3,9.9-6.9h0.6c1.4,0,2.4,1,3.2,2.9c0,1.6-2.9,4.4-8.6,8.3c-1.5,0.9-3.3,1.5-5.4,1.9c-5.5,0-9.4-5.1-11.6-15.2
		c-3.1-0.5-4.7-1.7-4.7-3.8c0-1.5,1.2-2.4,3.5-2.9v0.4l1-0.4v-2.5C394.5,48.9,396.7,45.1,401.1,45.1z M401.7,52.3h-0.9l-0.4,3.7v3.1
		h0.4c3.8-0.1,5.7-0.5,5.7-1.2C404.8,55.3,403.2,53.4,401.7,52.3z"/>
	<path class="st0" d="M437.7,41.6c4.3,0,6.9,2.9,7.7,8.8v0.9c0,6.5-3.4,12.4-10.3,17.8c4,3.8,10.9,5.7,20.8,5.7
		c1.5,0.5,2.3,1.5,2.3,3.1c0,1.8-1.2,2.7-3.6,2.7c-6.7,0-13.7-1.7-21.1-5v2.9c0,6.9-1.5,10.3-4.5,10.3c-2.1,0-3.2-4-3.2-11.9v-7.8
		l-0.3-2.8l0.7-3.2l-0.7-9.6v-0.4c0-1.8,1-3,2.9-3.7C431,44.2,434.2,41.6,437.7,41.6z M432.6,63.5c2,0,4.2-3.5,6.7-10.4v-4.3
		l-1.2-1.3h-0.9C434.1,49.5,432.6,54.8,432.6,63.5z"/>
</g>
<g>
	<g>
		<path class="st0" d="M323.6,89.9c1.2,0,2.2,1.1,3.2,3.2l-4.5,27.8v7.8c0,8.1,1.3,12.2,3.9,12.2c1.7,0.8,2.6,1.9,2.6,3.2
			c0,1.5-1.4,2.4-4.1,2.7c-3,0-5.4-2.7-7.1-8.1h-1c-2.5,5.4-5.6,8.1-9.2,8.1c-4.2,0-6.8-3.1-7.7-9.4c0-7.3,5-15,15-23.1
			c2,0,3-2.7,3-8.1C319.1,95.3,321.1,89.9,323.6,89.9z M305.7,136.6v2.7l1.6,1.6h0.6c2.2,0,4.8-6.4,7.7-19.3H315
			C308.8,127.6,305.7,132.6,305.7,136.6z"/>
		<path class="st0" d="M336.4,114.7l1.8-1c1.6,0,2.8,1,3.6,2.9c-1.1,4.9-1.6,10-1.6,15.2c0,2.6,0.8,5.4,2.4,8.5h0.6
			c2,0,4.3-7.6,7.1-22.9c1-0.8,1.9-1.2,2.8-1.2c2.1,0,3.2,3.7,3.2,11c0.9,8.1,1.9,12.1,3,12.1l1.5-0.6c2,0.7,3,1.8,3,3.1
			c-1.2,2.5-2.9,3.8-5.1,3.8c-2.5,0-4.8-2.4-7.1-7.2c-2.7,5.6-5.5,8.4-8.3,8.4c-4.2,0-7.1-4.2-8.7-12.7l-0.3-3.2v-1
			C334.2,124.5,334.9,119.5,336.4,114.7z"/>
	</g>
</g>
<g id="XMLID_4287_">
	<polygon id="XMLID_4360_" class="st1" points="211.1,127.8 217.2,132.7 218.6,138.2 210.1,151.2 162.5,197.1 147.5,215 
		136.7,207.3 	"/>
	<polygon id="XMLID_4359_" class="st2" points="208.3,124.3 204.1,122.4 200.5,121.6 196.4,123 178.8,142.7 150.7,175.9 138.8,191 
		127.7,200 135.5,205.8 209.1,125.6 	"/>
	<g id="XMLID_4290_">
		<path id="XMLID_4308_" d="M47,150.2c6.7,1.9,12.3,5.9,15.9,12.2c1.1,2,1.7,4.7,1.5,7c-0.1,1.4-2.1,2.7-3.3,4.1
			c-0.8-1.3-2.3-2.5-2.4-3.8c-0.2-7.7-5.7-10.5-12.1-13.7c0,6.8-0.2,12.7,0.1,18.7c0.1,1.1,1.9,2.2,3.1,3.1c3.7,2.7,7.9,4.9,11.2,8
			c1.6,1.4,2.5,4.4,2.3,6.6c-0.2,1.9-2.1,3.8-3.7,5.2c-0.5,0.5-2.3-0.4-3.6-0.7c0.5-1.8,1-3.5,2-6.7c-2.9-2.1-6.6-4.7-11.4-8.2
			c0,6.6-0.3,11.4,0.1,16.1c0.4,4.9,3.8,7.9,8.5,8.4c10.5,1.3,21.1,2,31.6,3.1c6.2,0.7,12.5,1.6,18.6,2.8c1.5,0.3,2.7,2.1,4,3.3
			c-1.5,0.7-3,1.9-4.5,1.9c-8.5-0.5-16.9-1.2-25.3-2c-8.9-0.9-17.8-1.7-26.7-3c-2.8-0.4-6.2-1.6-8-3.5c-2.8-3.1-6-3.2-9.6-3.6
			c-6-0.7-11.6-3.2-13.4-9.5c-2.2-7.3,0.5-13.4,7-17.6c-10.7-10.2-10.7-17.6,0.1-26.2c-11.8-9.1-11.7-17.9,0.6-26.8
			c-5.2-3.1-7.5-7.7-7.1-13.6c0.4-6,3.6-10.1,8.3-12.6c-1.4-3.9-3.9-7.5-3.8-11.1c0.1-3.5,2.9-7,4.8-11.2C25.2,69.6,24.8,61,31.1,52
			c-1.4-0.7-2.8-1.4-4.1-2.1c-3.6-2.2-4.6-5.7-2.5-9.3c0.7-1.3,1.7-2.6,2.9-3.4c6.2-3.7,11.8-7.6,15.9-14.3
			c1.9-3.2,8.6-4.1,13.3-5.1c4.8-1,9.9-1.1,14.9-1.2c35.3-0.4,70.6-0.7,106-1c3.6,0,7.4,0.3,10.9,1.2c11.7,3.1,14.3,10,14,22.5
			c-0.2,9.3-2.4,18.6-2.3,27.8c0.2,12.4,1.7,24.8,3,37.2c0.3,3,0.2,5.4-2.7,5.7c-1.1,0.1-3.4-2.8-3.7-4.6c-3-18.3-2.9-36.8-1.5-55.2
			c0.4-5.4,0.8-10.9,0.5-16.4c-0.5-10.2-4.5-10.3-12-11.1c-7.9-0.8-15.9-1.1-23.9-1c-27.3,0.2-54.6,0.5-82,1c-8.1,0.2-16.3,1-24.3,2
			c-2.5,0.3-4.7,2.1-7.7,3.5c6.1,0.6,11.1,0.5,15.7,1.6c7.7,1.9,11.1,11,7,17.5c-0.6,1-2.2,1.4-3.4,2.1c-0.6-1.2-1.5-2.3-1.8-3.6
			c-0.3-1.3,0.1-2.6,0.3-4c0.7-4.8-2.1-6.5-6.2-7.3c-0.2,0-0.3,0-0.5,0c-14.5-0.1-12.7-1.2-11.1,13.5c5.2,2.3,10.4,4.2,15,6.9
			c5.2,3,7.3,9.8,4.7,14.2c-1,1.6-3.4,2.3-5.2,3.4c-0.1-1.7-0.7-3.5-0.2-5c1-3.1,0.5-5.8-2.1-7.5c-3.3-2-6.9-3.5-11.6-5.7
			c0.5,7.3,0.8,13.2,1.4,19c0.1,0.9,2,1.8,3.2,2.2c9.6,3.1,16.2,11.3,15.5,20.1c-0.1,1.4-2,2.7-3.1,4c-0.9-1.3-2.5-2.5-2.7-3.8
			c-0.9-7.8-4.7-12.7-13-15.2c0,5.4-0.2,10.7,0.2,15.9c0.1,1.1,2,2.4,3.3,2.9c5.4,2.2,10,5.6,12.3,11c1.1,2.5,1.2,5.8,0.8,8.6
			c-0.1,1.3-2.4,2.3-3.7,3.4c-0.7-1.5-1.9-2.9-2-4.4c-0.2-7.2-3.2-10.8-10.8-12.5c-0.3,5.5-0.8,10.9-0.7,16.4c0,1.3,1.7,3.3,3,3.9
			c5.4,2.2,10.7,4.7,13,10.1c1.2,3,0.5,6.8,0.2,10.2c-0.1,0.6-2.1,1.7-3.1,1.5c-0.7-0.1-1.5-1.9-1.6-3c-0.6-8.4-2.6-10.7-11.6-13.1
			C47,137.8,47,143.9,47,150.2z M40.4,129.8c-5.6,0.6-10.6,1-13.5,5.9c-2,3.6-0.3,6.8,2,9.5c3,3.3,6.5,5.8,11.4,3.8
			C40.4,142.8,40.4,136.7,40.4,129.8z M40,155.7c-5.4-0.4-9.7,1.4-12,5.7c-1.1,2.1-0.9,6,0.4,8c2.5,3.7,5.9,7.3,11.6,5.7
			C40,168.8,40,162.5,40,155.7z M41.5,103.8c-7-1.1-12.4,2.2-13,7.7c-0.7,6.5,4.3,11.5,12.1,11.9C40.9,116.9,41.2,110.3,41.5,103.8z
			 M39.8,181.7c-5.7-0.5-9.9,1.6-11.9,6.1c-1,2.2-0.5,5.9,0.8,8.1c2.4,4.2,6.5,6.1,11.1,5.6C39.8,194.6,39.8,188.2,39.8,181.7z
			 M39.9,55.3c-5.9,1.9-7.5,4.3-7.3,9.8c0.2,5.2,2.7,8.5,8.2,10C40.5,68.5,40.2,62,39.9,55.3z M41,80.3c-4.9,2.1-9.2,4-8.4,9.3
			c0.6,4.4,3.9,6.7,8.4,7.7C41,91.5,41,86.3,41,80.3z M28.7,43.2c0.1,0.7,0.2,1.3,0.3,2c3.1,1.6,6.1,3.2,10,5.3
			c-0.2-5-0.4-8.7-0.7-13.6C34.7,39.3,31.7,41.2,28.7,43.2z"/>
		<path id="XMLID_4297_" d="M221.9,136.5c-0.7,8.2-4.7,12.9-9.1,17.2c-20,19.5-40.6,38.5-60,58.6c-8.1,8.4-16.9,14.9-27.1,19.9
			c-2.8,1.4-6,1.9-9,2.5c-2.5,0.5-4-0.7-3.1-3.4c3.7-11.6,7.4-23.2,11.2-34.7c0.3-0.9,1-1.7,1.8-2.3c13.7-10.5,22.7-25,34-37.7
			c10.5-11.8,21.5-23,32.1-34.8c3.4-3.8,6.6-2.9,10.8-1.8c5.7,1.4,10.8,3.5,14.3,8.2C219.7,131,220.9,134.5,221.9,136.5z
			 M146.7,212.8c2.8-4.1,4.8-8.4,8-11.6c10.7-10.7,21.7-21,32.6-31.6c8.6-8.3,17.5-16.3,25.7-25.1c5.4-5.8,3.9-11.1-2.6-15.1
			c-23.8,26-47.6,51.9-71.4,77.7C142.1,209.4,144.2,210.9,146.7,212.8z M207.3,127.4c-5.7-3.2-9.7-4-13.8,0.7
			c-12.4,14.2-25.4,28.1-37.6,42.4c-8.5,10-14.7,22.1-26.7,28.5c2.9,2,5.8,4,7.5,5.2C160.1,178.6,183.6,153.2,207.3,127.4z
			 M127.4,202.3c-1,5.4-1.9,10-2.7,14.3c2.5,2.2,4.7,4.1,7.3,6.3c3.3-2.3,6.8-4.7,10.2-7.1c0.2-0.5,0.3-1.1,0.5-1.6
			c-6.2-1-9.1-5.2-11.4-9.9C130.8,203.3,129,203.1,127.4,202.3z"/>
		<path id="XMLID_4296_" d="M176.2,53.8c-1.6,0.7-3.5,2.3-4.8,1.9c-16.7-4.5-33.7-3-50.6-3.1c-7.6,0-15.2,0.7-22.9,0.9
			c-1.5,0-2.9-1.3-4.4-2c1.2-1.1,2.3-2.8,3.7-3.2c4.5-1.2,9-2.5,13.6-2.6c20.1-0.2,40.2-1.4,60.1,2.9c1.9,0.4,3.6,1.9,5.4,2.9
			C176.2,52.3,176.2,53.1,176.2,53.8z"/>
		<path id="XMLID_4295_" d="M91.6,77.8c6.5-1.4,13-3.4,19.6-4c15.7-1.4,31.4-2.6,47.2-3c4.8-0.1,9.7,2.5,14.4,4.3
			c0.9,0.3,1.1,2.6,1.6,4c-1.3,0.3-2.7,1.2-3.8,1c-18.3-4.4-36.6-2.2-54.9,0.3c-6.2,0.8-12.6,1-18.9,1.2c-1.7,0.1-3.5-0.9-5.3-1.4
			C91.6,79.3,91.6,78.5,91.6,77.8z"/>
		<path id="XMLID_4294_" d="M90.7,103.5c2.1-0.6,4.2-1.7,6.3-1.8c12.2-0.8,24.5-1.4,36.8-2.1c6.3-0.4,12.5-1.3,18.8-1.5
			c5.1-0.2,10.3,0.1,15.3,0.8c1.7,0.3,3.2,2.8,4.7,4.3c-1.9,0.7-3.8,2-5.8,2.1c-3.4,0.2-6.9-0.5-10.4-0.4
			c-18.8,0.5-37.6,1.2-56.3,1.7c-3.1,0.1-6.2-0.7-9.4-1.1C90.7,104.7,90.7,104.1,90.7,103.5z"/>
		<path id="XMLID_4292_" d="M162.6,212.6c3.2-0.3,6.4-0.8,9.6-0.8c6.1,0.1,12.3,0.7,18.4,0.6c6.7-0.1,9.1-2.8,8.9-9.6
			c-0.2-7.3-0.8-14.6-0.9-21.9c0-1.8,1.3-3.6,2-5.4c1.4,1.5,3.3,2.8,3.9,4.6c0.9,2.4,0.9,5.2,1.1,7.8c0.4,5,0.5,9.9,0.9,14.9
			c0.7,8.7-4.5,15.1-14.1,15.5c-8.3,0.4-16.6-0.4-24.8-0.9c-1.7-0.1-3.4-1.4-5.1-2.2C162.6,214.4,162.6,213.5,162.6,212.6z"/>
		<path id="XMLID_4291_" d="M92,129c4.5-0.7,8.9-1.7,13.4-1.9c8.9-0.4,17.7-0.5,26.6-0.3c1.3,0,2.5,2.5,3.8,3.9
			c-1.5,0.7-3.1,2-4.6,2c-10.4,0.1-20.8,0.1-31.2-0.1c-2.7,0-5.3-0.9-7.9-1.3C92,130.4,92,129.7,92,129z"/>
	</g>
</g>
</svg>
