<?xml version="1.0" encoding="utf-8"?>
<!-- Generator: Adobe Illustrator 19.0.0, SVG Export Plug-In . SVG Version: 6.00 Build 0)  -->
<svg version="1.1" id="Layer_1" xmlns="http://www.w3.org/2000/svg" xmlns:xlink="http://www.w3.org/1999/xlink" x="0px" y="0px"
	 viewBox="104 22 820.1 750" style="enable-background:new 104 22 820.1 750;" xml:space="preserve">
<style type="text/css">
	.st0{fill:#1F363D;}
	.st1{fill:#F4F1BB;}
	.st2{fill:#9EC1A3;}
	.st3{fill:#ED6A5A;}
</style>
<rect x="104" y="22" class="st0" width="820.1" height="759.1"/>
<rect x="341.7" y="159.4" class="st1" width="319.6" height="409.4"/>
<g id="nube6">
	<path id="_x36_r_1_" class="st2" d="M613.8,426.9c-0.3-1.2-1.4-1.7-2.4-2.5c-2.4-1.9-4.5-4.1-4.6-7.4c-0.1-3.6-1.3-6.6-4.9-7.9
		c-0.5-0.6-1.1-1.2-1.8-1.6c-0.2-2.4-2.6-2.7-3.8-4c-1-1-2.4-0.5-2.7,1.1c-0.1,0.8-0.6,1.5-0.5,2.3c-0.3,0.1-0.6,0.2-0.8,0.4
		c-0.4-0.1-0.8-0.1-0.7,0.4c-1.1,0.8-2,1.8-2.5,3c-1.8-1.2-3.5-2.6-5.1-3.6c-0.7-0.5-1.5-2.4-2.5-1.2c-0.4,0.5-1,1.3-1,2.1
		c-1.7,0.2-3.1,0.9-4.1,1.9c-0.8-0.1-1.4,0.2-1.8,1.4c-0.5,1.6-1.5,2.8-2.7,3.8c-6.6,1.3-7.8,10-3.5,14c-1.9,1.5-2.7,3.6-2.5,5.5
		c-0.3,4.2,2.2,8.8,7.7,8.8c0.1,0,0.2,0,0.3,0c1,0.1,2,0,2.9-0.6c1-0.4,1.9-1.1,2.6-1.9c0.5-0.3,1.1-0.6,1.6-0.9c0,0,0,0.1,0.1,0.1
		H581c-0.1,0.6,0.3,0.7,0.7,0.8c1,1.1,2.3,2,4,2.3c0.9,2.3,3.8,4.1,7,4.5c0.2-0.4-0.1-0.7-0.3-1.1c-0.7-0.7-1.7-1.8-0.7-2.8
		s2.2-0.6,3.4,0.3c1,0.9,2,1.6,3.1,2.2c1.2,0.7,2.2,1.1,2.6-0.9c0.3-1.9,1.7-2.4,3.3-2.1c2.8,0.5,4.2-1.2,4.9-3.5c1-3.1,3-5.8,3.6-9
		c0.1-0.5,0.3-1.3,0.6-1.3C615.7,429.3,614.1,427.9,613.8,426.9z"/>
	<path id="_x36_c_1_" class="st0" d="M593.2,407.6c2.5-1.1,4.6-1.1,6.4,1.6c-5.6-2.2-8.1,1.1-10.5,5c-0.6,1.1-1.2,1.7-2,0.2
		c-1.4-2.6-3.5-3.7-6.3-3.1c-3,0.7-4.6,3-5,5.9c-0.3,2.4-0.7,3.4-3.5,2.5c-2.4-0.9-5.9,1.7-6.2,4.2c-0.4,3.1,1.8,3.4,4.2,3.4
		c-0.2,1.4-1.4,1.5-2.1,2c-3.9,3.1-3.2,8.3,1.4,10.2c5,2,6.4,1.6,8.9-3.2c0.9-1.7,1.4-1.4,2,0c0.7,1.6,1.9,3,3.3,4.1
		c3.7,3,7.9,1.6,9-3c0.4-1.8,1-1.2,1.9-0.5c3.6,2.5,6.6,2.4,10-0.3c3.4-2.9,4.9-7.6,3.3-11.1c-1.1-2.2-3-3.5-5.5-3.1
		c-1.9,0.3-2.2-0.2-1.8-1.9c0.7-3,1.6-5.9,0-8.9c-0.2-0.4-0.3-1,0.4-1.2c0.6-0.1,0.9,0.3,1.1,0.7c0.9,2.2,1,4.6,0.4,7
		c-0.4,1.8-0.5,2.8,1.9,3c3,0.2,5.1,3.2,5.4,6.5c0.6,8.1-6.6,13.9-14.6,11.6c-1-0.3-1.4-0.2-1.8,0.6c-1.8,3.2-4.7,4-8.1,3.3
		c-1.2-0.7-2.4-1.4-3.5-2.1c-0.2-0.4-0.3-0.9-1-0.9l0.1-0.1c-0.7-1.5-1.3-2.7-2.9-0.4c-1.6,2.1-4.1,3-6.7,3.2
		c-5.7-1.9-7.9-4.8-7.2-9.4c0.1-0.6,0.2-1.4,0.5-1.9c1.3-1.7,1.3-3.1,0.2-5.1c-1.6-3.1,0.6-5.2,3-7.1c1.6-0.3,3.2-1.2,4.9-0.5
		c1,0.4,1.2,0,1.3-0.9c0.3-3.2,2.1-5.4,4.5-7.4c0.7-0.2,1.7,0.1,2.4-0.5c2.1,0,4.3,0.2,5.7,1.9c1.4,1.6,2,0.9,2.7-0.5
		c0.7-0.9,1.5-1.7,2.4-2.6C592.1,408.2,592.6,407.9,593.2,407.6L593.2,407.6z"/>
</g>
<g id="nube5">
	<path id="_x35_r_1_" class="st2" d="M430.3,430.3c-3.9-5-8.2-9.6-12.7-14.1c-0.1,0.1-0.1,0.2-0.2,0.2c0.9-1.8,1.2-3.9,1.1-5.9
		c0.2,0.7,0.3,1.5,0.4,2.3c1.4-1.5,1.5-3,1-5c-0.5-1.9-2-1.9-3-2.9c-3.1-3.4-6.5-6.6-9.8-10c-0.7-0.7-1.4-1.1-2-0.8
		c-1.4-0.7-3-1.1-4.8-1.1c-2.4,0-4.4,0.7-5.9,1.7c-1.7-1-3.4-2-4.9-3.3c-2.1-1.8-2.8-1.6-3.6,1.3c-0.7-0.1-1.4-0.2-2.2-0.2
		c-1.2,0-2.2,0.2-3.2,0.4c-3.4-5.1-7.9-9.2-12.1-13.6c-0.4,1-0.4,1.6,0,2.2c2,3.1,4,6.2,6.1,9.3c0.9,1.4,2,2.7,2.1,4.3
		c-0.7,0.7-1.3,1.5-1.8,2.4c-2.8,0.2-4.4-2.6-6.6-3.9c0.5,2,1.2,3.9,2.2,5.5c1.5,2.4,1.2,3.9-1.3,4.9c-0.9,0.4-1.9,0.7-1.1,1.8
		c1.1,1.3,0.6,2.3,0.1,3.4c-1,0.3-1.8,0.8-2.6,1.4c-3.3-2.6-6.5-5.2-9.8-7.9c-0.6,1.7,0.5,2.2,1,3.2c0.4,1,1.7,1.6,1.5,2.8
		c-0.5,3.1,2.7,6.2,0,9.3c-0.3,0.3-0.1,1.3,0.2,1.7c1.4,2.2,2.9,4.1,4.9,5.8c1.7,2.6,4.5,4.5,8.6,4.5c0.8,0,1.6-0.1,2.3-0.2
		c0.5,1.8,1.3,3.5,2.7,4.8c0.3,2.3,1.6,4.2,3,5.9c0.9,1.3,2.4-1.4,4-0.9c0.4,0.1,1-0.3,1.4-0.2c2.2,0.6,3.6-0.6,5.1-1.9
		c0.5-0.5,1.4-0.7,1.9-1.2c1.6-1.5,4.3-1.6,5.1-3.6c0-0.1,0.1-0.1,0.1-0.2c2-0.4,3.6-1.2,4.9-2.4c1.5,2.4,3.4,4.5,5.9,6.1
		c-1.4-2.6-4.5-4.2-3.2-7.7c-0.5,0-1,0.1-1.5,0.2c0.4-0.6,0.8-1.2,1.1-1.9c1.8-0.9,3.2-2.6,3.2-4.4c0-0.2,0-0.3,0-0.4
		c0.1,0,0.2,0,0.3,0c0.7,0,1.4-0.1,2-0.2c0.3,0.7,1,0.8,2,0.4c0.7-0.3,0.9-0.8,0.7-1.2c1.4-0.6,2.5-1.6,3.4-2.7
		c0.4,1.7,2.3,2.3,3.3,3.6c2.8,3.3,6,6.5,9.3,9.4c0.6,0.5,1.3,1.2,2,0.4C431.4,431.2,430.6,430.7,430.3,430.3z"/>
	<path id="_x35_c_1_" class="st0" d="M365.8,411c0.6-0.3,1.2-0.6,1.8-1c1,0,2-0.1,2.9,0.2c1.5,0.4,1.7,0,1.5-1.4
		c-0.5-4.5,1.4-8.1,4.1-11.6l-0.1-0.1l0.1,0.1c1.6-1.2,3.4-2,4.7-3.6c1.6-0.1,3.2-0.2,4.8-0.3c4.6,0.9,6.6,4.4,8.3,8.5
		c1.6-1.5,3.1-2.9,4.6-4.2c1.3-0.3,2.5-0.6,3.7-0.9c3.9,0.6,6.6,2.4,6.6,6.7c0,0.7,0.4,0.9,1.1,0.9c6.2,0.2,7.9,1.9,8.8,8.6
		c-0.4,1.1-0.9,2.2-1.3,3.3c-0.5,0.5-1,1.2-1.5,1.7c-1.3,0.9-2.7,1.6-4,2.5c-0.7,0.2-1.4,0.3-2.1,0.5c-0.6,3.2-1.9,6-4.8,7.6
		c-1.1,0.2-2.2,0.4-3.3,0.5c-0.9-0.1-1.7-0.2-2.6-0.2c-0.7-0.3-1.5-0.6-2.1-1.1c-1.5-1.1-2.6-1.2-2.8,1.2c-0.1,1.8-1,3.3-2.2,4.7
		c-4.1,4.4-9.5,4.4-15.4,0.2l0,0c0-0.2-0.1-0.3-0.3-0.5c-1.7-1.4-2.6-3.4-3.1-5.4s-1.3-2.6-3.2-2c-1,0.3-2.1,0.2-3.1-0.4
		C361.5,421.5,361,415.9,365.8,411z M373.1,408.8c0.5,2.2,0,3.3-3,2.9c-3.2-0.4-5.2,1.7-5.7,5c-0.4,3.6,1.6,6.8,4.7,7.5
		c4.5,0.7,4.5,0.7,6.4,4.9c0.2,0.5,0.5,1.1,0.9,1.5c2.2,3,5.1,4.9,9,4.5c3.4-0.4,5.7-2.4,7.2-5.5c0.7-1.5-0.4-4.1,1.2-4.4
		c1.4-0.3,3.2,1.1,4.8,1.8c1.2,0.5,2.4,0.5,3.5,0.4c2.8-0.2,5.6-2.6,5.6-5.1s1-3.3,3.3-3.6c1.1-0.1,2-0.7,2.9-1.3
		c3-2.1,3.9-6.4,1.8-9.5c-1.7-2.6-4-2.9-7.7-0.9c-0.9,0.4-1.4,0.5-2.1-0.1c-0.7-0.7-0.1-1.2,0.3-1.8c1.8-3.1,0.2-6.2-3.3-6.6
		c-3.3-0.4-7.7,2.6-8.5,5.9c-0.1,0.5,0,1.3-0.9,1.2c-0.7-0.1-0.9-0.7-1-1.3c-0.2-1.7-0.9-3.2-1.5-4.8c-1.8-3.9-5.8-5.7-9.2-4.3
		C376.8,397.3,373.1,403,373.1,408.8z"/>
</g>
<g id="nube4">
	<path id="_x34_r_1_" class="st2" d="M639.5,348.6c-1.6-1.7-2-3.4-1.1-4.7c1.1-0.4,2-1,2.7-1.8c0.9-0.4,1.1-0.9,1-1.3
		c2.3-3.9,1.2-9.9-3.4-11.9c0-0.9-0.2-1.8-1.2-2.5c-0.1,0.1-0.2,0.1-0.3,0.2c0.1-0.4,0.1-0.8,0.2-1.2c0,0.2,0.1,0.4,0.1,0.6
		c2.2-2.1,2.7-5.7,0.9-7.1c-2.6-2.1-4.4-5-7.2-6.8c-0.4-0.3-1.2-1.2-1.4-0.3c-0.5,1.9-2.2,2.1-3.4,3.1c-0.2,0-0.3,0-0.5,0
		c-1.1,0-2.1,0.2-3,0.5c-0.1,0-0.1,0-0.2,0c-2.1,0-3.8,0.7-5.1,1.8c-2.2,0.7-4.1,0.3-5.8-1.6c-0.3-0.3-1.4,0.1-0.9,0.7
		c1,1,1.4,2.4,2.4,3.4c-0.2,0-0.5,0-0.8,0c-2.6,0-4.6,1-5.9,2.6c-0.6,0-1.1,0.1-1.7,0.1c-0.2,0-0.3,0-0.5,0c-0.5,0-0.9,0-1.3,0.1
		c-0.5,0-0.9-0.1-1.4-0.2c-0.8-0.2-1.1,0.5-1.4,1.2c-0.9,0.5-1.6,1.2-2.2,2.1c-0.5,0.4-0.8,0.9-0.8,1.6c-0.7,1.9-0.8,4-0.3,5.9
		c-0.4,1.9-1.7,2.8-4.4,2.6c-1.8-0.1-1.7,1-0.9,2c0.4,0.4,0.7,0.9,1.2,1.3c-1,1.8-1.3,4-1,6c-1.5-0.2-2.1,0.1-1.2,2.1
		c0.7,1.4,1.5,1.6,2.8,1.5c0.5,0.6,1,1.1,1.6,1.5c-0.1,0.7,0.1,1.3,0.6,1.7c3.2,2.9,6,6.3,10.5,8.6c-1.1-2.2,0.2-3.8,1-5.4
		c1.2,1.3,2.9,2.1,5,2.2c0,0.2,0,0.4,0.3,0.7c0.7,0.7,1.8,0.6,2.6-0.3c0.2-0.3,0.4-0.6,0.7-0.9c0.8-0.3,1.4-0.7,2-1.2
		c0.5-0.1,0.9-0.1,1.5-0.1c0-0.3-0.1-0.7-0.2-1c0.3,0.1,0.5,0.1,0.8,0.1c0.6,2.1,2,3.9,4.2,4.8c-0.1,2.6,2.2,3.4,3.9,4.3
		c0.9,0.5,3-0.2,3.7-1.3c0.6-0.7,0.7-1.7,0.1-2.6c1.9-0.3,3.4-1.2,4.4-2.4c0.6,0,1.1-0.2,1.6-0.8c1.5-2.6,3.4-1.7,5.5-0.6
		c1.4,0.7,2.2,2.5,4.6,2.4C645.2,354.9,642.4,351.7,639.5,348.6z M630.9,316.7c-0.2-0.2-0.4-0.3-0.6-0.5c0.7,0.2,1.4,0.4,2.1,0.8
		C631.9,316.9,631.4,316.8,630.9,316.7z"/>
	<path id="_x34_c_1_" class="st0" d="M597.8,329.8c0-0.3,0.1-0.5,0.1-0.9c2.9-3.5,6.6-5.2,9-3.5c2.6,1.8,2.9,0.2,3.4-1.5
		c1.7-0.6,2.7-2.1,4-3.3c1.4-1,2.9-2,4.3-3c2.2-1.5,4.8-1.8,7.3-2.2c2.2,0.4,4.6,0.5,6.7,1.8c3.4,2,4.2,5.4,4.7,8.9
		c0,0.1,0,0.3,0,0.4c-1.8,0.7-1.3,2.7-2.1,4.1c1.3,0.1,2.4,0.3,3.3,0.4c3.3,2.5,3.7,4.2,2,8.6c-1.3,1.4-2.7,2.6-4.5,3.2
		c-0.6,0.2-1.7,0.4-0.9,1.6c3.3,4.5,2.5,8.8-0.7,12.9c-1.2,0.6-2.4,1.2-3.5,1.8c-2.2,0.5-4.6,0.4-6.8-0.2c-2-0.5-3-2.6-4.8-3.4
		c-0.2-1.1-0.4-2-1.4-2.7c-1.3,1.5-2.6,3-4.5,3.4c-2.1,0.2-4.2-0.1-5.9-1.6c-0.3-0.6-0.9-1.2-0.9-1.8c-0.1-2.6-1.3-2.5-3.3-1.7
		c-2.9,1.1-5.7,0.5-8.2-1c-0.2-0.7-0.5-1.4-1.5-1.4c-0.3-1.3-0.5-2.6-1.4-3.5c0.7-1.8,1.6-3.6,2.4-5.4c2.7-2.7,5.2-5.4,3.1-9.6
		C597.8,330,597.9,329.9,597.8,329.8z M603.2,335c-4.6,1.7-6.7,3.7-8.1,7.5c-1.5,4.2,1,7.6,5.4,7.5c2.5-0.1,4.6-1,6.6-2.1
		c0.5-0.3,1.1-0.7,1.6-0.3c0.6,0.5,0.1,1-0.2,1.5c-1.2,2.1-0.6,3.9,1.4,5.1c1.9,1.3,4,1.1,5.7-0.6c1.2-1.1,1.8-2.6,2.1-4.2
		c0.1-0.4,0.2-0.7,0.7-0.7s0.6,0.4,0.7,0.7c0.4,1.2,0.6,2.5,1.2,3.6c2.4,4.7,7.7,6.3,12,3.7c3.7-2.2,4.8-7.1,2.5-10.8
		c-0.7-1.2-2.8-1.7-2.4-3c0.4-1.4,2.6-1.1,3.9-1.8c2.8-1.5,4.6-4.1,4-6.3c-1-3-3.5-3-6.1-2.9c-0.6,0-1.5,0.5-1.9-0.2
		c-0.4-0.9,0.4-1.2,0.9-1.6c4.2-4.4,3-10.1-2.5-12.5c-2.6-1.1-5.1-1.1-7.8-0.4c-4.9,1.3-8.3,4.8-11.5,8.5c-1.5,1.7-2.7,1.8-4.5,1
		c-2.7-1.3-6.3,0.1-7.4,2.7C598.6,331.7,599.6,333.4,603.2,335z"/>
</g>
<g id="nube3">
	<path id="_x33_r_1_" class="st2" d="M475.3,354.6c-1.3-1.6-1.4-3,0-4.5c0.9-0.9,1.2-1.6,0.2-2.6c-2.8-2.8-5.9-5.1-8.8-7.8
		c-2.1-1.9-2.6-0.1-3.3,1.5c-0.2,0-0.4,0-0.7,0c-1.6,0-3,0.3-4.3,0.8c-1.5-0.9-3.3-1.4-5.4-1.4c-0.5,0-0.9,0-1.3,0.1
		c-0.3-1.2-1.4-1.9-2.5-2c-1.3,0-0.6,1.6-1.2,2.4c-0.2,0.2-0.2,0.5-0.2,0.9c-0.2,0.1-0.3,0.2-0.5,0.3c-1.3,0-2.8,0.2-4-0.3
		c-2.7-1.4-3.7-0.3-4,2.2c-1.7,0.4-3,1.1-4.2,2.1c-0.6-0.3-1.2-0.8-1.7,0.2c-0.4,0.7-0.3,1.1,0.1,1.5c-1.2,1.7-1.9,3.8-2,6
		c-0.4-0.2-0.8-0.5-1.1-0.7c-1.2-0.6-2.1-2.1-3.3-1.6c-1.2,0.5-1.5,2.4-3,3.2c-0.4,0.2,0.7,1.8,1.5,2.6c4.3,4.1,8.6,8,12.9,12
		c0.4,0.4,0.9,1.1,1.6,0.4c0.8,1.3,2,2.5,3.5,3.3c-0.1,2.4,1.8,2.5,3.4,2.4c3.4-0.3,6.4,0,8.7,3c0.4,0.5,1,0.7,1.6,0.3
		c0.4-0.9-0.3-1.3-0.6-1.8c-1.1-2.1,0.2-4.8,2.5-4.8c3,0,5.8-2.2,9.2-0.3c-0.9-2.2-1.7-4.2-0.5-5.4c1.9-1.8,3.1-4.3,5.9-5.2
		c1.8-0.6,2.1-2.8,3.1-4.2C477.4,356.3,475.9,355.4,475.3,354.6z"/>
	<path id="_x33_c_1_" class="st0" d="M465.4,343.3c4.6,1.1,6.8,3.2,7.3,7.1c0.4,4.4-1.5,7.7-5.8,9.6c-0.9,0.4-1.7,0.3-1.7,1.9
		c0.1,4.5-2.7,6.4-7.2,5.1c-1.8-0.5-2.7-0.5-3.3,1.5c-0.9,2.7-3,4.1-5.7,4.7c-0.3,0-0.6,0.1-1,0.1c-0.6,0-1.4,0-2-0.1
		c-0.1-0.1-0.3-0.1-0.4,0c-0.6-0.2-1.2-0.3-1.8-0.5c-1.2-1-2.4-1.9-3.5-2.8c-1.4-1.7-1.6-3.7-1.7-5.8c-0.1-1.1-0.2-1.6-1.5-1.8
		c-4.4-0.7-5.4-2.6-4.1-6.8c0.5-0.5,1.1-1.4,1.7-1.5c3.2-0.4,2.2-2.4,1.7-4.3c0.1-1,0.2-1.8,0.3-2.8c0.7-1.1,1.3-2.4,2.7-2.7
		c0.9,0.5,1.5-0.6,2.7-0.1c2.4,1.3,4.4,0.3,5.8-1.9h0.1c1.3-0.4,2.7-0.9,4-1.2c2.7,0.1,5,1.1,6.5,3.3c0.5,0.7,0.9,1,1.5,0.4
		C461.6,343.6,463.5,343.5,465.4,343.3z M457.8,349.6c0-4.3-1.1-5.9-3.6-6.7c-3.2-1-6,0.3-7.7,3.7c-0.6,1.2-0.9,2.8-2.2,0.4
		c-0.7-1.3-2.4-2-4.1-1.4s-2,2-2,3.6c0,0.7,0.2,1.6,0.4,2.2c0.6,1.7,0.9,2.9-1.7,3.1c-1.8,0.1-3.5,1.7-3.2,3.5
		c0.3,1.7,2.1,3.4,4.3,2.6c3.2-1.3,2.6,0.4,2.4,2.4c-0.5,4.4,2.2,8.1,6.2,8.7c4,0.5,6.5-1.5,7.3-6.2c0.3-1.7,0.7-1.8,2-0.7
		c0.6,0.4,1.4,0.7,2.1,1c2.2,0.5,4.5,0.5,5.8-1.7c1.5-2.6-1.3-2.9-3.3-4.8c4,0.1,6.8-0.3,9.1-2.7c2.4-2.5,2.8-5.8,1-8.7
		c-1-1.6-2.5-2.6-4.3-2.9C462.3,344.2,460.3,346.7,457.8,349.6z"/>
</g>
<g id="nube2">
	<path id="_x32_r_1_" class="st2" d="M591.9,256.7c-0.4-3.4-2.6-6.5-6.7-6.9c-0.7-0.3-1.4-0.5-2.2-0.5c-2.6-4-7.5-3.6-11.4-5.2
		c0.1,0,0.1,0.1,0.2,0.1c-1.2-0.9-2.8-1.4-4.7-1.4c-3.9,0-6.3,2.2-7.2,5.1c-1-1.4-2.5-2.4-4.5-2.8c-0.4-0.3-0.9-0.3-1.3-0.1
		c-0.1,0-0.2,0-0.3,0c-4.3,0-6.9,2.8-7.5,6.1c-0.5,0.7-0.9,1.5-1,2.4c-0.8,0.6-1.4,1.4-1.9,2.3c-2.3,0.3-3,1.5-2.7,4.7
		c0,1.1-0.2,1.7-1.3,2.4c-1.7,0.9-2.6,6.3-1.7,8.2c-0.4,1.9-0.2,3.9,0.6,5.6c-0.2,1.1,0.3,2,1.7,2.6c2.8,1.4,5.1,3.2,7.5,5.4
		c3.3,2.9,6.5,6.2,10.8,8c-2-2.7-4.2-5.2-6.4-7.8c-1.1-1.2-1.2-2.6-0.5-3.9c0.5-1,1.5-1.1,2.4-0.8c1.1,1.8,2.8,3.2,5,3.9
		c1.1,1.5,2.9,2.4,4.6,3.8c-0.1-1.9,0.3-3,1.3-3.4c0.3-0.1,0.6-0.1,0.9-0.2c0.4,0,0.8,0,1.3,0c0.5,0.1,1.3,0,1.7-0.3
		c1.3-0.9,2.2-1.5,2.9-1.8c1.2,1.4,2.9,2.4,5.2,2.5c1,0.6,1.8,0.5,2.5-0.2c1.7-0.4,3-1.3,4-2.4c1.9-0.4,2.4-1.7,1.7-4
		c0-0.1,0-0.2,0-0.3c0.5-1.2,0.7-2.6,0.6-4c0.8-1,2.2-1.6,1.4-3.4c-0.3-0.6,0.2-1.9,0.9-2c3-0.4,3.6-2.4,3.9-4.9
		c0-0.5,0.7-1,0.7-1.5C592.3,260,592.8,258.2,591.9,256.7z"/>
	<path id="_x32_c_1_" class="st0" d="M585.3,273.9c-0.2,1.2-0.4,2.2-0.6,3.4c-3.6,4.9-8.5,5.2-13.7,3.3c-1.3-0.4-1.9-0.3-2.9,0.5
		c-3.2,3-6.7,3.1-10.4,0.9c-0.6-0.6-1.3-1.3-2-1.9c-1.1-1.6-1.4-3.5-1.7-5.6c-8.7,6.6-12.3,6.6-14.8,0c0-0.9,0.1-1.7,0.1-2.6
		c0.7-3,2.6-5.2,5-7c0.5-0.4,1.9-0.7,0.7-1.9c-2.1-2.5-1.9-5-0.3-7.6l0,0c2.6-1.2,5.4-2.1,4.6-5.9c1.2-1.8,2.8-2.5,4.9-2.4
		c0.7,0.4,1.7,0.6,2.2,1.2c1.7,1.7,2.2,0.6,2.7-1c3.3-4.2,7.5-5.1,12.4-3.5c2.4,2,3.9,4.6,4.2,7.8c3.5-1.5,7-1.8,10.4-0.2
		c2.2,0.4,3.7,1.9,4.7,4c-0.4,3.5-0.5,7.6-3.6,9.5C583.1,267.7,583.7,270.5,585.3,273.9z M573.6,255.9c-0.3-0.4-0.3-0.9,0-1.4
		c1.7-2.7,1.1-5.2-0.7-7.4c-2-2.4-4.6-3.2-7.8-2.1c-3.4,1.1-4.9,3.6-5.8,6.8c-0.1,0.5,0.1,1.3-0.9,1.3c-0.6,0-0.6-0.5-1-1
		c-0.3-0.5-0.5-1.1-0.9-1.5c-1-1.2-2.1-2.1-3.9-1.7c-1.7,0.4-2.5,1.7-2.1,3.4c0.3,2.1-1.2,2.4-2.6,3c-3.4,1.4-4.1,5-1.2,7.2
		c1.6,1.2,1.4,1.8-0.1,2.7c-2,1.3-3.9,2.8-5.1,4.8c-1.4,2.1-1.6,4.3,0,6.3c1.5,1.9,3.6,2,5.9,1.3c2.1-0.6,3.3-2.4,4.6-4
		c0.5-0.7,1-1.8,2.2-1.5c1.6,0.3,0.7,1.6,0.9,2.5c0.3,3.2,2.2,6.3,4.8,7.1c3.1,0.9,6,0.1,7.9-2.5c1.2-1.6,1.9-1.3,3.3-0.5
		c4.1,2.4,7.6,2.1,10.4-0.5c3.2-3.1,2-8-2.1-9.4c-0.6-0.2-1.9,0.1-1.6-1.1c0.2-1,1.4-0.5,2-0.4c4.2,0.9,9.3-5.5,9.1-10.2
		c-0.1-1.4-0.9-2.5-1.8-3.2c-3.2-2.6-9-2-12,1C574.9,255.2,574.6,256.2,573.6,255.9z"/>
</g>
<g id="nube1">
	<path id="_x31_r_1_" class="st2" d="M416.4,286.3c-2.1-1.8-3.7-3.5-6.1-4c-0.4-3.2-2.1-6.2-5.1-7.8c-1.7-1.7-4-2.8-7-2.8
		c-0.3-0.2-0.5-0.4-0.8-0.6c-1.4-1.8-3.4-3.1-6-3.5c-1.6-1.5-3.7-2.4-5.2-4c-0.3-0.3-0.9-0.5-1.3-0.1c-0.5,0.4-0.3,1.1,0.1,1.5
		c0.9,0.9,1.2,1.8,1.3,2.9c-2,0.6-3.5,1.6-4.7,3c-1.3,1.1-2.2,2.5-2.8,4.1c-2.4-0.5-4.1-2-5.7-3.9c-2-2.7-4.4-4.8-7.4-6.2
		c-0.4-0.2-0.9-0.7-1.3-0.2c-0.2,0.1-0.2,0.7-0.1,0.7c1.9,1,1.9,3.4,3.6,4.5c3,2,4.7,5.4,7.4,7.6c0.7,0.5,0.8,1.2,0.5,1.7
		c-1.3,0-2.5,0.3-3.6,0.7c-1.8,0-3.5-0.3-4.8-2.3c-0.6-1.1-1.5-2.4-3.7-2.5c1.2,1.6-1,3.6,1.8,4.4c0.7,0.2,2.1-0.1,1.6,1.1
		c-0.4,1.1-0.4,3-2.2,2.7c-3.1-0.6-3.5,1.8-4.3,3.6c-0.7,2.1,0.2,3.7,1.8,5.2c2.3,2,4.5,4.2,6.7,6.4c0.6,0.8,1.3,1.5,2.2,2
		c0,0,0,0,0.1,0.1c1.4,1.2,2.2,3.3,4.5,3.4c1.8,0.1,3.2,1,4.6,1.9c3.1,2.1,3.3,2,5.7-1.1c1.3,1.1,3,1.8,5.1,2.1
		c1.2,1.2,2.5,2,4.1,1.3c3.9-1.6,7.5-3.6,11.6-5c0.9-0.3,0.6-0.7,0.3-1.4c-1.7-3.6-1-7,1.3-10.1c0.5-0.8,0.6-1.4,0.4-1.8
		c0.9-1.6,1.4-3.4,1.5-5.2C412.3,285,413.9,286.7,416.4,286.3z"/>
	<path id="_x31_c_1_" class="st0" d="M379.2,275c1.8-2.7,4.3-4.5,7.2-5.9c0.4,0,0.9-0.1,1.3-0.1c0.3-0.1,0.7-0.2,1.1-0.2
		c1.3,0.1,2.7,0.2,4,0.3c1.1,0.5,2.1,1,3.1,1.5c2.4,2.2,3.1,5.2,3.4,8.3c1.8-0.6,3.4-1.5,5.2-1.5c3.2-0.1,4.5,2,5.2,4.7
		c-0.1,0.9-0.2,1.7-0.2,2.5c-0.1,1.7-1.5,2.9-2.1,4.4c-0.9,0.7-1.5,1.5-2.5,2c-1.5,0.9-1.6,1.5-0.7,3.1c1.8,3.4,0.4,7-3,9.4
		c-3.3,2.4-7.1,2.6-10.9,2.2c-1.3-0.4-2.5-1-3.7-1.4c-0.2-1-1.3-1.2-1.7-1.9c-1.1-2.5-2.4-2.6-4.8-1.5c-3.6,1.7-6.5,0.5-7.9-2.5
		c-1.1-2.1,0.1-3.7,1-5.6c-4.8-1.2-6.7-3.6-5.8-7.5c0.6-2.6,3.4-5.2,6.4-5c3.5,0.3,4.6-1.4,5.2-4.2C378.8,276,379.1,275.4,379.2,275
		z M383.4,296.8c3.3,8,11.5,10.2,17.5,4.9c3.1-2.7,3.1-6.5-0.1-8.7c-0.5-0.3-1.5-0.4-1.3-1.3s1.2-0.5,1.8-0.7c3.6-1,5.6-3.5,6.5-7
		c1-3.3-1.5-5.7-4.9-4.7c-0.9,0.2-1.7,0.5-2.5,1c-3.1,1.5-3.4,1.5-2.9-1.8c0.5-4-3.6-8.3-8.1-8.1c-4.7,0.3-8.3,3.4-9.7,9.2
		c-0.5,2.2-1.4,2.9-3.5,2.7c-2.2-0.3-4.6-0.2-6.3,1.7c-1.4,1.5-1.8,3.3-0.9,5.1c0.9,1.8,2.5,2.6,4.4,1.9c2-0.7,2,0.3,1.5,1.7
		c-0.3,1-0.9,1.7-1.4,2.6c-1.1,2-0.4,3.5,1.7,4.4C378.7,301.1,381.1,299.2,383.4,296.8z"/>
</g>
<g id="torre_2_">
	<path id="tcolor_1_" class="st2" d="M595.3,533.3L595.3,533.3L595.3,533.3c-0.6-0.9-1.6-1.7-2.9-2.1c-0.1,0-0.2-0.1-0.4-0.1
		c-1.4-1-2.7-2.1-3.9-3.4l0,0c0,0,0-0.1-0.1-0.1c-0.2-0.4-0.5-0.8-0.8-1.1c-0.5-1-0.6-2.1-0.3-3.2c0.7-2.4-0.7-3.3-2.2-4.5
		c-4.8-4-10.3-7.4-11.9-14.1c-0.1-0.9-0.6-1.2-1.3-1.5c-3.1-1.5-5.5-4-8.3-5.8c-0.8-0.5-1.4-1-1.7-1.6c-0.1-0.4-0.2-0.8-0.4-1.2
		c0-0.4,0-0.8,0.1-1.2c-0.1,0.3-0.1,0.6-0.2,0.9c-0.2-0.5-0.4-1-0.7-1.5c-0.1-0.6-0.3-1.3-0.5-2c-0.1-0.4-0.2-0.7-0.4-1.1
		c0-0.5-0.1-1-0.7-1.2c-0.7-0.9-1.5-1.5-2.5-1.8c0.3-0.2,1-0.4,0.1-1c-2-1.1-4.3-1.7-6.4-2.8c0-0.1-0.1-0.1-0.1-0.2
		c-1.2-2.9-2.5-5.8-3.7-8.7c-0.1-0.4-0.2-0.8-0.4-1.2c-0.7-1.5-0.9-3,0.2-4.2c1.7-1.9,0.6-3.1-0.9-4.4c-1-0.9-2.8-1.2-2.8-2.8
		c0.1-2.6-1.6-3.4-3.5-4.3v0.1c-0.3-0.5-0.6-1-0.8-1.5c0,0,0-0.1-0.1-0.1c-0.7-1.9-1.2-3.8-1.5-6c-0.1-0.4-0.1-0.8-0.2-1.2
		c0.2-0.3,0.1-0.7,0.2-1.2c0.3-2.6-1.8-6.3,3.1-6.8c0.7-0.1,0.9-1.1,0.5-1.5c-0.9-1.1-1.1-2.8-2.5-3.5c0-0.5-0.1-0.9-0.3-1.4
		c0-0.3-0.1-0.6-0.1-0.9c0.1-1-0.1-1.8-0.4-2.5c0.4-1.4,1-2.5,2.9-2.9c1-0.2,0.1-1.1-0.3-1.6c-1.4-1.7-3.4-2.6-5-4
		c-1.7-1.3-1.4-3.1-0.6-4.5c0.9-1.6,2.6-1.3,4-0.4c1.9,1.3,3.7,2.6,5.7,3.7c2.4,1.5,4.6,3,7.4,3.7c-7.6-7-16.2-12.5-23.8-19.4
		c-0.1,0.1-0.2,0.3-0.3,0.4c0-0.1,0-0.3-0.1-0.4c0.1,0,0.2,0,0.2,0c0.4-3.9,2.9-7.6,0.9-11.7c-0.2-0.4,0.2-1.3,0.5-1.6
		c2.4-2.1,1.2-4-0.5-5.6c-1.4-1.3-1.6-2.9-1.1-4.3c0.6-1.7,0.6-3.4,0.7-5.2c0.2-3.3-0.7-5.6-3.3-7.4c-0.3-1.9-0.7-3.8-1-5.7
		c1.5-0.9,1.9-2.2,0.6-3.6c-1.5-1.7-0.9-3.5,0.1-4.3c3.2-2.5,1.1-4.8-0.1-6.7c-1.6-2.6-3-4.7-0.4-7.4c0.2-0.3,0.4-1.1,0.3-1.4
		c-1.4-3.4-0.1-7.4-2.4-10.6c-0.7-1.1-1.4-2.2-1.8-3.4c-0.1-0.4-0.2-0.8-0.3-1.1c0.2-0.9,0.3-1.9,0.3-2.9c0.4-0.6,0.9-1.1,1.8-1.4
		c1.7-0.6,1-1.4,0.2-2.4c-1-1.2-1.8-2.7-0.4-4c2-1.8,1.3-3.4,0.1-5c-1.3-1.7-0.3-2.9,0.7-4.2c0.5-0.6,2.7-0.1,1.7-1.9
		c-0.5-0.9-0.7-2.2-1.5-2.9c0-0.2-0.1-0.4-0.1-0.7c-1-3.7-4.7-4.5-7.8-5.7c0.7-1.2,1-2.6,0.8-3.9c0.3,0.3,0.6,0.5,0.9,0.8
		c-0.1-2.6,1.2-3.1,3.3-2.6c0.4,0.1,1,0.4,1.3-0.1s-0.1-0.9-0.4-1.3c-0.9-1-1.7-1.9-2.6-2.9c-2.6-2.7-5.8-5.1-2.8-9.5
		c0.3-0.5,0-1.2-0.4-1.6c-2.8-2.5-3.3-5.6-2.8-9.1c0.2-1.2-0.4-1.8-1.7-1.7c-1.1,0.1-2.8-0.7-2.9,1.1c0,1.7-1,2.4-2.2,3
		c-1.5,0.9-1.6,1.8-0.3,3c2.2,1.9,2.8,4.3,2.4,7.2c-0.2,1.6,0.1,3.4-0.1,5c-0.3,2-0.1,4.6-2.4,5.7c-2.4,1.1-2.6,2.7-2.5,4.8
		c-0.3,0.3-0.5,0.6-0.7,1c-1.1-0.2-2.2,0.5-3.5,0c-0.6-0.3-1.1,0.3-1.1,1c0,2-1.4,3-3,3.5c-1.4,0.5-1.4,1.2-0.6,2.1
		c0.9,1.2,1.7,2.6,3.3,3.1c0.9,1.1,2.2,1.9,4,1.9c0.2,0,0.3,0,0.5,0c0.2,0.5,0.6,1,1,1.4c0,1.5,0,3-0.1,4.3c0,0.8,0.1,1.4,0.3,2
		c-0.6,0.3-1,0.9-1.7,0.8c-1.9-0.2-1.9,0.6-1.3,2.2c0.5,1.3,1.3,3-0.9,3.6c-2.8,0.9-2.2,2.7-1,4.2c0.8,0.8,1.4,1.8,2.4,2.4
		c0.3,0.8,0.7,1.5,1.2,2.1c0,0.4-0.1,0.8-0.1,1.2c0,0.2,0,0.3,0,0.5c-0.7,0-1,0.5-1,1.1c-0.4,0.2-0.6,0.5-0.6,1
		c-0.2,0.2-0.4,0.5-0.6,0.8c-1.6,3.2-4,3.6-6.7,1.2c-2.5-2.1-4.8-4.4-7.4-6.5c-2.4-1.9-4.7-3.7-7.1-5.6c-0.2,0.6-0.2,1,0,1.2
		c5.1,6.3,11.1,11.9,16.7,17.8c3.3,3.4,3.4,3.6,0.2,7.1c-1.9,1.9-1.2,3.2,0.4,4.3c1.1,0.7,1.8,1.5,2.1,2.4c0,1.4-0.1,2.8-0.1,4.3
		c-0.5,2.7-0.1,5.5-1.5,8.2c-0.9,1.7-0.2,4.2-2.9,4.8c-0.5,0.1-0.9,0.7-0.6,1.1c1.8,2.9,1.9,6.4,3,9.5c0,0.1,0.1,0.1,0.1,0.2
		c-0.1,0.7-0.2,1.5-0.3,2.2c0,0.4,0,0.7,0,1c0,0.2,0,0.3,0,0.5c-2,0.2-3.8-0.5-5.4-2.2c-0.4-0.6-1.3-1.3-2-0.7
		c-0.6,0.3-0.5,1.6-0.1,1.8c2.2,1.3,2.7,4,4.3,5.8c1.5,1.6,2.6,3.3-0.3,4.6c-0.3,0.1-0.7,0.7-0.6,0.9c1.7,2.4,0.6,5.1,1.2,7.7
		c0.2,0.8,1,0.8,1.7,0.8c-0.1,0.8-0.2,1.5-0.3,2.3c-0.7,1.3-1.6,2.3-3,3.3c-1.6,1.1-1.6,3.9-3.4,5.2c-0.4,0.3,0.2,1.2,0.7,1.7
		c1.1,1,2.2,1.9,3.2,2.9c-0.4,1.5-0.7,2.9-1,4.4c-1.4,0.4-2.9,0-4.5-1.5c-4.8-4-9.5-7.9-14.2-11.9c-3.5-3.1-6.8-6.5-10.4-9.7
		c-0.7-0.6-1.5-1.3-2.6-1.2c-0.1,1.5,0.7,2.5,1.8,3.2c4.5,2.9,7.7,7.4,11.8,10.9c4.6,4.1,9,8.8,13.5,13.2c1.4,1.3,1.1,2.7,0.9,4.1
		c-0.2,1.5-1.7,0.7-2.7,1c-2.4,0.7-4.3-1.7-6.5-1c-1.4,0.4-2.2-0.1-3.4-0.9c-1.7-1.3-3.4-3-5.8-3.2c2.2,3,4.4,5.9,7.1,8.3
		c1.7,1.6,2.2,3.3,2,5.5c-0.3,2.4,0.1,4.3,2,6.1c1.1,1,2.2,2.4,2,4.1c-0.1,0.2-0.2,0.4-0.3,0.6c-0.3,0.5-0.5,1-0.6,1.6
		c-0.9,1.1-3.2,0.8-2.8,2.4c0.3,1.2,2,2.1,3.1,3.1c0.1,0.1,0.2,0.2,0.2,0.3c-0.6,2.2-1.3,4.4-1.9,6.7c-0.1,0-0.1,0-0.2,0
		c-1.2-0.1-2-2.9-3.2-1.1c-0.5,0.9,2,1.3,2.7,2.6c0.1,0.1,0.1,0.2,0.2,0.3c-0.4,1.3-0.7,2.6-1.1,3.9c-0.1,0.5-0.3,1-0.4,1.5
		c-1.1-0.2-2.1-0.7-3.1-1.4c-3.1-2.1-6.4-4-10.3-6.3c3.1,4.8,7.3,7.5,10.4,11.1c0.6,0.7,1.9,1.2,1.8,2.2c0,0.1,0,0.2-0.1,0.3
		c0,0.1,0,0.2-0.1,0.3c-0.6,1.6-2.2,0.7-3.4,0.9c-1,0.1-1.8-0.1-2.7-0.9c-0.4-0.4-1.2-0.6-1.9,0.5c1.2,1.2,2.5,2.4,3.7,3.5
		c1.1,1.1,1.5,5.1,0.5,5.8c-1.7,1.2-2.9-0.1-4.2-1.1c-1.4-1.1-2.9-2.1-4.5-3.3c-0.2,1.1,0.2,1.5,0.6,1.8c1.8,1.3,2.4,3.3,0.9,4.7
		c-1.4,1.3-3.6,0.9-5-0.7c-1-1.1-1.9-1.4-3.2-1.3c-0.6,0.1-1.5-0.3-1.8,0.5c-0.2,0.6,0.3,1.2,0.7,1.5c1.8,1.4,2.1,3.6,3.3,5.5
		c1,1.6-1,2.5-1.1,3.7c-0.1,0.6-0.9,0.7-1.2,0.3c-1.6-2.4-4.9-1.8-6.5-4.1c-0.5-0.7-1.4-1.3-2.6-1.3c0.1,0.4,0.1,0.7,0.3,1
		c2.6,3,5,6.1,7.7,9.1c1.3,1.4,1.5,2.1-0.7,3c-3.9,1.5-4.7,3.7-3.9,8c0.1,0.4,0.1,0.9,0.2,1.3c-0.1,0.1-0.2,0.2-0.3,0.3
		c-1.4-0.9-3.6,0.3-4.7-1.3c-2-3.2-5.6-5.1-7.7-8.3c-0.5-0.6-1.3-1.5-3-1.4c2.7,3.6,3.5,7.9,7.2,10.7c1.8,1.3,3.1,3.1,2.6,5.8
		c-0.2,1,0,2,0.6,2.8c-0.2,1.2-0.1,2.5,0.4,4.1c-0.3,0.8-0.6,1.5-0.9,2.3c-1.7,0.9-2.1,3.1-4.2,4.3c1.4-0.2,2.4-0.3,3.2-0.6
		c0,0.4,0.1,0.9,0.2,1.3c-0.7,0.4-0.9,1.1,0.2,2.7c0.7,1-0.4,2.6,1.2,3.3s3.4-0.5,4.1-2.5c1.6-0.1,3.2-0.7,4.2-2.2
		c0.1,0,0.1,0,0.2,0c0.6,0.1,1.1,0.1,1.5,0.1c2,0.2,3.8-0.3,5.3-1.3c2.7-0.4,2.9-0.3,5.5,0.5c-0.1-2.5,0.1-5.6,3.1-5.7
		c3.2,0.1,4.7-1.6,6.5-3.4c0.6-0.7,1.5-0.9,2.5-1.1c3.4,1.3,6.8,2.6,10.2,3.8c2.5,0.9,5,1.7,7.5,2.5c0.2,0.1,0.5,0.1,0.7,0.2
		c-0.2,0.2-0.4,0.4-0.6,0.6c-1,1.2-1,2.7,0.1,4c0.4,0.6,0.7,1,1.6,0.4c3.3-2.1,4.7-2.1,7.4,0.4c0.5,1.2,1.6,1.9,2.7,2.3
		c0.5,0.4,1.5,0.5,3.1,0.8c1.8,0.3,2.5-0.2,3.2-1.5s2.5-1.6,3.4-2.7V539c0.5-0.1,1-0.2,1.5-0.3c0.1,0,0.3-0.1,0.4-0.1
		c0.4,0.3,0.9,0.4,1.5,0.4c1.8,1.9,4.1,3.4,6.6,4.2c3.1,1,6.8,1.2,9.5-0.4c1.9,1.6,3.6,3.7,6.3,4.4c1.1,0.2,1.5,0.5,2.2-0.5
		c1.3-1.8,3.2-2.4,4.9-1.1c1.4,1.1,2.1,0.6,3.3-0.1c4.4-2.8,10.9-1.9,13.4,2.6c1.4,2.5,2.6,3.1,4.3,2.6c3.5,2.5,8.2-1.6,7.6-5.9
		c0.9,0.7,1.7,1.2,2.2-0.1c2.7,0.7,5.4,1.1,8,1c2.9-0.1,4.6-2.1,5-4.4C596.2,539.3,596.9,535.7,595.3,533.3z"/>
	<path id="torre_3_" class="st0" d="M565.6,508.6c-1.4-1.2-2.6-2.7-4.3-3.8c-0.3-0.7-0.6-1.3-1.2-1.7c-0.6-0.4-1.1-0.8-1.7-1.3
		c0.1-0.1,0.2-0.3,0.2-0.6c0-1.4-1.7-0.9-2.7-0.9c-6.7-0.3-6.7-0.2-6.7-7.2c0-1.1,0-2-0.1-3c-0.2-1.4,0.7-1.2,1.5-1.2
		c1,0,1,0.5,0.9,1.4c-0.2,1.5-0.2,3.1-0.3,4.7c0,0.2,0.2,0.4,0.4,1c1.1-1.8,0.6-3.6,0.9-5.2c0.1-0.7-0.2-1.7,1.1-1.7
		c1.4-0.1,1.2,1,1.2,1.8c0,2.6,0,5,0.4,7.6c1.2-2.2,0.9-4.6,0.9-7c0.1-1.3-0.4-2.6,1.8-2.5c2.1,0.1,1.8,1.2,1.6,2.6
		c-0.3,2-0.4,4.2-0.6,6.2c-0.1,0.6-0.2,1.6,0.7,1.6s0.9-0.9,1-1.5c0.2-1.3,0.5-2.5,0.7-3.7c0-0.4-0.1-0.7-0.1-1.2
		c0.3-5.2,0.3-5.2-4.6-5.8c-13.1-0.4-26-1-39.1-1.4c-1.4-0.1-1.8-0.5-1.8-1.9c-0.1-8.9-1.4-17.7-1.9-26.5c0-0.3-0.1-0.6-0.2-0.9
		c0.1-0.2,0.1-0.4,0-0.6c0.1-0.4,0.4-0.8,1.3-0.8c1.3,0,2.6-0.3,3.1,1.7c2.4,8.6,4.4,17,5.5,25.8c0,0.5,0.1,1.1,0.2,1.5
		c0.2,0.4,0.3,1.1,1,1c0.9-0.1,0.7-0.9,0.6-1.4c-1.2-7.9-2.4-15.8-4.9-23.4c-1.7-5.1-1.7-5.1,3.5-5.1c4.8,0,5,0,6.2,4.5
		c2,7.4,3.7,14.9,5.7,22.4c0.2,0.9,0.4,1.7,0.7,2.6c0.3,0.9,1,1.4,1.8,0.6c0.7-0.6,1.1-1-0.2-1.8c-1.1-0.7-1.2-2.8-1.3-4.9
		c1.6,1.7,5.1,1.7,1.9,5.2c1.8-0.4,2.8-2.4,4.6-0.9c1.2,1,2.6,1.6,3.2,3.3c1.2-1.7,0.1-3.3,0.1-4.8c-0.5-1.7-1-3.3-1.5-4.9
		c-1.9-6.3-4-12.6-5.9-18.9c-1.1-2.8-2.1-5.6-3.2-8.3c-0.4-0.3-0.1-1.3-1-1.2c-0.7,0.1-0.4,0.7-0.3,1.2c1.4,3.9,3.1,7.7-1.1,11.3
		c2.2-0.7,4.2-1.5,5,0.9c0.7,1.9,2.2,4-0.2,5.9c-0.7,0.5-1.2,1-2,0.3c-1.9-1.5-4.1-2.7-4.3-5.6c-0.2-2.5-1.7-4.6-1.8-7.1
		c0-1.7-1.4-1.6-2.6-1.6c-4,0.1-8,0.2-12.1,0.3c-4.2,0.1-6.7-2.6-6.3-7c-1.2,1-3.4,1.5-2.8,2.5c1.2,1.7-0.7,3.1,0.3,4.5
		c1.5,0.3,0.9-1.6,1.9-1.8c1.5,1,2.9,2.2,3.4,4c-1.2,0.6-2.4,1.3-3.4,2.2c-1.4-0.3-2.6-1.5-4.1-2.1c2.4,1.9,1.5,3.4-0.7,4.9
		c2.6-0.4,2.6-0.4,6.1,1.3c0.2,0.1,0.5,0.1,0.7,0c0.4-0.2,0.3-0.9,0.1-1c-1.5-1-1-2-0.2-3.1c0.5-0.4,1.1-0.7,1.6-1v0.1
		c0.4,7.9,1.1,15.7,1.6,23.5c0,1,0.4,2-0.5,2.8c-0.1,0-0.3,0-0.3,0c-1.5-1.2-3.4-2.1-4.2-3.6c-1-2,2.5-2.4,2.6-4.4
		c-1.3-0.6-1.8,0.5-2.7,1.1c-0.9,0.5-1.5,2.4-2.6,1.3c-1.4-1.3-4.1-1.3-3.7-4.3c0.3-3,0.5-5.9,0.6-8.8c0.8,0.5,1.5,1,2.2,1.6
		c0.4,1-0.2,2-1.9,4.7c1.5-0.4,6.6-0.2,8.2,0.2c0.4-0.5,0-1-0.3-1.3c-1.3-1.2-3.4-2.4-0.4-4.1c0.2-0.1,0.2-0.5,0.1-0.7
		c-0.3-0.4-0.9-0.5-1.1-0.2c-0.9,1-2,1.2-3.2,1c-1.1-1-2.3-1.9-3.6-2.6c0,0,0,0-0.1,0c0.1-2.1,0.2-4.2,0.3-6.3
		c0.1-2.8,0.3-5.6-1-8.3c-0.3,2.5-1,4.8-0.9,7.3c0.4,9.2-1,18.5-1.3,27.7c-0.1,0.7,0,1.6-1.2,1.7c-6,0.6-11.7,3.3-17.8,4.3
		c-0.5-0.5-0.2-1.2,0-1.8c2.7-9.2,4.9-18.5,7-27.8c0.4-1.8,1.3-2.7,3.1-3c1.3-0.2,2.6-0.1,3.9-0.6c0.2-0.1,1.4,1,1.2,1.8
		c-0.2,0.9-1,1.7-1.8,1.8c-0.7,0.1-1.5-0.3-1.6,1c-0.7,8.1-1.5,16.3-2.2,24.4c0,0.1,0.1,0.2,0.3,0.9c1.7-2.2,3.3-4.2,4.2-6.5
		c1.2,0.1,1.1,0.9,1.4,1.3c0.4,0.7,0.4,2.5,1.7,1.8c1-0.4,0.2-1.7-0.3-2.4c-1.4-2-0.9-3.6,0.7-5.1c0.3-0.4,1.1-1,0.4-1.5
		c-0.7-0.6-1.2,0.1-1.7,0.5c-0.7,0.5-1.2,2.4-2.2,1.8c-0.7-0.3-1.8-1.3-1.7-2.8c0.1-1.7,1.1-2.7,2.2-3.5c1.1-0.6,1.2,0.6,1.7,1.1
		c0.4,0.3,0.7,0.6,1.3,0.3c0.4-0.3,0.3-0.9,0.1-1.1c-2.1-1.8-0.9-3.1,0.6-4.5c0.3-0.3,0.3-0.9,0.5-1.4c-2-0.7-3.4,4.7-5.5,0.5
		c-0.5-1.2-0.7-2.5,0.6-3.9c2.2-2.1,3.2-0.6,4.5,0.7c1.1-0.6,0.7-1.3,0.3-1.8c-1-1.2-1.3-2.1,0.2-3.1c0.4-0.2,1.1-0.7,0.5-1.4
		c-0.5-0.5-1.1-0.1-1.5,0.3c-1.1,1.3-2.1,1.2-3-0.2c-1.1-1.6-2.4-0.1-3.5-0.3c-1.3-0.2-2.4,1.1-3.6-1c-1.3-2.2,1.1-2.4,1.3-3.5
		c-1.2-1.4-2.6,1.5-3.9-0.6c2.4-0.2,5.4-2.4,6.5,0.3c1.2,2.8,4,1.9,5.2,3.6c0.1,0.1,0.6-0.1,1-0.2c0.1-0.9-0.5-1.2-1-1.5
		c-0.4-0.3-1-0.6-1.4-1c0.1-0.3,0.1-0.5,0.2-0.6c0.7-1,3.1-1.3,2.4-2.5s-2.1,0.5-3.1,1.1c-1.1,0.6-1.9,1.1-2.7-0.5
		c2.6-0.9,5.1-1.6,7.6-2.5c0.5-0.1,1.6-0.3,1.1-1.3c-0.4-0.7-1.1-0.1-1.6,0c-2.1,0.6-4.4,1.3-6.5,1.9c-0.3,0.1-0.6,0.3-1.1,0.4
		c-1.3,0.4-1.5-0.6-1.8-1.4c-0.9-2.2-2.9-4.2-2.6-7c0-0.2,0.7-0.4,1.1-0.4c0.6,0,0.6,0.6,0.7,1.1c0.6,2.1,1.1,4.4,3.3,5.8
		c-0.6-1.9-1.5-3.9-2.1-5.8c-0.2-0.7-0.9-1.9,0.5-2.1c1.2-0.2,0.9,1.1,1.1,1.7c0.6,1.6,0.9,3.4,2.6,5.1c0.1-2-1-3.2-1.3-4.6
		c-0.2-1.1-1.8-2.7,0.1-3.2c1.7-0.4,1.1,1.7,1.4,2.6c0.6,1.6,1,3.3,1.5,5.5c1.1-2.8-0.3-4.7-0.7-6.7c-0.2-0.7-1.3-2,0.3-2.4
		c1.7-0.4,1.1,1.4,1.2,2c0.5,2.1,0.6,4.4,2,7c0.5-2.7-0.2-4.5-0.5-6.3c-0.1-0.9-0.4-1.6-0.5-2.4c-0.2-1.5,0.9-1.7,1.8-1.8
		c1.3-0.2,1.1,0.9,1.1,1.6c0.1,1.9,0.1,4,0.2,5.9c0,0.7-0.3,1.7,0.9,2.1c1-2.8,0.6-5.7,0.6-8.5c0-0.7-0.6-1.8,0.6-1.9
		c1.3-0.1,1,1,1,1.7c0.1,2.4,0.1,4.7,1.4,7.4c1-2.1-0.1-3.7-0.1-5.2c0-0.7-0.1-1.6-0.2-2.4c-0.1-0.9-0.1-1.6,1.1-1.7
		c1-0.1,1.4,0.4,1.4,1.4c0.1,2.6,0.3,5.1,0.5,7.7c0.1,1.2-0.5,1.2-1.4,1.4c-1.4,0.3-2.9,0.1-4.3,1.1c0.7,1,1.6,0.7,2.2,0.6
		c4.9-0.6,9.8-0.8,14.7-0.9c-1,1-2,2-2.9,3c-1.5,0.5-3.1,0.3-4.7-0.4c1.6,1.4,2.5,3.3,4.8,3.4c1.2,0,2.5,2.1,3.2,0.7
		s-1.8-1.3-2.4-2.5c-0.1-0.8,1-1,1.3-1.8c0.8-0.9,1.6-1.7,2.4-2.6c2.8,0,5.5,0,8.3,0.2c0.1,0,0.3,0,0.5,0.1c-0.1,0.3,0,0.7,0.4,0.8
		c-2.3,1.9-4.7,3-7.7,0.7c3.5,3.5,6,4.7,8.6,4.3c-5.2-2.1,0.5-3.3,0-5.4c0-0.1,0-0.2,0-0.3c0.3-0.1,0.5-0.5,0.4-1.3
		c-5.4-1-10.8-0.3-16.2-0.2c-1.9,0.1-2.4-0.4-2-2.2c0.3-1.8,0.4-3.7,0.5-5.6c0.1-1.1,0.2-1.6,1.5-1.6c1.3,0.1,1.4,0.6,1.3,1.7
		c-0.2,1.9-0.2,3.9,0.9,5.7c0-1.9,0.1-3.7,0-5.7c-0.1-1.6,0.9-1.6,2-1.6c1.5,0,1.5,0.9,1.3,1.9c-0.3,1.5-0.5,3,0.9,4.4
		c0.1-1.3,0-2.7,0.1-4c0-1-0.3-2.4,1.5-2.1c2,0.2,1.2,1.4,1.1,2.4c-0.2,1.6-1,3.3-0.3,5.5c1.3-2.1,1.2-4.2,1.7-6
		c0.2-0.5-0.2-1.5,1-1.4c1.1,0.1,1.1,1,0.9,1.8c-0.1,0.4-0.3,1-0.4,1.4s0,0.9,0.4,1c0.5,0.1,0.6-0.2,0.9-0.6c0.5-1.1-0.2-3.3,1.5-3
		c2.4,0.4,0,2.8,1,4.1c0.9-0.7,1-1.8,1-2.9c0-0.9,0.4-1.2,1.3-1.1c1.2,0.1,0.7,0.9,0.5,1.5c-0.6,2.2-2.1,4.3-1.9,6.7
		c2.8-1.8,3.1-4.9,4.3-7.6c0.4-1.8-1-1.9-2-2.4c-3.7,0.2-4.9-1.8-5.4-5.4c-0.9-7.2-2.7-14.3-3.3-21.6v-0.6
		c-2.2-12.1-2.6-24.5-4-36.7c-0.5-1.4-0.4-2.8-0.4-4.3c-1.3-7.7-1.9-15.4-2.8-23.1c-1.1-9.5-2.1-18.9-3.3-28.5
		c-0.4-3.4,1.2-6.1,3-8.7c0.7-1.1,1.9-2,1.1-3.6c-1.4-0.5-1.3-1.7-1.2-3c0.1-1.1,0.2-2.5-1.1-3c-1.5-0.6-1.8-1.9-2.2-3.2
		c-2.9-2.6-5.6-5-5.1-9.5c0.3-3.9-0.1-7.7-0.1-11.6c0-0.7,0.6-1.9-0.7-2c-1.1-0.1-0.9,1.1-1,1.8c-0.4,4.5-0.2,8.9,0.4,13.3
		c0.2,2-0.2,3.4-1.7,4.6c-2,1.6-3.4,3.9-5.9,4.8l-0.5,0.5c0,0.2,0,0.4-0.1,0.5c-3.4,2.1-3.1,6.1-4.4,9.3c2.9,2,5.9,4.1,6.7,7.9
		c0.7,0.8,0.2,1.1-0.5,1.4c-0.1,4.7-2,9.2-2.2,13.8c-0.1,1.6-0.3,3.2-0.4,4.8c0,0.1,0,0.1-0.1,0.2c0.3,0.7,0.4,1.5-0.1,2.1
		c-0.9,16.6-1.8,33.2-4.3,49.7c-0.1,0.9-0.1,1.7-0.2,2.6c-0.9,6.3-1.6,12.5-2.5,18.8c0,0.7,0.1,1.4-0.4,2c-0.5,4.8-1.1,9.7-1.6,14.6
		c-0.2,0.9-0.3,1.6-0.4,2.5c-0.3,2.9-0.6,5.9-0.9,8.8c0,0.5-0.3,1.3,0.6,1.3c0.6,0,0.5-0.6,0.7-1.1c0.6-1.5-0.2-3.2,1.7-4.4
		c5.4-3.2,5.4-3.3,10.3,0.6c0.7,0.5,1.5,1.3,2.6,1.4c0.7-2.1,0.7-4.6,2.1-6.5c0.6-1.1,1.6-2.8,2.7-2.1c1.2,0.7,2.8,1.8,2.7,3.9
		c-0.1,1.8-0.5,3.6,0.6,5.4c1.4-6.1,1-12.3,1.4-18.4c-0.1-0.1-0.1-0.2,0-0.3c0-0.5,0.1-1,0.1-1.5c-0.2-0.9-0.1-1.7,0.1-2.6v-2.5
		c-0.2-1.9-0.2-3.7,0.1-5.7c-0.3-2.2-0.3-4.5,0-6.7c0-1.4-0.1-2.9-0.1-4.4c-0.2-1.4,0.3-2.8,0.2-4.3c0.2,1.5,0.4,2.9,0.6,4.3
		c1.6,12.8,2.5,25.7,2.8,38.6v1.5c0.1,0.5,0.3,1.1,0.9,1.1s0.9-0.5,0.9-1.1c0-1.7,0.1-3.4-0.1-5c-0.3-1.8,0.4-3,1.7-4.1
		c0.5-0.4,0.9-1.7,2-0.6c1.1,0.9,3.2,0.6,2.9,2.9c-0.2,1-0.9,1.8-1.4,1.6c-2.5-0.9-2.8,1.6-4.2,2.5c2.2-0.3,4,0.2,5.7,1.7
		c0.7,0.6,1.1,1.2,1.3,1.9c0.6,1.7,0.3,2.7-1.9,2.4c-5-0.6-10.1-0.5-15.1-0.7c-7.1-0.3-13.5,1.1-19.8,4.1c-3.6,1.7-7.4,3.2-11.5,3.9
		c-2,0.3-2,1.3-1.4,2.7c1,2.4,2.4,4.6,4.4,6.2c1.2,0.9,1.4,1.6,1,2.9c-1.2,3.4-2.1,6.7-3.2,10.2c-0.4,1.2-0.7,2.5-1.1,3.6
		c0,1.3-0.5,2.4-1,3.4c-0.6,1.6-1.2,3.3-1.7,4.9c-1.3,5.8-3.7,11.1-5.4,16.8c-0.3,1.2-1.4,1.5-2.5,1.7c-2.4,0.3-4.6,0.9-7,1.2
		c-1.6,0.2-2.2,0.7-2.2,2.6c0,3,0,6.1-0.6,9.1c-0.1,0.6,0.1,1.6-0.7,1.7c-3.4,0.2-3.7,3.1-4.8,5.4c-1,2-2.1,4.1-3.3,6.1
		c-0.2,0.3-0.9,0.4-1.3,0.6c-0.4,3.4-2.7,6-4.4,8.8c-0.7,1.7-1.7,3.3-2.9,4.9c-0.1,0.9-0.2,1.8-0.3,2.6c0.7-1,1.4-1.8,2.6-2.1
		c0.3-2.1,0.7-4.3,3.9-4c0.9,0.1,1.7-0.4,2.6-0.6c1-0.3,1.9-0.6,2.4,0.7c0.4,1.4,2.6,2.1,1.1,4.1c-0.5,0.7-0.9,1.4-1.8,1
		c-0.7-0.3-1.5,0-2.2,0.3c-2.1,0.9-4.1,1.3-5-1.5c0-0.1-0.4,0-0.7,0c0.4,2.7-0.1,3.8-2.9,4.3c0.5,0.3,0.9,0.6,1.3,1.1
		c0.6-0.4,1.7-0.6,2.5-0.8s2.4,1,3,2.1c0.9-0.2,1.9-0.3,2.7-0.7c-1.3-0.3-2.2-0.7-2.7-2.4c1.1-0.3,2.1-0.7,3.3-1.1
		c0.3-0.1,0.9-0.2,1.1,0c1.6,1.2,1.7,1.2,2.8-0.7c2.9-5.2,6-10.4,10-15c3.7-4.3,7.6-4.9,11.6-2c-11.5,1.6-15.6,10.6-19.9,19.2
		c-0.1,0.3-0.3,0.5-0.4,0.8c0.8-0.1,1.6-0.2,2.4-0.3c2.9-6.1,5.7-11.9,11.5-15.5c2.7-1.7,6-3,8.9-1.2c2.8,1.7,2.7,5.1,3.1,8.4
		c0.5,0.5,1,1,1.4,1.5c0.8,0.9,0.6,1.2,2,1c1.5-0.3,2.5-0.5,4,0.1c2.1,0.9,3.8,2.9,4.3,5.2c0.1,0,0.1,0,0.2,0
		c0.1-0.5,0.3-0.9,0.7-1.3c2.1-2.6,3.2-2.5,5.8-0.3c1.3,1.1,2.6,2.1,4,3c0.9,0.5,0.8,1.2,0.7,1.9c0.1,0,0.2,0,0.3,0.2
		c0.3,0.3,0.5,0.6,0.8,0.8c0.1-0.5,0.2-1.2,0.3-2c0.5-3.2,1.7-6.2,3.4-9.5c2.1,3.1,4.1,5.9,6,8.8c0,0,0.1,0.1,0.1,0.2
		c0.5-0.2,1-0.3,1.5-0.4c-0.2-0.2-0.3-0.4-0.5-0.6c-1.8-2.6-3.5-5.2-5.5-7.7c-0.9-1.1-0.9-1.9-0.1-3.1c1.5-2.2,3.1-4.4,5.1-6.1
		c1.1-1,1.8-1.1,2,0.7c0.5,5.4,1.7,10.6,3,15.7c0.1,0.4,0.2,0.7,0.2,1.1c0.7,0.1,1.3,0.3,2,0.6c-1.6-6.2-2.7-12.5-4.1-18.8
		c-0.2-1.2,0.4-1.6,1.3-2c2.2-1.2,4.5-1.8,7.1-1.2c2.7,0.7,5.4,1.5,7.8,2.7c0.5,0.2,1.4,0.3,1.2,1.4c-0.2,0.2-0.3,0.4-0.3,0.7
		c-4,5.4-4.4,11.5-4.2,17.8c0,0.3-0.2,0.8-0.5,1.3c0.5-0.1,0.9,0,1.4,0v-0.1c0.3-5.9,0.5-11.9,3.9-17.1c1.2-1.9,2.2-2.2,4.3-1.1
		c8.6,5,16.1,11.5,22.9,18.5c2.7,2.9,5.6,5.6,8,8.7c-0.3,0.2-0.7,0.4-1,0.6c0.5,0.2,1.1,0.2,1.6,0.1c0.3,0,1-0.1,1.5-0.4
		c0.1-0.2,0.2-0.3,0.4-0.4c0-0.1,0.1-0.2,0-0.3c0-0.1,0-0.2,0-0.3c-13-13.7-25.4-27.1-43.1-33.7c8.8,0.3,15.9,4.4,22.5,9.6
		c6,4.8,11,10.5,16.5,15.7c1.4,1.3,2.7,2.7,4.2,3.7c0.8,0.6,1.3,1.2,1.5,1.8c0.3-0.3,0.6-0.6,0.9-0.9c-0.3-0.2-0.6-0.5-0.8-0.8
		c-5-4.8-10-9.8-15-14.7c-5.8-5.6-11.8-10.6-19.4-13.4c-9.3-3.3-18.4-3.5-26.6,2.8c-5.6,4.2-8.6,10.2-10.6,16.7
		c-0.1,0.3-0.2,0.7-0.3,1.1c-1.3,0-1.7-1-2.5-1.6c-3.4-2.9-3.4-2.9,0.4-5.2c0.5-0.3,1.5-0.5,1.2-1.4c-0.4-1.1-1.4-0.4-2-0.2
		c-0.9,0.3-1.8,0.6-2.4,1.3c-2,2.4-3.9,0.4-5.5-0.4c-1.5-0.7-0.5-2.4-0.4-3.7c0.1-0.9,0.2-1.9,0.3-2.8c0.1,0,0.1-0.1,0.2-0.1
		c0.5-0.4,1.1-0.9,1.6-1.3c0.5,0.2,1-0.5,1.5-0.8c3.9-2.8,3.7-2.8,6.8,0.9c0.1,0.1,0.3,0.3,0.4,0.4c0.5,0.5,1,1.6,1.8,1
		c0.9-0.6-0.1-1.4-0.4-2c-0.7-1.7-3.5-2.7-3-4.3c0.4-1.4,2.9-2,4.4-3.1c0.6-0.4,2-0.9,1.3-1.9c-0.6-1-1.6,0-2.4,0.3
		c-2.6,1.2-4.6,5-8.6,1.8c2.6,2.4,1.5,3.7-0.5,5c-0.3,0.2-0.5,0.5-0.9,0.7c-0.2,0.2-0.5,0.4-0.7,0.6c-0.1,0-0.2,0.1-0.2,0.1
		c-0.4,0.3-0.8,0.7-1.2,1c0.6-6.2,0.7-12.5,0.4-18.8c0-0.6,0-1.7-1-1.5c-1,0.1-0.5,1.1-0.5,1.7c-0.1,1.9-0.2,3.8-0.2,5.7
		c-0.2-0.1-0.4-0.2-0.7-0.2c-0.2,0-0.4,0.1-0.6,0.2c-0.4-0.1-1-0.1-1.5-0.1c-8.7,0.2-17.3,0.1-25.9,1.9c-2.5,0.5-5,0.6-7.6,2.5
		c0.7,0.3,1,0.4,1.1,0.4c10.8-2.1,21.7-2.8,32.6-3c0.4,0,0.8,0,1.2-0.1c0.2,0.2,0.4,0.3,0.7,0.3c0.2,0,0.4-0.1,0.6-0.2
		c-0.3,6.4-0.7,12.8-1.3,19.2c-0.1,0.9,0.2,1.7-0.6,2.7c-0.9-1.2-1.3-2.5-2.4-3.1c0.3-1.3,2.1-1.3,1.8-3.1c-1.8,0.5-3.5,1.9-5.6,1.3
		c-0.3,1.2,1.5,1.1,1,1.9c-0.3,0.6-1.1,1.4-1.6,1.4c-0.6,0-0.7-0.9-0.7-1.6c0.1-1.7-0.3-3.4-1-4.9c-0.6-1.7-0.1-2.7,1.1-3.9
		c1.8-2,3.5-2.4,5.6-0.5c0.5,0.4,1.3,1.4,1.9,0.5c0.7-1.1-0.5-1.2-1.2-1.5c-1.7-0.9-2.9-1.6-0.2-2.9c0.5-0.2,1-0.7,0.9-1.9
		c-3.1,1.7-6.3,3-9.4-0.4c0,1.6,0.9,1.6,1.3,1.9c0.7,0.6,2.4,1,2,1.8c-0.4,1.1-1.6,1.9-2.7,2.7c-0.9,0.5-1.1-0.5-1.5-1
		c-4.1-4.5-7.3-5.1-12.9-3.4c-2.6,0.9-5.5,0.5-8.2,1.3c-1.2,0.3-1.2-1.7-2.5-1.8c-1.4,0.9,1.6,2.2-0.4,3.1c-1.1,0.4-2.6,0.4-2.9,2
		c1.2,0.5,2-0.3,2.9-0.5c1.1-0.3,2.2-1,2.8,0.5c0.3,1,2.2,1.4,1.3,2.9c-0.7,1.1-1,2.8-3.2,2.4c-1.8-0.3-4,1.6-6-1.5
		c0.7,4.1-2,3.4-4.1,4.6c0.6-2.7,2.2-4.2,3.2-6c2-3.9,4.1-7.7,6-11.6c0.6-1.5,1.4-2.2,3.2-2.4c9.8-0.3,19.4-2.8,28.7-5.6
		c1-0.3,1.9-0.7,2.8-1.1c0.4-0.2,1-0.3,1-1s-0.6-0.7-1.1-0.7c-1.1,0.1-1.3-0.4-1.3-1.4c0-2.7-0.1-5.4-0.1-8c0-0.5-0.1-1.3,0.6-1.4
		c1-0.1,1.1,0.7,1.1,1.4c0,2.1-0.1,4.3,0.3,6.4c1.3-1.9,1.1-4.2,0.7-6.2c-0.3-1.7,0.1-2.7,1.8-2.9c2.2-0.2,1.4,1.5,1.5,2.5
		c0.2,2,0,4.2,0,6.2c0,0.6,0,1.4,0.6,1.5c1,0.1,1.1-0.7,1.2-1.4c0.3-2.5,0.3-4.9-0.2-7.4c-0.2-0.9-1.1-2.2,0.9-2.5
		c1.6-0.1,1.9,0.9,1.8,2.2c-0.1,2.6-0.1,5.1-0.1,7.7c0,1.7,0.1,3.3-1.9,4.1c1.1,1.4,2.4,1,3.4,1c17.8-0.5,35.5-0.5,53.3,0.1h0.3
		c0.3-0.1,0.6,0,1,0c0,0.1,0.1,0.2,0.1,0.2c0.5,0.6,1.1,1.1,1.7,1.5c0.2,0.1,0.3,0.2,0.4,0.3c0.7,2.3,3.4,2.9,3.7,4.8
		c-4.3-0.7-13.9-0.8-21.4-0.6c-0.1-0.4-0.4-0.8-1-0.7c-0.7,0.2-1.4,0.3-2.2,0.4c-0.3-0.1-0.7-0.2-1-0.3c-0.6-0.1-1.1-0.1-1.6,0.1
		c-0.3,0-0.6,0-0.9,0c-11.3-0.2-22.7-0.3-34-0.4c-1,0-2-0.1-3.1,0.9c1.2,0.9,2.4,0.6,3.4,0.7c8,0.2,15.9,0.5,24,0.7
		c3.9,0.1,7.7,0,11.6,0c0.4,0,0.8,0,1.2-0.2c0.2,0,0.3,0,0.5,0c0.6,0.1,1.2,0.1,1.8-0.1c7.4,0.7,17.6,0.9,21.9,0.6
		c-0.6,2.2-1.5,3.5-4.1,3c-1.5-0.3-3-0.2-4.8,0.5c1.5,1.2,3,0.9,4.3,0.9c1.7,0,2,0.6,1.3,2.1s-1.7,3-1.9,5.6
		c2.2-1.8,2.7-3.9,3.5-5.5c0.7-1.3,1.4-1.7,3-1.6c2,0.2,4.1,1.6,6.3,0.3c0.6-0.3,1.4,0.7,1.2,1.8c-1,3.9-2.9,5.4-7,5.6
		c-0.9,0.1-1.8-0.3-2.5,0.9c0.7,0.7,1.8,0.4,2.7,0.4h3c-0.1,2.1-2.5,3.4-1.5,5.8c1.4-1.1,2.1-2.7,2.9-4.2c0.7-1.5,1.7-2,3.2-1.9
		c2.6,0.2,5.5-1.7,7.7,1.1c0.6,0.9,2.4,1.5,1.1,2.9s-0.9,4.3-3.9,4.1c-2.5-0.2-5-0.1-7.6,0.1c1.6,1.3,3.6,1.1,5.6,1.2
		c3.2,0.3,3.2,0.2,1.8,3.2c-0.5,1.1-1.1,2.1-1.5,3.2c0,0.1,0.2,0.3,0.3,0.6c1.5-0.5,1.9-1.9,2.2-3.1c1.1-3.9,4-4.1,7.1-4.5
		c1.1-0.2,2,0,2.7,0.4c-0.5,0.8-0.9,1.7-1.3,2.5c-0.1,0.1-0.2,0.2-0.2,0.3c-1.3,2-2,4.7-5.4,4c-0.1,0-0.4,0.4-0.4,0.6
		c0.3,1.3,2.2,0.9,2.4,2.5c0,0.3,1.1,0,1.6-0.6c0.9-1,2.2-0.8,3.3-0.6c0.1-0.7,0.2-1.3,0.4-1.9c-0.1,0-0.2,0-0.3,0
		c-0.5,0.1-1-0.1-1.6-0.2c0.1-1.2,0.9-2.1,1.4-3.1c0.1-0.2,0.2-0.5,0.1-0.7c0.3-0.7,0.7-1.4,1.1-2c0.8,0.7,1.5,1.5,2.2,2.2
		c0.1,0.1,0.1,0.2,0.1,0.3c1-0.5,2-0.7,3-0.8C582.8,527.9,575.4,517,565.6,508.6z M540.3,467c0.2,1.4,1.1,2.4,0.9,3.9
		C540.1,469.6,537.3,469.3,540.3,467z M533.6,467.4c2.6,0,1.6,2.1,2.1,3.3c2.9-1.6,4,1.6,5.9,2.2c1.2,0.4,1.4,2.5,1.2,4
		c-0.4,2.2-1.8,2.8-4,1.6c-4-2.2-4.9-4.5-3.1-7.8C534,470.4,533.4,469.2,533.6,467.4z M517.6,337.9c0.2,1.2,0.2,2.2-1.3,2.7
		c2.8,2.7,1.9,6.3,2.6,9.6c-3.5-1.9-3.6-2.4-1.3-5.9c-2.9,2.1-5,1.1-7.2-1.6c1.5,2.9,3.2,5.6-1.4,6.4c-0.9-5,0.2-7.6,4.5-9.8
		c0.2-0.2,0.9,0.2,1.3,0.3c-0.1-1.3,0.7-2,1.8-2.4C517.3,337,517.5,337.4,517.6,337.9z M514.2,337c-2.4,0.2-2.6-1.8-2.9-3.5
		c-1.5,0.5-1.9,1.6-0.7,2.6c4,3.1,0.2,3.7-1.8,5.8c-0.3-4.8-0.3-9-0.1-13.3c0-0.4,0.5-0.3,1-0.3c1.1-2.9,4.1-4,6.3-2.1
		c0.2,0.2,0.3,1,0.2,1.1c-1,0.9-1.5,2.4-3.2,2.2c-0.7,0-1.3-1-2.1-0.7c1.6,2.6,1.6,2.6,0.5,4.8c1.6,0.5,2.6-2.6,4.5-0.4
		c0.3-1.4-1.6-2.7,0.4-3.4C517.6,334.3,517.1,336.6,514.2,337z M510.8,321.5c0.4-1.4-3.2-1.3-1.4-3c1.2-1,2.4-2.8,4.5-1.8
		c1.9,0.9,2,2.7,1.5,4C514.5,322.7,512.5,322.3,510.8,321.5c0.6,2.1,0.4,3.7-2.5,4.4C509.4,324.4,506.9,321.4,510.8,321.5z
		 M505.5,313.8c-0.4,0-1.3-0.9-1-1.2c1.1-1.1,2.2-1.8,4.5-1.3C507.5,312.2,507.3,314.1,505.5,313.8z M509.3,316.8v-4.3
		C512.5,314.9,512.5,315.1,509.3,316.8z M510.7,311.1c1.2,0.4,2,0.7,3,0.9c0.5,0.2,1.3,0.2,1.3,1c0,0.3-0.3,0.6-0.6,0.9
		c-0.7,0.5-1.3,0.3-1.8-0.2C511.9,312.9,511.1,312.2,510.7,311.1z M516,305.9c-0.1,0.3-0.2,0.5-0.3,0.9c-1.3,3.9-2.1,4.2-5.7,2
		c-1.6-1-0.3-2.7-0.5-3.6c-0.1-1.2-0.1-2-0.1-3c-0.3-3.5-0.3-3.5,3.3-2.5c1.8,0.5,4.2,0.6,5.1,1.8C519,302.9,516.4,304.2,516,305.9z
		 M517.3,296.1c0.2,0,0.2,0.6,0.3,0.9c-0.2,1.4-0.5,2.4-2,2.1c-1.8-0.4-3.7-0.9-5.7-1.4c-0.4-0.1-1.4-0.2-0.6-1.1
		c0.7-0.9-0.3-2.9,1.1-2.7C512.7,294.3,515.1,295.2,517.3,296.1z M509.1,288.5c0.6-0.6,1.2-0.3,1.7,0.2c1.2,1.3,2.2,2.7,3.7,4.5
		c-3.6-0.5-6.8-2-9.7,0.3c-0.2-0.2-0.3-0.5-0.5-0.7C505.9,291.4,507.5,290,509.1,288.5z M500.4,296.7c2.2-1.1,4.5-1.8,6.8-2.6
		c0.7-0.2,0.9,0.5,0.7,1.2c-0.2,1.7-0.7,3-2.5,3.5c-2,0.7-4.2,1.5-7.2,2.5C499.7,299.5,498.8,297.6,500.4,296.7z M499.3,302.7
		c1.8-0.6,3-1.3,4.2-1.3c1.3-0.1,2.7-2.1,3.7-0.2c1.5,2.7,0.7,7.6-1,8.5c-0.7,0.4-1.6,1-2-0.5C503.5,306.7,501.9,304.6,499.3,302.7z
		 M503.8,317.6c0.9-0.7,1.7-1.2,2.6-0.7c1.1,0.5,1,1.9,0.6,2.9c-0.3,0.9-0.6,1.9-2,0.9c-0.9-0.6-0.7,0.3-0.7,0.9
		c0,1.1-0.4,1.7-1.8,1.6C503.3,321.3,501.9,319.3,503.8,317.6z M507.3,348.5c-3.2-2.7-3.2-2.7-0.3-4.3
		C507.4,345.6,507.3,347,507.3,348.5z M501.8,332.3c0.1-2.1,0.3-4.2,0.4-6.2c0.1-1.3,0.7-2.1,2.1-2.4c1.6-0.2,1.6,1.1,2.1,1.9
		c1.1,1.7,0.5,3.6,0.3,5.5c-0.1,0.9-1.1,1.6-2.2,1.2c-0.2,0.2-0.4,0.4-0.6,0.5c0,1.2-1.1,1.6-1.7,1.5
		C501.2,334.2,501.8,333,501.8,332.3z M501.3,338c0-2,1.9-2.4,3.2-2.9c1.3-0.4,1.5,1.4,2,2.1c0.9,1.3,0.7,2.9,0.4,4.3
		c-0.5,2.2-3,2.8-5.6,0.6c0.7,2,2.5,3.6-0.2,4.5C501.2,343.8,501.3,340.9,501.3,338z M499.6,364c0.2-2.6,2.6-3,3.9-4.4
		c0.5-0.6,3.7,2.6,3.9,4.1c0.1,2,0,4.2-0.1,6.2s-4.2,3.2-6.7,2c0.9,2.4,0.9,2.4-2,4.8c0-2.7,1.1-4.9,1-6.7
		C499.2,368,499.4,366.1,499.6,364z M500,360.5c0.2-1.9,0.2-3.4,0.3-5.2C503.1,357.2,502.4,358.7,500,360.5z M507.1,372.8
		c-0.1,2-0.1,4-0.1,6.5C502.8,374.3,502.8,374.3,507.1,372.8z M505.7,416.6c0,3.9,0,7.6-0.1,12.3c-2.4-2.1-4-3.5-5.7-4.9
		c1.4-1.5,3.4-2,4.4-4c-3.1-1-4.6,5-8.1,1.2c2.4,4.7-2.5,3.6-3.2,5.8c-0.2-0.1-0.5-0.2-0.7-0.3c0.5-4.4,0.9-8.7,1.7-12.9
		c0.4-2.2,3-2.7,4.7-3.6c1.2-0.6,1.7,1.2,2.6,1.9c1.3,1.1,1.9,2.9,3.7,3.2C505.8,415.4,505.7,416,505.7,416.6z M506.7,400.5
		c-0.5,4.5-0.2,9.2-0.3,14c-1-0.3-1.2-0.3-1.3-0.4c-1.4-1.5-3.6-2.8-4.1-4.5c-0.6-2.2,2.7-2.4,3.9-3.9c0.4-0.4,0.9-0.9,0.5-1.5
		c-3.1-0.5-4.1,5-8,2.2c1.4,3.1-1.2,3.3-3,4.7c-0.2-3.5,0.5-6.6,0.9-9.6c0.7-6.8,1.7-13.7,2.5-20.5c0.3-2.6,2.6-3.3,3.9-4.9
		c0.2-0.4,0.7-0.3,1,0c1.5,2.5,4.2,4.3,4.6,7.6c0.4,3.5-3.1,3.9-4.7,5.6c-1.3,1.3-2-1.3-3.1-1.8c-0.4-0.2-0.6-0.7-1.3-0.5
		c1.2,3.2,1,5-1.1,8.9c1.8-0.1,2.5-1.5,3.5-2.4c0.5-0.4,1.2-1.7,1.8-0.7C504.2,395.1,507.1,396.6,506.7,400.5z M507,389.7
		c-0.1,1.6-0.1,3.2-0.1,5.4c-1.8-1.2-3.6-2.1-3.6-3.9c0-1.5,2-2.4,3.7-3.6V389.7z M508.5,392.6c0.9-0.3,1.6,0.9,1.7,1.6
		c0.1,1.4-1.1,1.7-3.1,2C509.2,394.9,506.7,393.2,508.5,392.6z M511.6,383c-0.2,0.1-3.4-3.2-3.2-3.4c0.9-1.2,2.2-2,3.5-2.2
		s1.9,1.1,1.8,2.5C514.1,381.5,512.6,382.1,511.6,383z M508.1,398.7c0.1-1.7,1.8-2.2,2.9-2.5c1.2-0.2,2.2,1.4,2.9,2.4
		c0.7,1.1-0.7,1.5-1.4,2.1c-1.4,1.2-3.1,1.9-4.4,3.5C508.1,402.3,508.1,400.5,508.1,398.7z M513.7,392.1c-0.3,0.6-1.4,1.8-2,1.2
		c-1.1-1.2-3.1-1.5-3.1-3.5c0-1,0.3-1.7,0.7-2.5c-0.6-0.1-0.7-0.5-0.6-1.1c0-0.4,0.1-1,0.1-1.4v-1.4c-0.1-0.5-0.2-1.5,0.7-0.7
		c0.6,0.5,1.3,1.5,1.1,2.6c1.7,0,2.8,0.6,2.4,2.6C514.7,388.9,514.4,390.6,513.7,392.1z M510.7,418.7c-1.2,0.2-3-0.5-3.3-2.4
		c-0.4-2.5,2-2.2,3-4.1c0.7,1.9,3.2,1.4,3.4,3.5C514.2,418.2,511.9,418.4,510.7,418.7z M513.5,408.6c-1.4,2-3.2,0.7-4.8,0.1
		c0.4,1.4,1.7,3-1,4c-0.2-1.4-0.2-2.7,0.1-4c0-0.3-0.1-0.7,0-1.3c0.6-2.6,2.4-3.1,4.6-1.1c0.3-1.6-1.7-4,1.6-4.6
		C514.2,404.2,514.9,406.5,513.5,408.6z M516.5,378.4c-0.7-0.4-1.3-1.2-1.5-2c-0.2-1.1,0-2.8-1.2-2.6c-0.9,0.2-3.4-0.5-3,2.1
		c0,0.2-1.1,1.1-1.6,1c-0.9-0.1-0.5-1.1-0.5-1.7c0-4.9,0.1-9.8,0-14.8c0-1.1,0.6-3-0.5-3.1c-1.6-0.2-0.1,2-1.4,2.8
		c-1.6-1.1-2.1-2.2-0.5-3.9c-0.2-0.2-0.5-0.3-0.7-0.5c-1.7,0.5-4.5-1-5.2-2.7c-0.5-1.9,1.1-5.6,2.7-6c0.4-0.1,0.6,0.1,1,0.3
		c0.9,0.6,3.1,4.1,3.5,5.6c0.9-2.9,3.4-3.7,5.6-4.6c1.7-0.6,2.5,1.8,3.6,2.9c0.6,0.6,0.1,1.1-0.4,1.6c-1.2,1.2-2.1,1.1-3.3,0.1
		c-0.6-0.6-1.5-1.2-2.6-1.2c0,0.2-0.1,0.4,0,0.5c3,2.7,3,2.6-0.1,5.1c-0.4,0.3-1.1,0.6-0.6,1.8c1.4-0.9,2.9-1.6,4.1-2.6
		c2-1.5,2.6,1.6,4.2,1.2c0.7-1.5-1.4-1.8-1.3-2.8c0.2-1.2,1.2-1.7,2.5-2.4c0.6,6,1.4,11.8,2,17.6c-0.3-0.2-0.5-0.5-0.8-0.7
		c0-0.6-0.7-1-1.2-1.3c-0.4-0.2-0.9-0.5-1.3-0.7c-2.2-1.1-2.8-2.1-0.2-3.4c0.5-0.3,1.7-0.9,1.2-1.7c-0.7-1.1-1.6,0.1-2.1,0.6
		c-1.8,1.8-3.3,1.8-4.8-0.2c-0.3-0.3-0.6-1.2-1.7-0.2c2.9,2,3.2,4.1-0.7,5.7c1.2,0.6,1.7,0.4,2.2-0.1c1.8-2,3.6-1.6,5.4,0.2
		c0.3,0.4,0.9,0.7,1.4,1.1c0.1,0,0.1,0.1,0.2,0.2c0,0.1,0.1,0.2,0.2,0.3c0.1,0.1,0.2,0.2,0.3,0.2c0.1,0.1,0.2,0.2,0.3,0.3
		c0.6,0.5,1.3,1.1,1.9,1.6c0,0.3,0.1,0.6,0.1,0.9c0.1,1.1,0.7,2.4-0.6,3.2c-1.5,0.9-2.1-0.5-3.1-1c-0.2-0.1-0.5-0.1-0.7-0.1
		c-0.1,0.3-0.2,0.5-0.2,0.6c0.3,0.7,1.7,0.9,1.2,2C517.5,378.1,516.7,378.5,516.5,378.4z M517.2,383.7c0.1-1.3-1.4-2.8,0.2-4
		c0.6-0.4,1.5-1.4,2.4-0.6c1.3,1.2,3.6,1.8,2.7,4c0.3,2.4-0.7,4.1-2.5,4.1C518.4,387.2,517,385.7,517.2,383.7z M518.4,392
		c0-1.3,1-1.9,1.9-2.2c1.1-0.3,3.2,2.5,3.2,4.1c0.3,1.2-0.7,2.4-1.6,1.9C520.4,395.1,518.4,394.3,518.4,392z M519.9,408.4
		c-0.2-3.2-1.7-6.2,1.2-8.9c0.6-0.5,1-1.5,2-1.3c1.4,0.2,1.1,1.6,1.3,2.4c0.9,3.2-0.2,4.5-3,3.9c0,0.1-0.1,0.2-0.3,0.2
		C522.2,406.3,521.6,407.5,519.9,408.4z M525.9,413.9c-0.2,2-2.1,2-4.8-0.3c1.2,4.4,1.2,4.4-0.6,5.8c0.6-3.9-1.6-7.5,1.5-10.8
		c1.4-1.5,2.1-1.1,3.1,0.2C526.1,410.4,526.1,412.2,525.9,413.9z M512,433.7c0.3-0.2,0.6-0.3,1-0.5c2.4,0.7,1.7,2.8,1.3,4.1
		c-0.4,1.8,0.4,4.3-1.9,5.5c-0.9,0.4-1.6,0.1-1.7-1.2c-0.1-2.4-0.5-4.7-0.6-7.1C509.8,432.4,510.8,432.5,512,433.7z M494.8,529.9
		c1,0.4,2.1,0.7,2.1,1.7c0,1.3-1.5,1.5-2.8,1.9C494.4,532.5,494.6,531.3,494.8,529.9z M461.1,518.1c1-1.3,2.8-1,4.9-1.6
		c-1.8,1.5-2,3.4-3.9,3.4C461.8,519.9,460.8,518.7,461.1,518.1z M458.7,526.4c-0.9,1.4-1.6,2.4-2.4,3.4
		C454.6,526.9,454.6,526.9,458.7,526.4z M483.3,440.4c0.7-0.5,1.2,0.1,1.3,0.6c0.2,1.2,1.7,2.2,0.9,3.6c-0.4-1.2-1.7-1.8-2.1-3
		C483.2,441.3,482.6,440.9,483.3,440.4z M483.3,445.4c-0.4-0.2-0.6-0.7-0.3-1c0.3-0.4,0.4,0.3,0.7,0.4c0.6,0.1,0.6,1.3,1.7,1
		c0.4-0.2,0.3-0.6,0.1-1c0,0,0,0,0-0.1c0.6-0.5,1.2,1,2,0.1c0-1.4-1.2-2.2-1.7-3.5c-0.3-0.7-0.6-1.4,0.4-1.8
		c0.9-0.3,1.7-0.5,1.9,0.9c0.4,2.6,2,4.7,2.9,7.1C485.7,449,485.2,448.9,483.3,445.4z M484.7,455.5c0.3-1.2,1-2,2.4-2.4
		c0.2,0.1,0.4,0.2,0.5,0.4c0.3,0.6,0.6,1.4,1,2c-1.7,0.6-0.9,3.2-2.8,3.7c-0.1,0-0.4,0.1-0.5,0C484.5,458.2,484.4,456.9,484.7,455.5
		z M481.5,466.4c0.7-1.4,0.5-3.6,2.2-4.1c1.2-0.2,1.8,1.2,1.8,2.6c-0.6,1.3,0.2,3.4-2.4,3.3C482,468.1,480.9,467.4,481.5,466.4z
		 M479.5,473.9c0.5-1.1,0.3-3.1,2.2-3c1,0.1,1.7,1.5,1.6,2.8c-0.1,1.9-1.8,2.1-3.1,2.6C479.9,476.4,479.4,475,479.5,473.9z
		 M476,483.8c1.2-1.5,0.5-4.4,3.1-4.8c1.2-0.2,1.7,1.5,2.4,1.9c0,2.2-2,4.2-4,4C476.9,484.7,475.4,484.6,476,483.8z M476.3,487.2
		c1.2-0.3,1.6,0.7,2.4,1.4c1,0.9,0.6,1.3-0.4,1.5c-1.4,0.2-2.8,1-4.3,0.4C474.1,488.9,474.7,487.7,476.3,487.2z M467,496.4
		c-0.2,2.4-0.9,4.7-0.9,7.1c0,2.9-1.9,2.4-3.6,2.5c-0.9,0.1-0.9-0.5-0.7-1.2c0.3-3,0.5-6.1,0.9-9.1c0-0.6,0-1.3,0.9-1.2
		c0.6,0.1,0.5,0.7,0.5,1.2c-0.1,2-0.3,4.2-0.4,6.2c0,1-0.2,1.9,0.7,3.4c1.2-3.3,0.5-6.1,0.5-9c0.1-0.9-0.4-2.1,1.2-2.1
		C467.8,494.3,467.1,495.6,467,496.4z M476.9,494.4c0,2.7-0.1,5.5,0,8.2c0.1,1.6-1.1,1.5-1.9,1.6c-2.4,0.2-4.8,1.7-7.1,0.4
		c-0.5-0.3,0-2.2,0-3.4c0.1-1.9,0.2-4,0.3-5.9c0-0.9,0-1.7,1.2-1.7s1,1,1,1.7c0,2.4-0.5,4.8,0.6,7.1c1-2.5,0.6-5,0.6-7.5
		c0-0.9-0.1-1.9,1.2-1.8c1.2,0.2,0.6,1.2,0.6,1.9c0,2.4-0.6,4.7,0.7,6.8c1.1-2.5,0.7-4.9,0.7-7.5c0-0.9-0.1-1.9,1.2-1.8
		C477.3,492.5,476.9,493.7,476.9,494.4z M483.2,492.4c0,2.8-0.1,5.6-0.1,8.3c0,1.3-0.4,1.8-1.6,2s-2.2,0.5-3.6,0.9
		c0-3.5,0.1-6.7-0.1-9.8c0-1.3,0.3-2.2,1.7-2.1s0.6,1.3,0.6,2c0.1,2.4,0,4.6,0,7.1c1.4-0.2,1.1-1.4,1.1-2.2c0.1-2,0.2-4.2,0.2-6.2
		c0-0.7,0.2-1.4,1.2-1.3C483.4,491.2,483.2,491.9,483.2,492.4z M485.2,501.7c-1.2,0.2-1.6-0.4-1.3-1.2c1.2-2.7,0.5-5.5,0.4-8.1
		c-0.1-1.4,0.3-2.2,1.6-2.2c1.4,0,0.7,1.3,0.7,2c0.1,2.1-0.3,4.4,0.4,7.3c1.6-3.6,0.2-6.8,1.5-9.6c1,2.5,0.2,5.1,0.5,7.7
		C489.5,500.7,487.6,501.3,485.2,501.7z M502.7,476.7c1.1-0.1,1.7,1.1,2.5,1.8c0.7,0.6-0.1,1.2-0.5,1.6c-0.7,0.6-1.5,1.3-2.8,2.4
		c0.1-1.7,0.1-2.8,0.2-3.9C502.1,478,501.7,476.8,502.7,476.7z M512.4,485.1c-3.6,0-7.1,0-10.6-0.1
		C507.6,479,506.1,478.5,512.4,485.1z M510.6,489.1c-0.1,2.9-0.2,5.7-0.3,8.6c-0.1,0.6,0.4,1.6-0.6,1.7c-1.2,0.1-1.4-0.9-1.4-1.8
		c0.1-2.4,0.1-4.7,0.1-7.1c0-0.7,0.4-1.6-0.3-2.2c-1.2,0-0.9,0.9-0.9,1.5c-0.1,2.5-0.2,4.9-0.1,7.4c0.1,2-0.7,2.5-2.6,2.6
		c-2,0.1-2.9-0.3-2.7-2.6c0.2-2.7,0-5.5,0-8.2c0-0.9-0.5-2.1,1.2-2c1.6,0.1,1.1,1.4,1.1,2.2c0.1,2.6-0.7,5,0.2,7.6
		c1.1-2.6,1-5.1,0.9-7.9c-0.1-1,0-2.5,1.3-1.7C507.7,487.9,510.8,485.3,510.6,489.1z M513.6,493.7c0,1.5-0.1,3-0.2,4.5
		c0,0.7-0.1,1.4-1.1,1.3c-0.9-0.1-0.9-0.6-0.9-1.3c0-3.2-0.1-6.5-0.1-9.7c0-0.5,0-1.2,0.9-1.2c0.7-0.1,1.4,0.2,1.4,1.1L513.6,493.7
		L513.6,493.7z M529.4,489.3c-0.1,2.7-0.3,5.5-0.3,8.2c0,1.4-0.5,1.6-1.8,1.6c-3.4-0.1-7-0.1-10.4,0c-1.5,0.1-1.9-0.4-1.9-1.8
		c0.1-2.8,0-5.7-0.1-8.6c-0.1-0.7-0.2-1.7,1-1.7c1.3,0,0.9,1.1,0.9,1.8c0.1,2.4-0.7,4.8,1.1,7.3c0.1-2.6,0.1-4.7,0.1-6.8
		c0-1.2,0.1-2,1.7-2c1.5,0.1,1.4,1.1,1.4,2c0,3-0.1,5.9-0.1,9.6c1.8-1.4,1.5-2.5,1.5-3.4c-0.1-2-0.2-4.2-0.3-6.2
		c0-1.2,0.1-1.9,1.6-1.8c1.2,0.1,1.9,0.2,1.9,1.8c-0.1,2.1-0.4,4.3,0.5,6.3h0.7c-0.1-1.9-0.2-3.9-0.2-6.1c0-1-0.3-2,1.3-2
		C529.3,487.4,529.5,488.2,529.4,489.3z M538.8,490.1c-0.2,1.2-0.2,2.4-0.3,3.5c-0.4,5.7-0.4,5.6-5.9,5.8c-2,0.1-2.6-0.4-2.5-2.4
		c0.2-2.6,0.1-5.1,0.1-7.7c0-0.9,0.1-1.5,1.3-1.5c1.3,0,1.2,0.7,1.2,1.6c-0.1,2.5-0.3,4.9,0.4,7.4c0.9-2.2,0.5-4.6,0.5-6.8
		c-0.1-1.6,0.3-2.4,1.9-1.9C536.9,488.4,539.1,487.2,538.8,490.1z M547.9,491c-0.3,2.4-0.2,4.7-0.2,7.1c0,0.7,0.1,1.7-1.1,1.7
		c-2.2,0-4.5-0.1-6.7-0.2c-0.7,0-1-0.4-0.7-1.2c0.9-2.7,0.6-5.5,0.6-8.2c0-1-0.2-1.9,1.2-1.8c1.3,0.1,1,1,1,1.7
		c0.1,2.8-0.4,5.6,0.3,9.1c1.4-3.2,0.4-5.7,0.6-8c0.1-1-0.9-2.9,1.2-2.5C545.4,488.9,548.5,487.2,547.9,491z M562.8,512.6
		c0.3-1.2,0.7-2.8,1.5-2.7c1.8,0.1,2.7,1.9,3.5,3.6C566.1,513.2,564.5,512.9,562.8,512.6z M570.3,521.4c0.6-1.5,0.7-3.7,2.1-3.9
		c1-0.1,2.1,1.8,3.6,3.2C573.8,521.3,572.1,521.5,570.3,521.4z M580.9,530.5c-0.5-0.5,0.4-2.6,1.1-2.7c1.6-0.4,2.2,1.2,3.1,2.5
		C583.6,531,582.1,531.6,580.9,530.5z"/>
</g>
<g id="pasto">
	<path class="st0" d="M656.7,550.2c-0.7-2.7-4.3-4.1-6.5-2.2c-2.4,1.8-3.5,0.9-5-0.6c-2.9-0.7-5.9-0.9-8.3,0.7
		c-2.1,1.3-3.7,2.4-6.5,1.2c-1.7-0.7-2.2-1-2.4-2.9c-0.2-6.3-3.4-9.6-8.8-9.7c-3.2,1.3-6.7,2-8.6,5.6c-1.3-0.4-1.5-1.6-2.2-2.4
		c-1.9-1.7-4.1-2.7-6.2-1.3c-1.8,1.2-2.5,0.4-4.1-0.4c-1.1-0.6-2.1-1.2-3.1-1.8c-1,0-2,0.1-2.9,0.3c-2.9,0.8-3.9,2.9-4,5.6
		c0.1,0.4,0,0.9,0.1,1.3c0.1,1-0.4,1.4-1.2,1.1c-1.5-0.7-3.5,1.1-4.8-1.1c-0.5-0.7-1.1,0.2-1.2,0.6c-0.3,1.2-0.7,1.7-1.1,1.8
		c-0.8,0.8-1.6,1.6-2.1,2.7c-0.3,0.6-0.6,1.2-1.2,1.5c-0.5,0.5-1.4,0.7-2,0.8c-1.2,0.2-2.4,0-3.4-0.6c-1.7,0.6-3,0-4.4-2.6
		c-2.5-4.5-9-5.4-13.4-2.6c-1.2,0.6-1.9,1.1-3.3,0.1c-1.8-1.2-3.7-0.7-4.9,1.1c-0.7,1.2-1.1,0.9-2.2,0.5c-3.4-0.8-5.1-3.8-7.8-5.5
		c-1.1-0.2-2.1-0.3-3.2,0.2c-0.9,1.1-1.9,1.9-2.1,1.6c-1.4-1.2-3.4-1.9-4.5-3.4c-0.9-0.5-1.9-0.8-2.9-1c-0.3,0.1-0.7,0.1-1.4-0.2
		c-0.5,0.1-0.9,0.1-1.2,0c-1.1,0.1-2.1,0.3-3.2,0.8c-1,0.7-2.2,1.1-2.9,2.2c-0.7,1.3-1.5,1.8-3.2,1.5c-1.9-0.3-2.9-0.4-3.3-0.9
		c-0.1,0-0.2-0.1-0.3-0.3c-0.4-0.2-0.8-0.5-1.2-0.8v0.1c-3.6-3.7-4.8-4-8.8-1.6c-0.1,0-0.1,0.1-0.1,0.1c-0.2,0.4-0.3,0.8-0.4,1.2
		c-0.1,0.5-0.7,0.7-1,0.3c-0.4-0.8-1-1.3-2-1.4c-0.3-0.1-0.5-0.4-0.4-0.7c0.9-2.4-0.6-5.2-2.8-6.4c-1.5-0.9-2.7-0.7-4.2-0.2
		c-0.3,0.1-0.7,0.4-1.1,0.4s-0.7-0.2-1-0.4c-0.1-0.1-0.1-0.3-0.2-0.4c-0.3-0.6-0.6-1.2-1-1.7s-1-1-1.4-1.4c-1.1-0.3-2.1-0.8-3.3-0.6
		c-1.2,0.1-2.4,0.3-3.2,1.2c-1.8,1.8-3.3,3.5-6.5,3.4c-2.9-0.1-3.1,3-3,5.5c-2.9-0.9-2.9-0.9-6.6-0.1v-0.1c-0.9,0.1-1.7,0.2-2.6,0.2
		c-0.7,0.6-1.5,0.8-3.1,0.5c-0.1,0-0.3,0-0.4-0.1c0,0.1-0.1,0.2-0.2,0.3c-1.1,0.8-2.4,0.9-3.6,1.2c-0.2,1.9-1.4,3.3-2.7,3.7
		c-0.1,0.3-0.6,0.6-0.9,0.3l-0.2-0.2c0,0,0,0,0-0.1c-0.1,0-0.2-0.1-0.3-0.1c-1.6-0.7-0.4-2.4-1.2-3.3c-0.3-0.4-0.5-0.8-0.6-1.1
		c-0.1,0-0.1-0.1-0.2-0.2c-0.4-0.9-1.3-1.3-2.1-1.9c-0.1-0.1-0.1-0.1-0.2-0.2c-0.2,0-0.4,0-0.7,0.1c0.2-0.1,0.4-0.3,0.6-0.5
		c0.1-0.2,0.2-0.4,0.4-0.4c0.1-0.1,0.2-0.2,0.2-0.2c0-0.1,0-0.1,0-0.2c0-0.9,0.1-1.7,0.2-2.5c-0.5-1.5-0.7-3.1-2-3.5
		c-1.9-0.6-1.7-1.7-1.6-3.3c0.2-3.4-2.1-5.4-5-4.1c-2.1,1.1-2.4,0.1-2.9-1.5c-2.6-7.1-9.5-8.7-14.7-3.5c-0.3,1.1-0.9,2.1-0.7,5
		c0,2.4-1.4,2.4-3.1,1.9c-2.6,0.4-3.5,2-3.7,4.5c-0.1,2.2-1.9,3.9-2.9,5.8c-0.4,1-2.1-0.7-3.4-0.6c-3.6,0.3-7.2,1.1-10.7,1.6
		c-1.4,0.2-2.4,0.4-3.3-0.5c-5.6-1.5-7.9-0.6-10.4,3.3c-0.6,1.8,0.4,5.6-3.9,3.7c-1.4,0.5-2.5,1.4-3.3-1c-0.6-1.9-2.1-3.3-4.6-2.4
		c-1.5,0.5-1.4-0.5-1.5-1.4c-0.5-0.2-1-0.5-1.5-0.9c-1.2-0.3-3,0.5-3.2-1.7c-3.2-3.3-6.2-3.6-11.1-1.1c-4.4,3.1-5.8,8.4-5.8,13.8
		c-0.2,12.7-0.1,66.9-0.1,75.3c0.9-0.3,234.9-3,236.7-0.1c0.4,0.5,79.5-2.2,80.3-2.5C659.9,619.9,657,550.9,656.7,550.2z"/>
	<path class="st3" d="M656.7,550.2c-0.7-2.7-4.3-4.1-6.5-2.2c-2.4,1.8-3.5,0.9-5-0.6c-2.9-0.7-5.9-0.9-8.3,0.7
		c-2.1,1.3-3.7,2.4-6.5,1.2c-1.7-0.7-2.2-1-2.4-2.9c-0.2-6.3-3.4-9.6-8.8-9.7c-3.2,1.3-6.7,2-8.6,5.6c-1.3-0.4-1.5-1.6-2.2-2.4
		c-1.9-1.7-4.1-2.7-6.2-1.3c-1.8,1.2-2.5,0.4-4.1-0.4c-1.1-0.6-2.1-1.2-3.1-1.8c-1,0-2,0.1-2.9,0.3c-2.9,0.8-3.9,2.9-4,5.6
		c0.1,0.4,0,0.9,0.1,1.3c0.1,1-0.4,1.4-1.2,1.1c-1.5-0.7-3.5,1.1-4.8-1.1c-0.5-0.7-1.1,0.2-1.2,0.6c-0.3,1.2-0.7,1.7-1.1,1.8
		c-0.8,0.8-1.6,1.6-2.1,2.7c-0.3,0.6-0.6,1.2-1.2,1.5c-0.5,0.5-1.4,0.7-2,0.8c-1.2,0.2-2.4,0-3.4-0.6c-1.7,0.6-3,0-4.4-2.6
		c-2.5-4.5-9-5.4-13.4-2.6c-1.2,0.6-1.9,1.1-3.3,0.1c-1.8-1.2-3.7-0.7-4.9,1.1c-0.7,1.2-1.1,0.9-2.2,0.5c-3.4-0.8-5.1-3.8-7.8-5.5
		c-1.1-0.2-2.1-0.3-3.2,0.2c-0.9,1.1-1.9,1.9-2.1,1.6c-1.4-1.2-3.4-1.9-4.5-3.4c-0.9-0.5-1.9-0.8-2.9-1c-0.3,0.1-0.7,0.1-1.4-0.2
		c-0.5,0.1-0.9,0.1-1.2,0c-1.1,0.1-2.1,0.3-3.2,0.8c-1,0.7-2.2,1.1-2.9,2.2c-0.7,1.3-1.5,1.8-3.2,1.5c-1.9-0.3-2.9-0.4-3.3-0.9
		c-0.1,0-0.2-0.1-0.3-0.3c-0.4-0.2-0.8-0.5-1.2-0.8v0.1c-3.6-3.7-4.8-4-8.8-1.6c-0.1,0-0.1,0.1-0.1,0.1c-0.2,0.4-0.3,0.8-0.4,1.2
		c-0.1,0.5-0.7,0.7-1,0.3c-0.4-0.8-1-1.3-2-1.4c-0.3-0.1-0.5-0.4-0.4-0.7c0.9-2.4-0.6-5.2-2.8-6.4c-1.5-0.9-2.7-0.7-4.2-0.2
		c-0.3,0.1-0.7,0.4-1.1,0.4s-0.7-0.2-1-0.4c-0.1-0.1-0.1-0.3-0.2-0.4c-0.3-0.6-0.6-1.2-1-1.7s-1-1-1.4-1.4c-1.1-0.3-2.1-0.8-3.3-0.6
		c-1.2,0.1-2.4,0.3-3.2,1.2c-1.8,1.8-3.3,3.5-6.5,3.4c-2.9-0.1-3.1,3-3,5.5c-2.9-0.9-2.9-0.9-6.6-0.1v-0.1c-0.9,0.1-1.7,0.2-2.6,0.2
		c-0.7,0.6-1.5,0.8-3.1,0.5c-0.1,0-0.3,0-0.4-0.1c0,0.1-0.1,0.2-0.2,0.3c-1.1,0.8-2.4,0.9-3.6,1.2c-0.2,1.9-1.4,3.3-2.7,3.7
		c-0.1,0.3-0.6,0.6-0.9,0.3l-0.2-0.2c0,0,0,0,0-0.1c-0.1,0-0.2-0.1-0.3-0.1c-1.6-0.7-0.4-2.4-1.2-3.3c-0.3-0.4-0.5-0.8-0.6-1.1
		c-0.1,0-0.1-0.1-0.2-0.2c-0.4-0.9-1.3-1.3-2.1-1.9c-0.1-0.1-0.1-0.1-0.2-0.2c-0.2,0-0.4,0-0.7,0.1c0.2-0.1,0.4-0.3,0.6-0.5
		c0.1-0.2,0.2-0.4,0.4-0.4c0.1-0.1,0.2-0.2,0.2-0.2c0-0.1,0-0.1,0-0.2c0-0.9,0.1-1.7,0.2-2.5c-0.5-1.5-0.7-3.1-2-3.5
		c-1.9-0.6-1.7-1.7-1.6-3.3c0.2-3.4-2.1-5.4-5-4.1c-2.1,1.1-2.4,0.1-2.9-1.5c-2.6-7.1-9.5-8.7-14.7-3.5c-0.3,1.1-0.9,2.1-0.7,5
		c0,2.4-1.4,2.4-3.1,1.9c-2.6,0.4-3.5,2-3.7,4.5c-0.1,2.2-1.9,3.9-2.9,5.8c-0.4,1-2.1-0.7-3.4-0.6c-3.6,0.3-7.2,1.1-10.7,1.6
		c-1.4,0.2-2.4,0.4-3.3-0.5c-5.6-1.5-7.9-0.6-10.4,3.3c-0.6,1.8,0.4,5.6-3.9,3.7c-1.4,0.5-2.5,1.4-3.3-1c-0.6-1.9-2.1-3.3-4.6-2.4
		c-1.5,0.5-1.4-0.5-1.5-1.4c-0.5-0.2-1-0.5-1.5-0.9c-1.2-0.3-3,0.5-3.2-1.7c-3.2-3.3-6.2-3.6-11.1-1.1c-4.4,3.1-4.7,7.3-3.1,12.1
		c1-0.6,1.8-1.7,3-2.2c0.9-0.3,0.7-1.3-0.2-1.3c-3.4,0.2-2.1-2-1.6-3.4c1.2-3.2,3.6-4.9,7-5.2c3-0.3,5,1.3,5.1,4.3
		c0,1.8,0.4,1.7,1.7,1.1c1.4-0.7,2.2-0.2,2,1.3c-0.3,2.6,0.6,2,2,1.1c2.8-1.9,4.8-1,5.2,2.4c0.2,1.9-0.4,3.4-2.1,4.4
		c1.2,1.3,2.6,0.2,3.7,0.9c0.4,0.2,1,0.2,1.3-0.3c0.3-0.6-0.1-1-0.5-1.2c-1.7-1.1-0.7-2,0.2-2.8c1.4-1.1,2.8-1,4,0.4
		c0.5,0.6,0.9,2,1.9,1.5c0.9-0.4,0.4-1.6,0.4-2.5c0-1.5,0.1-3.1,0.7-4.6c1.1-2.5,3.9-4.1,6.2-3.4c2.6,0.7,4.8,2,4.3,5.4
		c0.7-0.1,1.4-0.3,2-0.4c0.6-0.1,1.5,0.5,1.8-0.4c0.3-1-0.7-1-1.2-1.4c-1-1-0.7-1.8,0.4-2.4c1.2-0.5,2,0.2,2.8,1.1
		c0.6,0.9,1.2,1.3,2,0.2c2.6-3.2,3.2-3.3,7.1-1c1.6,1,2.1,0.7,2.6-1.1c1.1-4.9,4.1-5.8,7.9-2.2c0.7,0.6,1.1,1.9,2.9,1.6
		c-1.3-2.7-3.1-4.4-5.7-5.2c-1.2-0.4-2.9-0.2-2.4-2.2c0.4-2,1.8-2,3.4-1.5c1.6,0.6,2.5,0.6,2.7-1.7c0.3-4.3,2.2-6.4,4.9-6.8
		c3-0.5,6,1.5,7.8,5.1c0.3,0.6,0.4,1.3,0.7,1.9c0.9,1.6,0.5,2.7-1.6,3.2c1.5,0.9,2.6,1.5,3.6,2.1c0.2,0.1,0.9,0.2,1.1,0
		c0.5-0.3,0.3-0.9-0.1-1.2c-1.3-1.1-0.2-1.8,0.4-2.7c0.5-0.6,1.3-1,2.1-0.6c1.2,0.4,1.4,1.5,1.4,2.7c-0.1,1.4-0.6,2.5-1.7,3.3
		c-0.7,0.6-1.5,1.4-0.6,2.2c0.7,0.7,1.4-0.3,1.9-0.7c1-0.7,1.7-0.7,2.7-0.1c1,0.7,1.3,1.8,1,2.9c-0.3,1-1,1.8-2,2.4
		c-0.5,0.3-1.1,0.7-0.9,1.4c0.2,0.6,0.9,0.5,1.5,0.5c0.5,0,1.1,0,1.5,0.1c1.7,0.4,2.7,1.5,3.1,3.2c0.4,1.9-1.2,1.9-2.2,2.5
		c-2.4,1.2-3.4,3.2-3.4,5.8c-0.1,2.9,1.4,4.7,3.9,6.1c1,0.4,2.1,1,2.6,0c0.5-1.2-1.1-0.7-1.6-1.1c-2.7-1.5-4-4.1-3.1-6.6
		c0.9-2.6,2.7-4,5.4-3.6c2.7,0.3,4.4,1.7,4.1,4.8c1.2-0.4,1.7-1.7,3-1.4c0.3,0.1,0.9-0.2,0.7-0.6c-0.1-0.3-0.4-0.7-0.7-0.7
		c-2.7-0.4-2.5-2.4-1.9-4.1c0.6-2,2.5-2.7,4.5-2.5c1.7,0.2,3.1,1.2,4.2,2.6c0.4,0.5,0.6,1.4,1.5,1.1c0.9-0.3,0.3-1.2,0.2-1.8
		c-0.1-1.2,0.2-2.2,1.2-2.9c1.1-0.7,2.1-0.3,3.3,0.1c1.6,0.6,1.7,2.2,2.7,4.1c0.3-2.2,2.5-1.8,3.1-3.5c-1.6-0.2-3-0.5-3.1-2.5
		c-0.1-1.2,0.1-2.4,1.2-3.1c1.3-0.9,2.6-0.7,3.7,0.4c1,1,1.6,0.5,1.8-0.6c0.5-2.5,1.9-4.2,4.5-4.5c2.6-0.4,4.3,1.1,5.6,3.1
		c0.9,1.3,1.5,2.2,2.7,0.3c0.9-1.4,2.2-1.6,3.6-1.2c1.6,0.5,2.6,1.7,2.9,3.4c0.1,0.9,0.2,1.7-1.1,1.6c-3.9-0.3-5.7,4.8-9.8,3.5
		c-0.1,0-0.3,0.2-0.4,0.3c-1,1.8-2,1.9-3.7,0.7c-1-0.7-2.5-0.5-3.7-0.2c-2.7,0.7-4.1,4.8-2.2,6.7c0.4,0.4,1.1,1.1,1.7,0.5
		s-0.1-1.1-0.4-1.5c-1.1-1.6-0.5-3,0.7-4c1.3-1,2.8-1,4.1,0.1c1.3,1,2,2.4,1.8,4.2c1.4-0.4,2.6-0.9,4.4-1.4c-2-0.9-3.2-1.8-1.9-3.6
		c1.3-1.7,2.4-1.1,3.7,0c1.5,1.1,1.5-0.4,1.8-1.3c0.7-1.8,1.9-3,4.1-2.8c1.9,0.2,2.9,1.5,3.4,3.2c0.2,0.6-0.2,1.8,1,1.8
		c1.1,0,0.9-1.2,1.2-1.8c0.7-1.2,1.5-2.4,3.1-2.4c1.7,0,2.9,0.7,3.5,2.2c1.1,2.1,1.6,4.4-0.6,6.4c1.5,0.2,2.7,0.3,4,0.5
		c1.1,0.2,1.3-0.7,0.7-1.2c-1.2-1-0.9-1.7,0.1-2.6c1.2-1,2.4-0.9,3.5-0.1c0.6,0.4,1,1.5,1.9,1.6c1.7-5.8,5.2-7.6,10.2-5.6
		c2.1,1,3.9,2.5,5.1,4.4c0.9,1.4,1.5,1.5,2.1-0.1c0.2-0.7,0.6-1.4,1.4-1.8c1.4-0.7,2.7-0.5,3.7,0.6c1.2,1.2,0.1,1.8-0.7,2.6
		c-1,0.9-1.6,1.9-1.6,3.1c0.1,2.5-0.9,3.1-3.2,2.8c-1.4-0.2-2.7,0.9-3.3,2.1c-1.1,2.1-0.3,3.9,1.8,4c-1.1-1.5-1.4-3,0.3-4.1
		c2-1.3,4.1-0.5,5.2,1.2c1,1.3,1.5,1.6,2.7,0.5c0.4-0.4,1.2-0.5,1.8-0.9c0.7-0.4,2.2,0,1.9-1.3c-0.3-1.3-1.6-0.6-2.6-0.4
		c-0.9,0.1-1.6,1.3-2.6,0.1c-1.1-1.3-0.7-4.8,0.6-6.1c1.6-1.5,3.2-1.1,4.8,0c0.4,0.3,1,0.7,1.4,1.1c1.3,1.1,2.2,1.3,3-0.7
		c1-2.7,3.2-2.9,4.5-0.4c1,1.8,1.3,1.3,2.2,0.1c2.2-2.8,5.5-3.6,8.8-2.5c3.2,1.1,5.7,4.2,6,7.4c0.1,1.3-0.1,1.9-1.5,1.8
		c-0.5,0-1,0.3-1,0.9c0,0.2,0.4,0.6,0.5,0.6c1.7-0.3,3.2,1.5,5.4,0.4c-1.6-1.3-1.5-2.7-0.4-4c1.2-1.3,2.8-1.6,4.4-1
		c1,0.3,1.7,1,2.1,1.9c0.2,0.6,0.6,1.3,1.5,1c0.7-0.3,0.3-1.1,0.3-1.6c-0.1-1.6,0-3.1,0.7-4.6c1.4-2.7,4.3-4,7.3-3.2
		c2.4,0.6,4.2,1.7,3.1,4.9c1.8-0.7,3.2-1.7,4.8-1.6c0.5,0.1,1.1-0.2,1-0.9c-0.1-0.5-0.5-0.7-1.1-0.9c-3.3-0.9-4.5-2.5-4.4-5.6
		c0.2-3.6,3.2-5.2,6.3-3.5c1.5,0.9,2.4,2.2,3.2,3.7c0.6,1.2,1.5,1.7,1.9,0.1c0.4-1.7,1.3-2.7,3-2.6c1.8,0.1,3,1.2,3.9,2.8
		c1.7,3.4,1.7,3.4,4,0.2c0.2-0.2,0.3-0.5,0.5-0.7c2.6-2.6,5.6-4.1,9.1-3c3.4,1.1,4.4,3.9,4.6,7.2c0.1,1.2-0.1,2.1-0.2,3.2
		c-0.1,1.8,0.1,2.6,2.2,1.7c2.1-1,3.7,0.3,3.9,2.1c0,1.3-1.8,1.2-1.6,2.5c0.2,0.1,0.3,0.3,0.5,0.3c3.3,0.7,3.3,0.7,3.4-2.1
		c0-0.1,0.1-0.2,0.1-0.3c0.6-2.9,2.8-4.4,5.6-5c2.7-0.7,5.2,0.5,6.4,2.9c0.3,0.6,0.2,1.7,1.3,1.7s1-1.2,1.3-1.8
		c1.7-3.3,4.1-3.5,5.9-0.6c0.4,0.5,0.5,1.2,1.3,0.9C657.3,551.6,657,550.9,656.7,550.2z"/>
</g>
<path id="vn_1_" class="st3" d="M865.4,574.9l-8.5-56.4v-36.4l-2-51.2l2-51.2l-12.8-175.8l6.4-144.2l-30.6,0.6l-0.7,23.1
	c-9.4,4.4-20.7,4.7-30.2,8.7c-2.8,1.2-5.4,2.7-7.7,4.6c-1.6,1.3-3,2.9-4.8,3.9c-2.3,1.4-5,1.8-7.6,2.1c-9,1.1-17.9,2.5-26.8,4.4
	c-1.5,0.3-3,0.7-4.4,1l1.8-37.7l-77.2,2.8l-28.8,2.6l-291.3,2.6L281,85.1l-3.1,32.3c-10.6-6.1-23.2-8.7-34.8-12
	c-16.2-4.5-32.4-9-48.6-13.6l0.8-18.9l-30,10.4L158,481.9v222.5l4.5,18.8l24.5,5.1l-2.7-139.4l-2.3-208L194.4,93
	c15.5,4.3,30.9,8.6,46.4,13c12.2,3.4,25.7,6.1,36.9,12.6l-2.3,24.4l-3.1,52.8l2.1,123.2l-0.3,87l-2.2,34.5l-0.6,30.5l-1.4,24.1
	l2.7,32.8l3.3,63.6l-8.5,89.3l4,8.6l56.3,9.4h58l60.5,6.9l40.7,6l31.5,0.3l150.2,9.3l87,8L753,606.8l-8.8-96.1v-64.8l-1.9-33.4
	l-2-63l-0.9-114.7l-5.7-41.4l3.9-84c10.3-2.5,20.7-4.3,31.3-5.6c3.5-0.4,6.7-1.1,9.5-3.3c3.1-2.4,5.7-4.9,9.2-6.6
	c6.5-3.2,13.7-4.3,20.7-6c3.7-0.9,7.4-1.9,10.9-3.5l-2.7,86.3l6.5,181.6l8,208.1l14.4,169l22.9,6.5l2.6-6.5L865.4,574.9z
	 M684.2,628.1H320.9V159.4h363.3V628.1z"/>
<path id="vi_1_" class="st2" d="M684.1,392.5c1.3-22.8,1.7-45.6-0.2-68.3c-1.2-14.3-3.7-28.4-3.5-42.9c0.3-16.4-0.4-32.8-0.5-49.2
	c-0.2-17.1,0.7-34.2,2.5-51.3c1.6-15.3,2-30.7,0.4-46.8c-2.5,3.3-4.9,6.6-7.1,9.9c2.9-7.4,5.8-14.9,8.8-22.7
	c-17.8-0.2-34.6-0.6-51.1-4.4c-16.2-3.7-32.7-4.5-48.9-2.4c-33.9,4.3-67.7,2-101.4-0.5c-31.1-2.3-62.1-5.7-93.4-2.3
	c-15.4,1.6-30.7,6.6-46.1,7.2c-7.6,0.3-15.2,1.5-24.3,2.4l0,0c2.4,4.8,4.7,9.4,6.8,14c-0.6-0.8-1.3-1.6-1.9-2.5
	c-0.3,2.8-0.5,4.2-0.5,5.6c0.6,32.5-4.5,64.8-2.4,97.3c1.1,17.7-0.9,35.3-2.7,52.9l-1.2,18c-0.2,4.7-1.3,55.3-1.4,60
	c1,21.7,0.8,43.4,0.9,65.1c0.2,31.6,1.7,63.1,2,94.6c0.2,24.8-0.7,49.6-0.8,74.4c0,11,1,22,2.7,34.7c3-5.7,5.3-9.9,7.6-14.1
	c3-5.6,6.5-10.9,11.4-14.7c2.7-2.1,3.5-3.8,3.5-7c0.6-40.5-1.2-80.9,0.4-121.4c0.1-1.9-0.2-3.7-0.3-5.5c-0.5-11.8-2.3-23.7-1.4-35.4
	c1-12.6,2.1-25,2.6-37.6c0.8-22.4,2.1-44.8,2.3-67.2c0.3-28.4,1.8-56.8,2.7-85.2c0.3-8.7-1.7-17.5,0.2-26.2c1.4-6.5,1.4-13,1.4-19.6
	c-0.1-9.7-0.6-19.3,1.1-28.9c0.2-1.1,0-2.1-0.5-3.1c-0.3-0.5-0.6-1.1-0.9-1.6c11.5,1.1,23,2.4,34.5,2.8c13.6,0.6,27.3-1.2,41-3.7
	c17.2-3.2,34.2,1,51.3,0.2c34.1-1.6,68.1-1.1,102.2-1.7c14.8-0.2,29.6,0.9,44.5,0c13.2-0.8,26.6-4,39.7,0.3c-0.4,0.6-0.8,1-1.4,1.2
	c-3.5,0.8-2.5,3.1-2.3,5.4c1.2,12.3,0.8,24.7,0.8,37.1c0,21.1-4.8,41.7-4,62.7c0.4,10.7,1.3,21.5,1.7,32.2c0.7,19-1,37.9-2.2,56.8
	c-1.9,29.5-1.6,59.1-1.5,88.6c0.1,7.1-0.7,14.5,1.7,21.1c1.5,4.3,1.6,8.1,1,12.2c-1.4,10-0.8,20-0.4,30c0.6,12.4,1.2,24.7,0.4,37.1
	c-0.1,1.6-1,3.5,0.8,4.5c3.4,2,2.3,5,1.3,7.6c-1.1,3-1.5,6-1.6,9.1c-0.3,12.9-2,25.4-7.5,37.1c-0.6,1.2-0.4,2.1,0.2,3
	c1.8,2.9,3.5,5.8,5.3,8.6c-1.1,1.6-2.4,3-3.8,4.2c-0.1-0.2-0.2-0.4-0.3-0.5c-3.6-8.2-7.9-12.9-16.8-8.6H635
	c-19.9-1.1-39.7,3.5-59.6,1.3c-4.6-0.5-9.5-0.3-13.9,1.4c-8.7,3.4-17.6,3.4-26.6,2.2c-5.8-0.8-11.7-2-17.5-1.9
	c-23.8,0.4-47.1-4.4-70.6-6.7c-16.2-1.5-32.1-5.5-48.5-4.6c-15.4,0.8-30.8,1.1-46.2,0.4c-2.3-0.1-4.3,0.5-6.3,1.9
	c-10,6.9-13.5,18.5-19.7,28.6c10.6,1.5,20.5,2.4,30.5,2.7c31.8,0.9,63.6,1.3,95.4,3.4c40,2.6,80.2,2.6,120,8
	c9.8,1.3,19.8,1.2,29.4,3.3c26.3,5.7,53,3.7,80.6,5.2l0,0c-4.9-8.3-9.5-15.2-15.9-20.5c-5.1-4.1-10.1-8.7-13.1-14.6
	c1.5-1.2,2.8-2.7,3.9-4.3c3,4.5,6.2,8.7,10.5,12.1c5.4,4.3,10,9.5,15,16.7c0-23.4,0.4-45.1-1.8-67.1c-1.9-18.1-3-36.3-0.3-54.4
	c1.2-7.6,1.3-15.1,0-22.7c-0.4-2.3-0.4-4.7-0.6-7.1c-1.2-15.1-0.4-30.2,0.6-45.3C681.8,432.9,683,412.7,684.1,392.5z"/>
<path id="va_1_" class="st1" d="M836.8,686.9c0.4-25.6-1.2-50.9-4.5-76.2c-1.8-13.8-1.7-28-3.3-41.8c-2.1-18.1-3.3-36.1-2.7-54.4
	c0.7-19.3,0.4-38.6-1.3-57.9c-1.5-17.3-3.7-34.6-2.9-52.2c0.8-16.4-1.6-32.7-2.7-49c-1.3-19.8-1.3-39.7-0.3-59.5
	c0.7-13.7,0.8-27.5-1-40.9c-2.4-17.9-4-35.7-3.7-53.8c0.1-10.1-0.4-20.1-0.6-30.1l0.9-20.2c0.8-11.4,0.3-22.9,1.1-34.4
	c1.2-16.9,1.6-33.9,2.4-50.8c0.2-3.7-1.4-3.5-3.7-2.3c-3.9,2.1-8,3.8-11.4,6.5c-9.8,7.9-20.9,12.8-32,17.9
	c-15.1,6.9-30.4,13-44.1,23c-3.6,2.6-7.3,5-11,7.3c-5.1-2.4-10.6-3.8-16.2-4.7c-1.8-1.6-3.4-2.9-3.9-5.3c-0.5-3.1-2.1-3.5-4.7-3.7
	c-6.6-0.4-13.1,0.6-19.7,0.9c-19.7,0.8-39.3-1.8-59.1-1c-32.2,1.3-64.3-0.8-96.5,0.8c-31.5,1.6-63.2,0-94.9,0.7
	c-4.5,0.1-9-0.2-13.5,0.1c-22.1,1.6-43.9,5.3-66,6.7c-10.9,0.7-21.7,3-32.6,4.6l0,0c0,0.6,0.1,1.2,0.3,1.7c1.8,0.4,3.4,1,5.1,1.6
	c-2.7,1.3-5.2,2.8-7.7,4.5c-1-0.4-2-0.9-3-1.4c-17.6-9.2-36.2-15.6-54.4-22.8c-4.5-1.8-9.1-3.1-13.9-4.1
	c-11.4-2.3-23.2-3.5-33.9-9.2c-4.9-2.6-5.8-2-6.2,4c-1.2,16.7-2.8,33.5-3.2,50.2c-0.7,31-2.6,61.9-3.2,92.9
	c-0.6,30.5-0.8,60.9-1.2,91.4c0,5.5-0.1,11-0.5,16.4c-1.7,21.3-2.7,42.6-2.5,63.9c0,0-0.1,10.4-0.1,11.1c0,2.6-0.2,5.1-0.2,7.7
	c0.1,19.5,2.7,38.9,2.4,58.4c-0.2,12.3-0.8,24.6,0.1,36.7c2.2,29.1,3.7,58.2,3.6,87.3c0,3.8,0.3,7.6,1,11.4
	c1.7,9.1,4.5,18.1,1.9,27.5c-0.3,1.2,0,2.5,0.2,3.8c0.8,5.3,0.8,10.6-0.3,15.8c-3.2,14.8-1.5,29.8-1.5,44.7c0,2.2,0.7,4.4,1.2,7.1
	c4.9-2.8,9.3-5.3,13.7-7.8c20.8-12,41.4-24.3,61.6-37.4l0,0c0,0.1,6.9-4,6.9-4s4.3-2.1,6.5-3.1c11-5.1,21.3-11.3,31.5-17.9
	c0.2-0.1,0.4-0.3,0.6-0.4c1.4,0.7,2.7,1.3,4.1,2L301.1,661l107.6,9.9l94.3,8.6l84.1,7.7l96.5,1.1l38.2,0.5l-26.6-23.4l-87.9-6.6
	l-116.7-12l-165-3.2l-6.8,4.8c-1.4-0.6-2.7-1.3-4.1-1.9c3.1-2.2,4.8-4.2,0.9-8.5c-0.8-0.9-1-2.7-1.1-4.1c-1-10.9-2.4-21.7-2.6-32.6
	c-0.6-27.9,2-55.8,0.6-83.7c-0.8-16.5-2.4-33-2.2-49.6c0.4-23.3,0.6-46.7,0.7-70c0-9.1-0.2-18.2-0.8-27.3c-1.2-17.7-0.3-35.3,0.1-53
	c0.6-25.5,5.8-50.6,5.1-76.2c-0.6-24-0.1-48.1,2.4-72.1c1.3-12.2-0.5-24.5,1.5-36.6c0.4-2.4-1.1-3.2-2.7-3.9c-2.9-1.2-6-2.3-9-3.5
	c2.6-1.7,5.2-3.2,8-4.4c3.4,1.3,6.9,2.5,11.1,2.7c29.1,0.7,58-3,87-3.1c10.7,0,21.4,0.3,32.1,0.3c7.3,0.1,14.5,0.7,21.7,1.3
	c19.1,1.7,38.3,2.8,57.5,1.5c13.1-0.8,26-3.7,39.2-3.3c38.5,1.1,77.1-0.3,115.6,1.8c8.1,0.5,14.7-3.9,22.4-6.1
	c-0.4-0.5-0.8-1-1.2-1.4c4.8,0.9,9.5,2.1,13.9,4.1c-5.8,3.4-11.9,6.4-18.1,9c-7.8,3.3-8,3.2-7.7,12c0.9,23.2-2.3,46.2-2.6,69.3
	c-0.6,38.9-1.1,77.9,3.3,116.8c3.5,30.4,0.4,71.1-2.2,101.6l-0.3,22.2c-3.1,11.8-1.8,24-2.1,36l0.7,12.4c0.8,9.8,1.6,19.6,0.8,29.4
	c-0.6,7.9-1.5,15.7-1.7,23.7c-0.4,18.8,2.6,37.3,3.5,56v8.9c-1.3,8,0.2,24.1,0.2,24.1l0.7,14.6l2.1,6.4l4.1,2.4v0.1l10.2,3.5
	l9.5,2.8c4.4,1.6,8.8,3.3,13.2,4.9l12.6,4.3l3.1,1.1l3.3,1.2c14.4,4.6,28.5,9.9,41.6,17.8l23.5,11.2c8.2,5.5,17.7,7.7,27.2,12.8
	C838.7,710.4,836.6,698.6,836.8,686.9z M294.1,476.8c-0.6,17-0.5,33.9-0.7,50.9c-1.5,32.4-2.4,64.9-1.8,97.2c0,4.1-1.4,6.5-4.7,8.8
	c-14.9,10.4-29.8,20.7-46.5,27.5c-5.5,2.2-11.1,3.9-16.7,5.8c-2.7,0.9-4.5,0-5-3c-0.3-1.4-0.6-2.9-0.5-4.3c1.1-19.6-3.5-38.7-5-58.1
	c-1-12-0.8-24,0.1-36c1.2-16.7,1-33.4,1-50.1c0-13.5,0.2-27.2,0.9-40.8c0.6-13.3-1.1-26.4-3-39.6c-2.7-18.9-3.1-38.1-3.4-57.2
	c-0.1-3.3,1.8-3.9,4.3-4.1c7-0.5,13.9,0.1,20.6,1.7c16.9,4,34,5,51.3,4.9c7.3-0.1,7.9,0.7,7.9,8.4
	C293.1,418.1,295,447.4,294.1,476.8z M295,164.7c-1.2,23.8-1,47.7-3.6,71.5c-2.9,27.1-1.6,54.3-1.3,81.5c0.1,9.3-0.1,18.6-0.2,27.9
	c0,4.1-1.4,6.4-5.9,6.1c-6.4-0.4-12.8-0.2-20.3-0.3c-12.7,1.1-26.1-1.6-39.5-4c-4.7-0.9-9.6-1.3-14.4-1.7c-3.6-0.3-4.8-2.1-4.7-5.7
	c1.3-32.1-0.3-64.2,0.4-96.3c0.3-15.1,1.4-30.1,3.9-45.1c1.6-9.8,1.5-20,1.9-30c0.7-16,3.9-31.8,3.9-47.9c0-7.5,2-8.2,8.9-5.6
	c18.9,7.1,37.3,15.5,55,25.3c4.8,2.6,9.1,6.4,13,10.3C295.8,154.4,295.2,159.9,295,164.7z M708.2,354.3c3.7-18.3,5-36.8,4.9-55.4
	c-0.1-12.2-2.1-24.3-2.6-36.5c-0.5-12.2-0.1-24.4-0.5-36.6c-0.3-11.8-0.1-23.6-1.6-35.4l-0.8-13.4c0-0.3,0.1-0.5,0.1-0.8l0.2-13.4
	c0-2.3,0.1-4.7-0.1-7c-0.2-3.9,1-6.6,4.5-8.4c11.9-6.2,23.7-12.7,35.5-19l17.4-10l9-5.2c0,0,10-5.8,15.1-8.4c5.7-3,7.8-1.7,7.3,4.9
	c-0.8,11.2-2.3,22.3-3,33.5c-0.5,8.3-0.6,16.7-0.3,25.1c0.3,10-0.4,20-0.4,30c0,16.1-2.1,32.3,2.1,48.2c2.1,7.6,1.9,15.5,2.2,23.3
	l0.4,12.1c-0.7,7.6,1.2,14.9,2.2,22.2c1.6,11.5,0.4,22.9,0.7,34.3c0.1,3.4-1.1,5.1-4.8,5.5c-6.1,0.6-12.2,2-18.3,3.1
	c-0.5,0.2-0.9,0.4-1.3,0.6l0.2,0.1c0.1,0-13.8,2.7-13.8,2.7c-11.6,0.3-22.4,4-33.4,7.3c-5.3,1.6-10.7,2.5-16.3,2.6
	C708.6,360.3,707.3,358.9,708.2,354.3z M806.6,671.6c-2.4,1.1-3.8-1.2-5.2-2.6c-3.3-3.1-6.9-5.5-11.3-6.2l-0.5-0.2
	c-15.4-2.3-30-8.2-45-12c-8.3-2.1-16.5-5.1-24.1-9.6c-2.7-1.6-4.7-3.4-4.2-6.8c3.2-21.1,0.7-42.2,1.1-63.3
	c0.2-9.6,3.2-18.8,4.2-28.2c1.1-10.9,2-21.9-0.4-32.8c-4.1-19-4.3-38.3-5.5-57.5c-0.9-15.8-3.2-31.5-2.7-47.4
	c0.1-2.9-4.5-5.6-0.8-8.1c2.2-1.5,5.3-1.3,8-1.9c0.3,0,0.7-0.1,1-0.2l18.8-5.6c8.9-1.6,18-1.8,26.4-5.8l30.4-7.2
	c3.2,0.9,4.3,2.9,4.2,6.4c-0.4,14.9-0.5,29.7-0.8,44.6c-0.1,7.8,0,15.6,1,23.3l3.1,35.8l2.9,18c0.9,8.5,1.4,17,1.3,25.6
	c-0.5,29.2,0.4,58.3,0.3,87.4c0,16.1-0.2,32.1,0,48.1C808.8,667.7,809.1,670.4,806.6,671.6z"/>
<path id="trazo_1_" class="st0" d="M874.1,714.6L874.1,714.6c-1.5-12.5-3.9-24.9-3.7-37.5c0.5-33.4,0-66.8-2.7-100.1
	c-1.2-15.3-1.5-30.7-5.1-45.6c-3.5-14.5-4.3-29.1-3.9-43.9c0.3-10,1.2-20.1,0.7-30.1c-0.7-14.7-2.1-29.4-0.5-44.2
	c2.2-20.8-0.6-41.5-1.7-62.3c-1.8-35.1-3-70.3-5.4-105.4c-0.4-6-0.2-12.1-1.1-18c-4.5-32.3-3.5-64.8-2.2-97.2c1-23.5,2-47,1.8-70.5
	c0-1.6,0.9-3.9-1.8-4.3c-9.3-1.2-18.7-0.6-28.1-1c-10.1,2.4-18.7,8.1-27.3,14C776.6,80,757.6,86,739.4,94.4
	c2.3-4.5,0.9-9.1,1.9-13.6c2.4-11.4,1.6-12.2-9.4-11.9c-0.7,0-1.4,0-2.1,0.1c-25,2.4-50.1,2.6-75.2,2.3c-2.4,0-4.9-0.1-7.2,0.4
	c-20.4,4-40.9,4.3-61.5,4.2c-34.9-0.2-69.9-1.2-104.8-1.5c-16.9-0.2-33.9,0.5-50.9,0.3c-24-0.3-48,2.2-72.1,1.8
	c-8.6-0.2-17.4-1.2-25.9,0.8c-14.2,3.4-28.5,5.5-42.8,8.5c-2.4,1.3-4.9,2-7.5,2c-0.3-0.1-0.5,0-0.6,0.3c-0.2,1.7-1,2.7-2.8,2.4
	c-0.3,3.1-1.2,6.2-0.9,9.2c0.5,6-2,5.8-5.8,3.7c-0.9-0.5-1.9-0.9-2.9-1.3c-15.8-6.3-31.3-13.6-48.4-15.5c-7.8-0.8-14.8-4.8-22.1-7.7
	c-2-0.8-3.2-2.4-3.3-4.5c-0.2-4.6-2.7-4.7-6.1-3.9c-5.8,1.3-11.1,4.1-16.6,6.2c-7.1,2.7-9.5,8.4-7.2,15.9c0.5,1.5,0.8,3.3,0.6,4.8
	c-1.2,9.2,0,18.4-0.2,27.6c-0.5,28.2,1.3,56.6-2.1,84.7c-3.2,25.9-3.9,52-3.9,78c0,22.6,1.8,45.3,0.6,67.8
	c-1.6,29.1-0.8,58.4-4.5,87.4c-2.7,21-0.9,42.2-0.8,63.4c1.9,3.5,1.7,7.5,1.7,11.2l-2.2,138.7c-0.3,20.6-1.8,41.1,1,61.6
	c0.9,6.8,7.9,7.8,9.9,13.3c0.1,0.2,1.1,0.2,1.4-0.1c4.6-2.8,9.8-1.9,14.6-2.9c2.3-0.4,4.2-0.9,5.8,1.8c1.4,2.3,2.9,0.8,4.6-0.6
	c2.2-1.8,1.4-5.1,4-6.4c15.8-8.1,30.7-18,46.2-26.9c0,0,12.5-7.8,17.7-11.1c2-1.3,3.1,0.6,4.4,1.5c1.1,0.7,3.3,1.7,3.3,1.7
	c-1.8,5.3,1.1,5.6,4.4,5.9c10.1,1,20.3,0.8,30.5,2.4c26,4.2,52.4,4.1,78.4,7.7c27.4,1.8,54.9,3.2,81.9,9.4c3.2,0.5,6.5,0.8,9.7,1.4
	c22,3.6,44.1,2.3,66.1,2c22.3,0.8,44.5,2.3,66.6,4.8c16.5,1.8,33.1,2.6,49.7,2.9c9.5,0.2,18.9,1.4,28.1,3.6
	c14.9,2.3,30,1.4,44.9,2.9c9.4,0.9,18.8,3,28.3,3.1c3.4,0,2.7-2.9,3-15.4c2.6-5.2-2-21.1,0.9-26.1c2.3-4,23.4,11.6,25.5,11.9
	c12.6,7.1,25.4,13.6,38.9,18.5c6.3,2.3,12.5,5.1,17.9,9.4c5.4-0.9,8.4,4.4,13,5.5c3.2,0.7,6.4,1.6,9.7,1.4c3.1-0.3,7.2-1.5,7.6-4.1
	C874,728.7,875,721.7,874.1,714.6z M730.8,81.1c1.2,2.7,0,4.8-0.6,7c-0.6,2.3-2.1,4.8-1.1,6.9c2.6,5.3-0.8,6.9-4.1,9
	c-5.9,3.7-11.9,7.2-18.4,10c-1.1-4.6,0.5-9-1-13.2c-0.5-1.3,0.7-2,1.5-2.6C714.9,92.5,722.8,86.8,730.8,81.1z M289.3,91.9
	c0.8-1.6,2.8-0.5,4.2-0.9c6.6-2,13.4-2.7,20.1-4.1c10.4-2.2,20.9-2.6,31.5-2.7c17.8-0.2,35.4-3.1,53.2-3.5
	c13.3-0.3,26.6-0.7,39.9-0.6c32.4,0.1,64.7,0.1,97.1,1c15,0.4,30.1,1.2,45.1,1.3c24,0.1,48-1,71.9-4.5c1.2-0.2,2.3-0.5,3.4-0.8
	c11.1,0.1,22.2,0.2,33.3,0.4c11.2-0.5,22.4-1,33.5-1.5c1.2-0.1,2.7-0.3,3.2,1c0.5,1.5-1.1,2.1-2,2.7c-3.9,2.7-7.8,5.3-11.7,7.9
	l-6.4,4.2c-3.9,4.9-8.4,7.1-14.8,6.8c-11.7-0.5-23.5,1.8-35.2,1c-18.1-1.2-36.3-1.6-54.4-1.1c-23.2,0.7-46.4-1.4-69.5,0.1
	c-36.3,2.4-72.6,0.6-108.9,1.8c-23.2,0.8-46.1,3.9-69.1,6.1c-13.2,1.3-26.3,3.7-39.6,4.6c-2.6,0.2-4.7-0.5-6.3-2.7
	c-2.3-3.1-5.7-4.7-8.9-6.5c-2.7-1.6-5.4-3.4-7.4-5.9C290.3,94.8,288.4,93.6,289.3,91.9L289.3,91.9z M713.4,685.9
	c0.8-0.3,0.5-0.2-0.2,0.1C713.3,686,713.3,686,713.4,685.9c-0.1,0-0.1,0.1-0.2,0.1c-1.1,0.5-3.5,1.4-4.5,1.3
	c-31.8-2-63.6-1.7-95.4-1.6c-18.2,0.1-36.2-1.9-54.2-3c-11.5-0.8-23.1-1.4-34.6-3c-21.6-2.9-43.4-2.9-64.8-6.7
	c-11-2-22.3-2.7-33.5-3.3c-23.1-1.3-46.1-3.2-69.2-4.7c-17.4-1.1-34.8-2-53.3-3c4.6-3.6,8.6-6.3,12.9-8.4c1.9-1.6,3.3-4,5.9-4.4
	l31.6-2.9c9,0,37.5,1.6,37.5,1.6c29.4-0.3,58.8,1.3,88.2,3c14.2,0.8,28.3,2.2,42.4,2.5c19.9,0.4,39.5,3.8,59.3,5.7
	c20.8,1.9,41.3,7.4,62.4,6.7c8.7-0.3,17.5,0,26.3,0.4l20.9,9L713.4,685.9z M318.8,526.1c-0.3-31.5-1.8-63-2-94.6
	c-0.1-21.7,0.1-43.4-0.9-65.1l1.4-60l1.2-17.8c1.8-17.6,3.8-35.2,2.7-52.9c-2.1-32.5,3-64.8,2.4-97.3c0-1.4,0.2-2.8,0.5-5.6
	c9.8,12.9,20.6,23.2,27.6,36.7c0.5,1,0.7,2,0.5,3.1c-1.7,9.6-1.2,19.2-1.1,28.9c0,6.6,0,13.1-1.4,19.6c-1.9,8.7,0.1,17.5-0.2,26.2
	c-0.9,28.4-2.4,56.8-2.7,85.2c-0.2,22.4-1.5,44.8-2.3,67.2c-0.5,12.6-1.6,25-2.6,37.6c-0.9,11.7,0.9,23.6,1.4,35.4
	c0.1,1.8,0.4,3.6,0.3,5.5c-1.6,40.5,0.2,80.9-0.4,121.4c0,3.2-0.8,4.9-3.5,7c-4.9,3.8-8.4,9.1-11.4,14.7c-2.3,4.2-4.6,8.4-7.6,14.1
	c-1.7-12.7-2.7-23.7-2.7-34.7C318.1,575.7,319,550.9,318.8,526.1z M652.6,313.8c-0.3,15.1-0.5,30.2-1.4,45.3
	c-1.3,21.1-3.7,42.2-1.8,63.3c0.1,1,0.1,2,0.1,3c-1,32,1.4,63.9,2.2,95.9c0.2,8.5,0.3,17.1,0.3,25.7c0,1.4-1.2,24.6-1.3,26.5
	c-0.5,11.5-3.8,22.1-10.1,31.5l0,0c-1.5,2.2-3.7,3.6-6.6,3.9c-10.3,0.8-20.6,2-31,1.8c-5.4,1.8-10.8,2.2-16.2-0.2
	c-0.1-0.1-0.3,0.1-0.4,0.1c0.1,0.2,0.1,0.4,0.2,0.6c-12-1.9-23.8-0.7-35.5,1.9c-6,1.3-12.2,2.1-18,0.8c-10.1-2.2-20.3-2.3-30.4-2.2
	c-15.1,0.1-29.8-3.2-44.7-5.3c-7.7-1.1-15.4-1.8-23.2-2.2c-2.9,0.3-5.7,0-8.4-1.1c-1.4-0.1-3.2-0.2-3-1.2c-0.5,0.1-1,0.2-1.5,0.2
	c-1.8,0-3.1-0.8-3.9-2c-0.7,0.3-1.4,0.6-2.4,0.6c-0.5,0-1-0.1-1.5-0.2c-18.8,0.1-37.6,0.7-56.2-4c-9-2.3-9.1-2.1-9.3-12.1
	c-0.1-5.3-1.4-10.8,1.3-15.9v-3.6c-0.2-3-0.4-5.9-0.6-8.9c-1-23,0.2-45.9,0.2-68.9c0-11.1-1.5-35.1-1.5-35.4c0-4.4-0.7-8.3,0.3-12.4
	c0-2.3,0.4-10.8,0.6-11.9c0.7-2.9,1.4-19,1.4-19.2c0-20.1,0.1-40.2,1-60.2c1.1-26.2,1.9-52.4,3.8-78.6c0.9-12.6,0.8-25.2-1.1-37.7
	c-0.5-3.4-0.1-6.7,0.8-10.2c2.6-10.4,3.5-21.2,4.7-31.8c0.1-0.9,0-1.8,0.1-2.7c0.9-13.4,1.3-13.5,13.7-13.9
	c12.1-0.4,24.2,1.2,36.2-0.6l37-1.4h0.4c0,0,5.4,0.1,5.4,0.2c0,0,16.7,1,25.3,0.9c43.5-0.6,86.9-1.1,130.4-1.9
	c12.2-0.2,24.3-1.2,36.4-2.2c7.6-0.7,10.9,1.9,11,9.8c0.2,14.2,0.2,28.5-0.9,42.7c-1.2,15.1-2.7,30.1-3.6,45.2
	C650,281.8,652.9,297.7,652.6,313.8z M665.9,639.8c6.5,5.4,11.1,12.2,16,20.6c-27.6-1.5-54.3,0.5-80.6-5.2c-9.6-2.1-19.6-2-29.4-3.3
	c-39.8-5.4-80-5.4-120-8c-31.8-2.1-63.6-2.5-95.4-3.4c-10-0.3-19.9-1.2-30.5-2.7c6.2-10.1,9.7-21.7,19.7-28.6c2-1.4,4-2,6.3-1.9
	c15.4,0.7,30.8,0.4,46.2-0.4c16.4-0.9,32.3,3.1,48.5,4.6c23.5,2.3,46.8,7.1,70.6,6.7c5.8-0.1,11.7,1.1,17.5,1.9
	c9,1.2,17.9,1.2,26.6-2.2c4.4-1.7,9.3-1.9,13.9-1.4c19.9,2.2,39.7-2.4,59.6-1.3h0.5c8.8-4.4,13.1,0.3,16.7,8.5l0,0
	C655,630.4,660.4,635.4,665.9,639.8z M654.1,164.2c-12.4-2.6-24.8-0.6-37.2-0.1c-13.5,0.6-27,0-40.4,0.3
	c-30.9,0.5-61.9,0.5-92.8,1.5c-15.6,0.5-31.1-1.7-46.6,0.2c-12.4,1.5-24.8,2.5-37.2,2.2c-13.6-0.3-27.3-1.2-40.9-1.8
	c-1.1,0-2.1,0-2.7-1.1c-4.5-8.4-24.9-33.4-27.9-35.5c0.2-0.5,0.4-0.9,0.7-1.4c8.5,0.1,16.9,0.2,25.4,0.3c13.7,0.2,27.3-0.5,40.9-2.5
	c10-1.4,20-0.2,30.1-0.3c31.2-0.2,62.1,4.8,93.3,4c7.5-0.2,14.8-0.6,22.2-1.9c5.5-0.9,11-1.4,16.5-1.4c24.4,0,48.8,0.2,73.2,0.3
	c13.7,0.1,27.3,1.1,40.9,2.4c1.8,0.2,3.8,0.1,5.4,1.4c-0.9,2.5-16.1,24.8-20.7,32.5C655.8,164.1,655,164.4,654.1,164.2z
	 M679.5,498.7L679.5,498.7c0.2,2.4,0.2,4.8,0.6,7.1c1.3,7.6,1.2,15.1,0,22.7c-2.7,18.1-1.6,36.3,0.3,54.4c2.3,21.7,2,43.5,1.9,66.9
	c-5-7.2-9.6-12.4-15-16.7c-7.2-5.8-11.6-13.9-16.4-21.6c-0.6-0.9-0.8-1.8-0.2-3c5.5-11.7,7.2-24.2,7.5-37.1c0.1-3.1,0.5-6.1,1.6-9.1
	c1-2.6,2.1-5.6-1.3-7.6c-1.8-1-0.9-2.9-0.8-4.5c0.8-12.4,0.2-24.7-0.4-37.1c-0.4-10-1-20,0.4-30c0.6-4.1,0.5-7.9-1-12.2
	c-2.4-6.6-1.6-14-1.7-21.1c-0.1-29.5-0.4-59.1,1.5-88.6c1.2-18.9,2.9-37.8,2.2-56.8c-0.4-10.7-1.3-21.5-1.7-32.2
	c-0.8-21,4-41.6,4-62.7c0-12.4,0.4-24.8-0.8-37.1c-0.2-2.3-1.2-4.6,2.3-5.4c1.6-0.4,2.1-2.7,2.8-4.4c4.1-10.3,10.4-19.2,17.3-28.5
	c1.6,16.1,1.2,31.5-0.4,46.8c-1.8,17.1-2.7,34.2-2.5,51.3c0.1,16.4,0.8,32.8,0.5,49.2c-0.2,14.5,2.3,28.6,3.5,42.9
	c1.9,22.7,1.5,45.5,0.2,68.3c-1.1,20.2-2.3,40.4-3.7,60.6C679.1,468.5,678.3,483.6,679.5,498.7z M679.5,122.2
	c-38.5-2.1-77.1-0.7-115.6-1.8c-13.2-0.4-26.1,2.5-39.2,3.3c-19.2,1.3-38.4,0.2-57.5-1.5c-7.2-0.6-14.4-1.2-21.7-1.3
	c-10.7,0-21.4-0.3-32.1-0.3c-29,0.1-57.9,3.8-87,3.1c-6.8-0.2-11.6-3.4-17.5-4.7c-0.1-0.6-0.1-1.3-0.2-1.9
	c10.9-1.6,21.7-3.9,32.6-4.6c22.1-1.4,43.9-5.1,66-6.7c4.5-0.3,9,0,13.5-0.1c31.7-0.7,63.4,0.9,94.9-0.7c32.2-1.6,64.3,0.5,96.5-0.8
	c19.8-0.8,39.4,1.8,59.1,1c6.6-0.3,13.1-1.3,19.7-0.9c2.6,0.2,4.2,0.6,4.7,3.7c0.6,3.5,4,4.7,6.3,7.9
	C694.2,118.3,687.6,122.7,679.5,122.2z M284.1,93.1c2.6,7.8,8.7,11.9,15,15.8c1.3,0.8,2.7,1.7,3.8,2.7c1.2,1,0.6,2.3,0.2,3.5
	c-0.8,2-2,0.7-3,0.3c-5-2.3-10.1-4.8-15.1-7.1c-1.9-0.8-2.6-2-2.6-4.1c0.1-3.9,0.4-7.8-0.5-11.6C283,92.3,283.8,92.4,284.1,93.1z
	 M180.5,719.9c-3.4-1.2-7.1-1.6-10.6-2.3c-1.2-0.2-2.5-0.5-3.4,0.7c-3.5,4.4-4.4,1.1-4.9-2c-1.1-6.8-1.7-13.7-1.6-20.7
	c0.8-57.8,1.7-115.7,2.4-173.5c0.3-22.9-3.1-45.7-1.1-68.6c1.8-21,3.4-42.1,4.3-63.2c0.8-17.7,1.2-35.4,0.4-53.1
	c-0.1-2.2-0.3-4.4-0.3-6.6c0.2-30.6-0.2-61.2,1.2-91.8c0.5-10.5,1.9-21,3.3-31.5c1.8-14,0.7-28.1,1.5-42.1c0-4.4,0.1-8.8,0.1-13.3
	c-1.2-21.3-0.5-42.7-0.7-64c0-3.8,1.2-6.2,4.8-6.1c3.2,0.1,5.3-2.6,8.3-2.7c1-0.1,2-0.2,3-0.4c4.1-0.8,4.8,1,3.1,4.6
	c-2.4,28.9-3.1,57.9-4.6,86.8c-2.5,47.6-2.5,95-3.5,142.4c-0.8,36.8-5.2,73.6-3.8,110.4c1.3,34.8,1.6,69.6,2.7,104.4
	c0.4,11.2,2,22.5,1.6,33.8c-0.1,2,0.3,4-1.1,5.7c-4.1,5-3.8,10.6-2.3,16.5c3.1,12.4,2.2,24.9,0.9,37.4c-0.2,2-1.2,4.1-0.9,5.9
	c2.6,14.5-1.4,29.4,3.1,43.7c1.7,5.4,2.2,11.1,1.7,16.8c-0.9,9.5,1.4,18.8,1.8,28.3C186.1,719.9,184.9,721.4,180.5,719.9z
	 M270.7,683.5c-1.1,1.3-2,0.3-2.9-0.6c-1.6-1.5-0.4-2.2,0.6-2.8c3.1-1.8,5.8-4.3,9.3-5.2C276.7,678.8,273.1,680.6,270.7,683.5z
	 M274.8,668.1c-1.7,2.4-4.6,2.9-6.9,4.4c-20.2,13.1-40.8,25.4-61.6,37.4c-4.4,2.5-8.8,5-13.7,7.8c-0.5-2.7-1.2-4.9-1.2-7.1
	c0-14.9-1.7-29.9,1.5-44.7c1.1-5.2,1.1-10.5,0.3-15.8c-0.2-1.3-0.5-2.6-0.2-3.8c2.6-9.4-0.2-18.4-1.9-27.5c-0.7-3.8-1-7.6-1-11.4
	c0.1-29.1-1.4-58.2-3.6-87.3c-0.9-12.1-0.3-24.4-0.1-36.7c0.3-19.5-2.3-38.9-2.4-58.4c0-2.6,0.2-5.1,0.2-7.7c0-3.7,0.1-7.4,0.1-11.1
	c-0.2-21.3,0.8-42.6,2.5-63.9c0.4-5.4,0.5-10.9,0.5-16.4c0.4-30.5,0.6-60.9,1.2-91.4c0.6-31,2.5-61.9,3.2-92.9
	c0.4-16.7,2-33.5,3.2-50.2c0.4-6,1.3-6.6,6.2-4c10.7,5.7,22.5,6.9,33.9,9.2c4.8,1,9.4,2.3,13.9,4.1c18.2,7.2,36.8,13.6,54.4,22.8
	c4.2,2.2,8.7,3.6,13,5.4c1.6,0.7,3.1,1.5,2.7,3.9c-2,12.1-0.2,24.4-1.5,36.6c-2.5,24-3,48.1-2.4,72.1c0.7,25.6-4.5,50.7-5.1,76.2
	c-0.4,17.7-1.3,35.3-0.1,53c0.6,9.1,0.8,18.2,0.8,27.3c-0.1,23.3-0.3,46.7-0.7,70c-0.2,16.6,1.4,33.1,2.2,49.6
	c1.4,27.9-1.2,55.8-0.6,83.7c0.2,10.9,1.6,21.7,2.6,32.6c0.1,1.4,0.3,3.2,1.1,4.1c4.5,4.9,1.5,6.9-2.5,9.5
	c-10.2,6.6-20.5,12.8-31.5,17.9C279.4,666.7,277.4,668.1,274.8,668.1z M750.2,728.4c-12.8-2.7-25.5-3.7-38-4
	c-28-0.8-55.5-7.1-83.7-6.5c-15.6,0.4-31.2-3.3-46.9-4.3c-22.6-1.4-45.2-3.5-67.9-2.2c-22.8,1.3-45.1-2.3-67.4-6.5
	c-14.1-2.7-28.4-4-42.7-4.6c-17.4-0.8-34.7-3.5-52-5.3c-6.9-0.7-13.8-1.3-20.7-1.8c-12.3-1.1-24.1-4.6-35.5-9.4
	c-2.9-1.2-5.7-1.3-8.6-1.3c-1.2,0-2.5,0.1-3.2-1.3c-0.6-1.4,0.2-2.5,1.1-3.3c3-3,6.1-5.9,9.1-8.9c1.1-1.1,2.2-1.7,3.7-0.8
	c3.3,2,7,1.8,10.6,1.7c23.5-0.5,47.1,0.3,70.5,2.4c25.8,2.3,51.8,2.2,77.5,6.1c32.5,4.9,65.3,6.7,97.9,10.1c19,2,38.2,3.4,57.4,3.6
	c33.5,0.3,67.1,0.8,100.6,1.2c3.4,0,6.9,0.6,10.2-1.2c1.4-0.8,2.6,0,3.9,0.7c12,7.8,14.2,13.5,24,24
	C751.9,718.5,752.4,727.7,750.2,728.4z M725.4,681.1c0,0,7.4-1.6,23.5,7.3c0.1,0.1,3.8,18.1,1.5,15.9c-10.7-9.9-8.1-9-20.1-16.9
	C728,685.9,725.5,684.5,725.4,681.1z M812.5,710.5L812.5,710.5c0,0-19.1-9.4-23.5-11.2c-13.1-7.9-27.2-13.2-41.6-17.8l-3.3-1.2
	l-3.1-1.1l-12.6-4.3c-4.4-1.6-8.8-3.3-13.2-4.9c-5.2-1.6-10.8-3.2-16.1-5.1c-0.8-0.3-3.6-1.3-3.6-1.3l-4.1-2.4l-2.1-6.4l-0.7-14.6
	c-0.1-8-1.5-16.1-0.2-24.1v-8.9c-0.9-18.7-3.9-37.2-3.5-56c0.2-8,1.1-15.8,1.7-23.7c0.8-9.8,0-19.6-0.8-29.4c0,0-0.7-12-0.7-12.4
	c0.1-12-1-24.2,2.1-36c0,0,0.5-13.5,0.2-20.2c0,0,0.5-7.9,0.7-11.9c2.6-30.5,4.9-61.2,1.4-91.6c-4.4-38.9-3.9-77.9-3.3-116.8
	c0.3-23.1,3.5-46.1,2.6-69.3c-0.3-8.8-0.1-8.7,7.7-12c10.6-4.5,20.8-10,30.2-16.9c2.1-1.5,38.6-17.3,51-23c11.1-5.1,15.2-10,25-17.9
	c3.4-2.7,7.5-4.4,11.4-6.5c2.3-1.2,3.9-1.4,3.7,2.3c-0.8,16.9-1.2,33.9-2.4,50.8c-0.8,11.5-0.3,23-1.1,34.4l-0.9,20.2
	c0.2,10,0.7,20,0.6,30.1c-0.3,18.1,1.3,35.9,3.7,53.8c1.8,13.4,1.7,27.2,1,40.9c-1,19.8-1,39.7,0.3,59.5c1.1,16.3,3.5,32.6,2.7,49
	c-0.8,17.6,1.4,34.9,2.9,52.2c1.7,19.3,2,38.6,1.3,57.9c-0.6,18.3,0.6,36.3,2.7,54.4c1.6,13.8,1.5,28,3.3,41.8
	c3.3,25.3,4.9,50.6,4.5,76.2c-0.2,11.7,1.9,23.5,3,36.3C830.2,718.2,820.7,716,812.5,710.5z M866.2,731.9c-2.1,2.4-6.9-1-10.6-1.1
	c-5.5-0.1-8.7-2-9.6-8.5c-1.9-13.9-2.6-27.9-3.4-41.9c-0.7-14,0.5-28.1-1.5-42.1c-3.9-28.5-5-57.3-8.4-85.8
	c-1.4-11.7-0.8-23.3-0.5-35c0.8-28.3-1.2-56.4-3.9-84.6c-1.2-12.8,0.2-25.9-0.9-38.8c-3.6-42.2-2.9-84.5-2.9-126.8
	c0-11.3-1.8-22.5-3.5-33.6c-1.9-12.7-0.3-25.5-0.9-38.3c-1.3-29.6,0.8-59.1,1.7-88.6c0.4-13.8,0.9-27.7,1.1-41.5
	c0.1-3,0.8-4.2,3.8-4.2c4.8,0,9.7-0.3,14.5-0.7c2.8-0.3,3.6,0.8,3.5,3.6c-0.5,25.5-1.2,51-2.5,76.6c-1.4,25.7-1.6,51.4,1.5,77
	c1.7,14.5,2.1,29,2.9,43.6c1,17.1,2.3,34.1,3.2,51.2c0.5,10.4,0.2,20.8,0.9,31.1c1.4,20.9,3.6,41.7,2.5,62.7
	c-0.6,11.8-2.4,23.8-0.9,35.5c2,16.6,1.7,33.2,0.6,49.6c-1,14.5-0.1,28.2,3.8,42c3.7,13.1,3.8,26.9,4.8,40.5
	c1.2,15.8,1.8,31.6,2.7,47.4l0.1,31.6c-0.4,14-0.9,28.1,1.3,42l2.5,24.8C867.6,724,868.3,729.4,866.2,731.9L866.2,731.9z"/>
<path id="trazo4_1_" class="st0" d="M809.6,617.3c0.2-29.2-0.7-58.3-0.3-87.4c0.1-8.6-0.4-17.1-1.3-25.6c0,0-1.4-12.2-2.4-18.3
	l-3.7-35.5c-1-7.7-1.1-15.5-1-23.3c0.3-14.9,0.4-29.7,0.8-44.6c0-3.5-1-5.6-4.2-6.4c-10.2,1.7-30.3,7.2-30.3,7.2
	c-8.4,4.1-17.5,4.3-26.4,5.8l-18.8,5.6c-0.3,0-0.7,0.1-1,0.2c-2.7,0.6-5.9,0.4-8,1.9c-3.7,2.6,0.9,5.2,0.8,8.1
	c-0.5,15.9,1.8,31.6,2.7,47.4c1.2,19.3,1.4,38.6,5.5,57.5c2.4,10.9,1.6,21.9,0.4,32.8c-1,9.4-4,18.5-4.2,28.2
	c-0.4,21.1,2.1,42.2-1.1,63.3c-0.5,3.4,1.6,5.2,4.2,6.8c7.6,4.5,15.7,7.5,24.1,9.6c15.1,3.8,29.6,9.7,45,12l0.5,0.2
	c4.5,0.7,8,3.1,11.3,6.2c1.4,1.4,2.8,3.8,5.2,2.6c2.5-1.2,2.2-3.8,2.2-6.2C809.4,649.3,809.5,633.3,809.6,617.3z M732.1,638.8
	c-2.1-1-3.2-2-3.5-4.6c-2.6-18.8-4.6-37.5-4.4-56.6c0.1-9.9,2.2-19.5,3.6-29.2c2.8-18.8,1.9-37.4-2.4-55.9
	c-2.9-12.3-1.6-25-2.7-37.5c-1.2-13.4-2.1-26.8-3.2-40.2c0-0.5-0.1-1.1-0.2-1.6c-1.1-10.6-0.8-9.9,8.7-13.1
	c4.1-1.4,8.3-2.6,12.6-3.6c-0.1,8.4,0.8,8.9,1.9,21.9c1.6,18.4,1.7,36.7,1,55.1c-0.7,17.4,0.4,34.5,2.4,51.8
	c1.6,13.2,1.4,26.6,3.1,39.8c3.1,24.1,4.6,48.2,4,72.5c-0.1,2.7,0,5.4,0.2,8.1C745.9,644.3,738.9,642,732.1,638.8z M803.7,598.8
	c-0.5,17.6-0.5,35.3-0.7,53.7c-3.9-3.1-8.3-2-12.8-1.5c-10.4,1.1-20.4-1.8-30.4-4c-0.3-5.2-0.6-10.3-0.9-15.5
	c-0.5-13.3,0.8-26.8-1.1-40c-3.7-27.1-4.7-54.5-7.9-81.7c-1.3-11.1-0.7-22.2-0.3-33.2c1-26.9-0.8-53.7-3.3-80.5
	c0-0.3-0.1-0.6-0.1-0.9c13.5-2.9,27.1-4.8,40.2-9.4c2.8-1,3-0.2,3.3,2.5c2.1,17.5,4.7,34.9,5.5,52.6c0.1,3.1,0.8,6.2,0.6,9.3
	c-1.2,21.8,5.8,42.5,7.1,63.9c0.1,0.9,0.1,1.8,0.1,2.7C802,544.1,804.5,571.4,803.7,598.8z"/>
<path id="trazo3_1_" class="st0" d="M292.5,387.7c0-7.6-0.5-8.5-7.9-8.4c-17.2,0.1-34.3-0.9-51.3-4.9c-6.7-1.6-13.7-2.2-20.6-1.7
	c-2.4,0.2-4.3,0.8-4.3,4.1c0.3,19.2,0.7,38.5,3.4,57.5c1.9,13.3,3.7,26.3,3,39.8c-0.7,13.7-0.9,27.3-0.9,41c0,16.8,0.2,33.6-1,50.4
	c-0.8,12.1-1,24.1-0.1,36.2c1.5,19.5,6.1,38.7,5,58.4c-0.1,1.4,0.2,2.9,0.5,4.3c0.6,3,2.4,3.9,5,3c5.6-1.9,11.2-3.6,16.7-5.8
	c16.8-6.8,31.6-17.2,46.5-27.6c3.3-2.3,4.7-4.7,4.7-8.8c-0.4-32.7,0.6-65.2,2-97.9c0.2-17.1,0.1-34.2,0.5-51
	C294.6,446.6,292.7,417.1,292.5,387.7z M257.7,643.6c-7.5,6.9-16.9,9.5-26,13.1c-1.8,0.6-2.7,0-2.6-2c0.2-6.7-2.3-12.9-4-19.2
	c-6.6-24.4-7.5-49.2-5.7-74.5c1.6-23.2,1-46.5,1.2-69.9c0.1-14.9,1.2-29.8-0.7-44.5c-1.3-10-3.6-19.8-4-29.9
	c-0.5-12-0.9-23.8-1.4-35.7c-0.2-4.8,3-3,5-2.9c11.4,0.7,22.4,4.3,33.8,5.3c5.6,0.5,11.1,1.3,16.7,1.7c0.2,6.8,0.2,7.4-0.9,17.8
	c-1.1,11.4-3.4,22.7-2.5,34.1c1.2,16.1,0.3,32-1.6,47.7c-1.6,13.9-1.3,27,1.9,40.6c3.1,12.8,2.6,26,3,39.2
	c0.5,15.2,0.4,30.5,0.6,45.7c-0.5,13.1-0.8,20.7-1,25c-1.5,1-3.1,1.9-4.7,2.7C262.2,639.4,259.9,641.6,257.7,643.6z M287.8,453.6
	L287.8,453.6c-0.3,21.4-1.4,38.1-1.5,54.9c-0.2,26.7-1.3,53.5-1.2,80.2c0,9.3-0.4,18.7-0.4,28c0,2.7-0.7,4.7-2.5,6.8
	c-2.2,2.5-4.4,4.9-6.8,7.1c0.4-32.3,1.8-28.7,0.6-63c-0.5-14.7-0.1-29.7-3-44c0,0-3-28.1-1.9-42.3c0.8-9.6,2.1-19.2,2-28.8
	c0-14.2-0.8-28.3,1.4-42.5c2-12.8,1.8-15,1.4-24.6c1.1,0,2.2,0,3.2-0.1c2.4-0.1,3.3,0.4,3.6,3.1
	C285.6,411.6,289.7,434.7,287.8,453.6z"/>
<path id="trazo2_1_" class="st0" d="M800.7,304c-1-7.4-2.9-14.7-2.2-22.2l-0.4-12.1c-0.4-7.8-0.2-15.7-2.2-23.3
	c-4.1-15.9-2.1-32.2-2.1-48.2c0-10,0.8-20,0.4-30c-0.3-8.3-0.2-16.7,0.3-25.1c0.7-11.2,2.2-22.3,3-33.5c0.5-6.5-1.6-7.8-7.3-4.9
	c-5.1,2.6-10.1,5.6-15.1,8.4l-26.5,15.2c-11.8,6.4-23.6,12.8-35.5,19c-3.6,1.8-4.8,4.5-4.5,8.4c0.2,2.3,0.1,4.7,0.1,7l-0.2,13.4
	c-0.1,0.3-0.1,0.5-0.1,0.8l0.8,13.2c1.5,11.7,1.3,23.6,1.6,35.4c0.3,12.2,0,24.4,0.5,36.6c0.6,12.2,2.5,24.3,2.6,36.5
	c0.1,18.6-1.2,37.2-4.9,55.4c-0.9,4.6,0.5,6.1,4.6,6c5.5-0.1,11-1,16.3-2.6c11-3.2,21.9-7,33.4-7.3l13.8-2.7l-0.1,0.1
	c0,0,0.4-0.2,1.3-0.6c6.1-1.1,12.2-2.5,18.3-3.1c3.7-0.3,4.9-2.1,4.8-5.5C801.1,326.9,802.3,315.4,800.7,304z M725.6,352.1
	c-2.5,0.8-4.2-0.1-3.4-2.8c1.7-6-0.4-11.6-1-17.3c-1.7-15.3,0.2-30.8-1.9-45.9c-3-21.4-1.3-42.9-2.2-64.4c-0.8-19.7-2-39.3-2-59
	c0-6.6,1.1-10.4,7.6-13.5c3.5-1.7,7-3.4,10.5-5.1c-0.1,0.6-0.1,1.5-0.2,2.7c0.1,9.5,0.6,19.1,0.4,28.6c-0.4,17.2,1.1,34.1,3.4,51.2
	c1.7,12.8,1.5,25.9,0.7,38.9c-1.1,18.9-1.2,37.7,0,56.6c0.9,13.3,2.7,14.2,2.6,25.7C735.2,349.2,730.4,350.7,725.6,352.1z
	 M795.3,327.4c0.1,2.9-2.4,3.2-4.2,4.1c-14.5,7.4-30.1,10.8-45.5,14.8c-2.8-41-2.4-71.5-2.1-107.7c0.1-10.7-1.7-21.4-3.3-32
	c-1.9-12.1-0.2-24.3-0.6-36.4c-0.6-14.7-0.4-17.1,0.1-29.3c12.7-6.4,25.3-13.3,37.2-21.3c2.5-1.7,5.3-3,8.6-4.9l0,0
	c-3.3,17.4,2.2,33.3,2.6,49.5c0.1,10.7,0.1,21.4-0.2,32.2c-0.5,19.8-1.8,39.6,3.5,59.2c2.2,8.4,1.2,17.4,0.9,26.2
	c-0.2,6.2,0.3,12.4,1.8,18.4C796.3,309.2,794.9,318.3,795.3,327.4z"/>
<path id="trazo1_1_" class="st0" d="M291.8,150.6c-3.9-3.9-8.3-7.7-13-10.3c-17.8-9.8-36.1-18.1-55-25.3c-6.9-2.6-8.9-1.9-8.9,5.6
	c0.1,16.1-3.2,31.9-3.9,47.9c-0.5,10-0.3,20.2-1.9,30c-2.5,15-3.6,30-3.9,45.1c-0.7,32.1,0.9,64.2-0.4,96.3
	c-0.1,3.6,1.2,5.4,4.7,5.7c4.8,0.4,9.7,0.8,14.4,1.7c13.5,2.6,26.9,5.3,39.6,4.2l0,0c7.5,0.1,13.9-0.1,20.2,0.1
	c4.4,0.3,5.9-2,5.9-6.1c0.1-9.3,0.3-18.6,0.2-27.9c-0.3-27.2-1.6-54.4,1.3-81.5c2.6-23.8,2.5-47.7,3.6-71.5
	C294.9,159.8,295.5,154.3,291.8,150.6z M270.1,149.8c-2.5,24.5-3.9,49-2,73.7c1.1,13.9,0.8,27.9,1,41.8c0.2,16.4,0.8,32.7,0.9,49.1
	c0.1,9.1-0.6,18.3-0.5,27.4c-9.6,1.7-19.2,2.5-29,0.8c-7-1.2-14.1-1.5-21.2-2.1c-2.3-0.2-3.4-0.9-3.9-3.8c-5-30.2-4.7-60.6-4.2-91.1
	c0.3-16.1,2.3-32,3.8-47.9c2.3-23.5,4-47.2,5.7-70.8c0.3-4.5,1.3-5.1,5.4-4C238,126,249,131,259.7,137c3.6,2.1,7.5,3.6,11.2,5.4
	C270.9,142.8,270.7,144.3,270.1,149.8z M283.8,258.2c-0.7,15.7,0.1,31.3-0.1,47c0.8,10.4,0.1,20.9,0.2,31.2c0,2.7-1,3.6-3.4,3.2
	c-1.7,0.4-3.4,0.7-5,1.1c-0.2-31.7,0.3-57.8-0.6-90c-0.2-5.8,0.3-11.6-0.3-17.3c-2.9-31.3-0.9-57.1,1.8-88c2.2,1.4,4.4,3,6.3,5
	c0.9,1,3,1.7,2.4,3.2c-2.9,7.3,2.3,13.3,2.4,20c0.1,8.2,0.1,16.4,0.1,24.6C287.7,218.3,284.7,238.2,283.8,258.2z"/>
</svg>
