<?xml version="1.0" encoding="utf-8"?>
<!-- Generator: Adobe Illustrator 19.0.0, SVG Export Plug-In . SVG Version: 6.00 Build 0)  -->
<svg version="1.1" id="Layer_1" xmlns="http://www.w3.org/2000/svg" xmlns:xlink="http://www.w3.org/1999/xlink" x="0px" y="0px"
	 viewBox="0 0 180 180" style="enable-background:new 0 0 180 180;" xml:space="preserve">
<style type="text/css">
	.st0{fill:#2B393F;}
	.st1{fill:#76A1A6;}
	.st2{fill:#DC42F9;}
	.st3{fill:#D06A5B;}
	.st4{fill:#6C80D9;}
	.st5{fill:#F2F0BB;}
</style>
<path class="st0" d="M172.2,96.6c0.1,14.6,0,29.3-2.8,43.7c-0.2,1.1-0.3,2.3-0.6,3.5c-4.7,17.6-9.7,20.7-27.9,21.9
	c-33,2-66,1.2-99,1.6c-16.3,0.2-28.5-12.5-29.5-28.6c-1.3-20.4-2-40.9-3.2-61.3c-1-16-1.5-32.7,4.6-48.4C17,20.1,23.4,16.2,32.5,16
	c36.8-1.1,73.7-2.4,110.5-3.4c12.9-0.4,24.7,9.1,26.3,21.9C171.8,55.1,172.5,75.8,172.2,96.6z"/>
<path class="st1" d="M83.8,160.4c-14.1,0-28.1-0.2-42-2.7c-1.1-0.2-2.2-0.3-3.3-0.5c-16.9-4.2-19.9-8.5-20.9-24.3
	c-1.8-28.6-0.8-57.2-1.1-85.8C16.4,33,28.7,22.5,44.2,21.7c19.6-1,39.3-1.5,58.9-2.5c15.4-0.8,31.5-1.2,46.5,4.2
	c8.3,3,12.1,8.5,12.3,16.4c0.9,31.9,2,63.8,2.8,95.7c0.3,11.2-8.9,21.3-21.2,22.7C123.7,160.3,103.8,160.8,83.8,160.4z"/>
<g>
	<path id="path17" class="st2" d="M173.1,37.2C173.6,37.7,173.2,37.3,173.1,37.2"/>
	<path id="path43" d="M149.8,97.2c0.8-1.8,1.6-3.5,2.4-5.3C151.2,93.4,150.2,95.8,149.8,97.2"/>
	<path id="path3" class="st0" d="M115.8,176.2c-2.1-1-3.3-3.1-3.6-5.5c0.3,4.6-12.7-1.7-14.8-2.5c-13.6-4.9-25.8-12.6-38.6-19.3
		c-9.9-5.2-19.5-11.8-30.1-15.2c-6.5-2.1-13.7-4.5-18.9-9.2c2.5-1.3,1.6-4-0.2-5.8c7,7.7,19.5,12,28.6,15.8
		c13,5.4,24.5,14.6,37.6,19.7c4.9,1.9,10.2,1.7,15,4.2c3.7,1.9,5.4,3.9,9.1,5.4c2.8,1.1,6.4,4.4,8.7,2.9c1.5-1,2.6-0.2,3.3,1
		c1.9-7-19.4-12.4-25.2-15c-17.6-8-35.3-16.3-52.8-24.7c-9.1-4.4-17.5-8.5-25.9-14.1c-2.9-2,10.4-21.8,12.2-25.1
		c10.2-18.3,20.1-36.6,29.6-55.3c0-0.1-0.8,0.7-1.1,1c-1.5-3.5,2.7-3.9,3.9-6.2c4.8-9.5,12.7-16.9,19.6-24.9c-2-1.6-12.6-0.6-14.6,2
		c2.7,2.7,10.4,0.7,4.3,6c-0.3-0.2-0.3-0.7-0.6-0.8c-1.7,2.8-3.3,5.6-5,8.4c0.1,0,0.1,0,0.1-0.1c0,0.1,0.2-0.1,0.2-0.1
		c-0.1,2-1.1,3.8-2.5,5.3c0.1-0.6,0.2-1.3,0.3-1.9c-5,7.7-9.7,14.9-14.4,22.5c1-0.8,1.9-1,2.9-1.6c-0.6,1.7-1.4,3.3-2.5,4.8
		c-0.3-1.4-0.6-1.7-0.4-3.2c-1.4,3-2.8,5.9-4.1,8.9c0.2,0.1,0.8,0,1.1,0.2c-0.6,1.3-1.4,2.5-2.5,3.3c-0.1-0.2,0.1-0.7-0.1-0.9
		c-3.4,5.6-6.9,12.3-9.5,16.8c-2.1,3.6-5.7,8.7-7.1,12.4c-0.4,1.2-0.4,3.6-1.3,5.1c-1.1,1.8-3.4,0.8-4.5,4.4c4.2-2.2,2,3,0,4.8
		c-1.2-1.4-1-3.1,0-4.8c-1.2,2.6-3.9,5.7-2.5,7.8c-2.7,0.4-2.9,5.6-4.3,7.9c0.1-3.3,2.2-4.8,3.2-7.9c-4.1-0.3-7.6,1-7.8,5.7
		c-0.1,1.8,0.1,3,1.1,4.4c0.7,0.9,2.4-0.1,2.8,0.3c1,0.9,2.5,3,3.6,4.8c-2.7,0.7-0.8,5.6,0.4,8c2.6,5.3,6.1,5.5,10.8,7
		c12.3,4,23.1,10.4,34.3,17.4c6.8,4.2,60.2,33.6,63.4,25.7C116.8,176.3,116.4,176.3,115.8,176.2"/>
	<path id="path5" class="st0" d="M56.6,18.9c2.2-3.7,4.6-7.6,5.2-11c-1-0.9-2.6-2-3.9-2.5c-1.7,3,1.4,6.4-0.3,8.9
		c-2,2.9-5.9,0.6-7.4,5.9c-0.4,1.2,0.3,4.1,0.1,4.6c-1,2.3-2.3,1.1-4.2,3.3c-1.9,2.2-2,6.4-1.1,9.2C48.7,31.3,52.1,24.1,56.6,18.9"
		/>
	<path id="path7" class="st0" d="M51.8,30.2c2.7-0.3,5.7,3.6,7.9,2.4c3.5-2-1.2-4.7-3.1-5.6c1.9-2.4,3.4-5.4,5.7-7.6
		c1.1-1.1,4.7,1.3,2-2.4c1.6-1.5,2.9-3.3,4.2-5.1c1.7-2.6,3.1-0.9,3.8-1.3c0.5-0.3,2.2,2,2.6-0.9c0.4-2.9-3.8-2.7-2.2-6.1
		c-0.1,0-0.1,0-0.1-0.1c-0.1,0-0.1,0-0.1-0.1C64.7,11.7,57.4,20.2,51.8,30.2"/>
	<path id="path9" class="st0" d="M70.6,142.1c-17.6-11.7-37.5-17-56.2-26c-2.8-1.4-6.3-4.1-2.3-6.9c1.1-0.8,3.5,0.5,3.7,0.3
		c2.8-2.4-1-1.1-0.6-4.1c0.4-3.1,4.6-7,6.2-8.1c1.4-1,2.9,1.6,4-0.7c0.5-1.1-3-3-3.6-3.2c2.9-3.8,5.5-7.8,7.7-12.1
		c1.6-3,1.8-2.7,3.8-3.5c1-0.4,3.7,2.7,4.1,0.4c0.5-2.8-3.6-3.4-3.7-6c-0.1-2,2.1-4.7,3.2-6c3.8,4.7,6-2.1,1.3-2.7
		c0.9-2.2,1.6-6.5,3.3-8.1c2.6-2.5,5.2,1.1,7-0.9c2.6-2.8-2.8-3.3-3.3-4.6c-0.6-1.5,0.3-5.7,2.5-6.2c0.7-0.2,3.8,2,5,2.1
		c-1-5-5.1-2.3-2.9-7.1c0.9-1.9,6.5-7.7,0.2-5.7c-2.2,0.7-3.9,7-4.7,8.8c-2.8,5.9-5.6,11.8-8.5,17.7c-3.9,8.1-8.8,15.9-13.2,23.7
		C18,93.2,12.5,103.1,7,112.9c-1,1.8,22,12.6,23.6,13.4c18.7,8.9,37.5,17.6,56.4,26.3C83,146.6,74.2,148.6,70.6,142.1"/>
	<path id="path11" class="st2" d="M87.1,153c1.4,1,3,1.6,4.6,1.9C90.5,154.2,87,153,87.1,153"/>
	<path id="path19" class="st0" d="M171.3,44c-0.7,8.4-5.4,16.2-7.4,24.5c-2.7,11.5-6.6,20.2-13.1,29.8c-6,8.9-10.5,18.4-16,27.6
		c-3.2,5.4-9.4,11.8-10.9,17.4c4.7,2-4,11.6-5.6,14c-1.2,1.9-2.9,4.1-3.6,6.3c-1,3.2-0.2,2.4,0,4.3c0.1,1.5,0.8,5.8,1.7,7
		c6.6-7.3,9.7-19.7,14.1-28.4c-0.1,0-0.2,0.2-0.2,0.3c0-0.1-0.2,0.2-0.2,0.2c-0.2-3.9,3.2-9.3,4.6-12.7c3.4-8.5,6-17.5,12.4-24.3
		c0.6,3.8-3,6.3-4.5,9.4c-1.4,2.8-2.2,6.3-3.3,9.3c7.8-14.8,17.2-28.3,23.6-43.8C166.8,75.8,181.8,52.6,171.3,44"/>
	<path class="st3" d="M71.7,9.6c-1.3,4.5-2.3-0.7-3.7-0.2c-2.8,1.1-4.5,5.6-6.7,7.6c2.6,3.7-0.9,1.3-2,2.4c-2.2,2.2-3.7,5.2-5.7,7.6
		c2.1,1,6.7,3.9,2.7,5.7c-2.9,1.3-7.2-6.7-8.9,0.3c5.1-0.8,0.9,3.4-0.1,5.4c-2.9,5.7,1.2,1.9,2.3,7.7c-2.7-0.3-10.9-4-8.1,3.8
		c0.5,1.4,6.4,1.7,4,4.7c-2.2,2.8-4.8-2.9-6.9,0.6c-1.6,2.6-2.5,5.7-3.6,8.6c4.7,0.6,2.5,7.4-1.3,2.7c-1.4,1.6-2.5,3.5-3.1,5.6
		c-1,3.4,4.1,2.9,3.6,6.4c-0.4,2.2-2.6-0.5-3.5-0.1c-0.6,0.2-1.5-1.2-2.1-0.9c-0.6,0.2-1.3,2.7-1.8,3.3c-3.1,3.8-5.1,8.9-8.2,12.9
		c2.5,0.8,4,2.5,2.8,4.2c-0.5,0.8-2.5-0.7-3.1-0.3c-0.9,0.6-1.2,1.1-2.4,2.4c-1.4,1.5-4.9,3.8-3.5,6.2c3.5,6,0.1,1.3-1.9,2.4
		c-5.4,3.2-2.5,6.5,2.8,8.7c4.8,1.9,9.7,3.9,14.5,5.8c8.2,3.1,16.3,6.5,24.2,10.3c7.9,3.8,14.3,10.4,21.9,13.9
		c6.7,3.1,12.5,6.4,19.4,9.1c2.3,0.9,13.4,4,14.3,5.3c0.1,0.2,0.3,0.4,0.4,0.6c3.7-7.4,7.9-12.5,12.9-18.1c2.5-2.8,3.2-7.7,5.2-11.6
		c8.4-16.7,16.6-33.7,24.4-50.9c4.4-9.7,8-19.8,11.4-29.8c0.7-2.1,4.8-10.7,3.3-12c-2-1.7-4.1-1-6.3-1.8
		c-7.4-2.6-13.3-9.2-21.1-12.1c-9-3.4-17.5-8.5-26.7-11c-10.9-3-25.3-2.3-34-10.3c-2.2-2.1-5.6-7.3-7.6-1.1
		C68.7,5.9,70.8,7.5,71.7,9.6"/>
	<path id="path23" class="st4" d="M95.7,5.3c-1.8-0.4-3.6-0.8-5.4-1.3C91.8,4.4,97.5,6.3,95.7,5.3"/>
	<path id="path29" class="st0" d="M154.2,92.7c1.4,6.1-4,15.5-6.4,20.9c-3.3,7.7-6.7,15.4-10.3,23c-6.4,13.7-12.7,27.7-20.2,40.8
		c0-0.1,0.3-1.1,0.3-1.3c1,1.4,2.4,2.2,3.9,3c6.8-20.9,17.7-41,26.9-60.9c4.7-10.1,8.9-19.9,12.7-30.4c2.9-8,5.6-18,10.2-25.2
		c1.6-2.5,9-11,7.3-13.4c-2.2-3.2-4.9-5.8-7.2-8.9c-4-5.4-7.1-5.5-12.3-9.1c-15.5-10.7-33.7-19.4-52-23.1c-3.4-0.7-6.8-1.5-10.3-2.2
		c11.6,4,24.7,6.7,35.6,12.5c7.9,4.3,15.9,8.5,23.8,12.8c4.1,2.2,10.6,4.2,12.6,9c2.9,7.2-7.8,25-11.3,32.7
		c-2.8,6.2-5.6,12.4-8.4,18.6c8.9-15,14.1-31.6,21.7-47.3c4.2,2.1,4.9,5.5,3.4,8.4C167.5,65.9,160.8,79.3,154.2,92.7"/>
	<path id="path33" class="st0" d="M156.1,79.2c-1.5,4.3-4.4,7.7-6.7,11.6c-2.6,4.5-3.6,9.6-5.5,14.4c-4.9,12-12.2,23-17.2,34.9
		c0.1,0,0.2,0.1,0.2,0.2c7.9-5.3,12.2-21.2,17.5-29.4c4.1-6.4,8.5-9.3,9.2-17.1c0.7-7.6,1.5-13.9,4.7-20.9
		c1.5-3.2,16-27.3,13.1-28.6C168.9,43.2,157.5,75.7,156.1,79.2"/>
	<path id="path39" class="st0" d="M84.2,7.9c8.3,2.8,16.9,3.7,25.3,5.8c9,2.2,16.3,7.2,24.9,9.9c8,2.5,15,6.3,21.9,11.2
		c3.7,2.7,9,2.5,12.2,5.4c-4.2-7.1-14.6-10.1-21.4-13.8c-7-3.8-13.8-8-21.3-10.6C109.6,10.2,93.8,4.9,77,0.9
		C78.7,3.7,81.9,6.3,84.2,7.9"/>
	<path id="path45" d="M126.5,139.9c-0.1,0.2,1.4-2.2,1.6-3C127.7,137.9,126.9,139.1,126.5,139.9"/>
	<path id="path47" d="M119.3,153.7c0.8-1.4,1.6-2.8,2.3-4.2c-1.7,2.7-3.3,5.5-5,8.2C117.8,156.5,118.6,155.1,119.3,153.7"/>
	<path id="path49" class="st0" d="M16.6,77.2c-0.8,2.7-1,5.8,1.1,7.9c2.3-4,4.5-8,6.8-12.1C21.6,73.8,18.5,75,16.6,77.2"/>
	<path id="path51" class="st0" d="M14.4,90.8c-6.6-2.4-10.8,7.5-5.5,11.1C10.6,98.1,12.2,94.4,14.4,90.8"/>
	<path id="path53" class="st0" d="M27.3,64.8c6.5-2.2,12-18.8,15.7-24.7c-4.5-0.7-7.2,2.2-6.5,6.5c0.4,2.8-2.4,2.8-3.6,4.4
		c-1.7,2.3-1.4,2.6-2.2,5.1c-0.6,1.9,1.7,3.8-1.1,4.4c-1.7,0.4-4.1,0.3-5.5,1.7c-2.1,2.2-0.5,7.4,1.1,9.3
		C27.1,69.4,27.8,67.4,27.3,64.8"/>
	<path id="path55" class="st0" d="M116.6,170.3c-5.3-4.4,4-14.1,7-18.8c1-1.7,3.4-4.1,2.8-6.1c-1.3-3.7-4.7,4.2-5.4,5.4
		c-4.6,8.2-16.2,22.4-1.7,28.7C117.3,176.2,116,174.4,116.6,170.3"/>
	<path id="path57" class="st0" d="M123.5,143.8c-5.9,4.7-9.2,11.6-12.5,18.3c-2.5-2.6-15.1-6.7-19.4-7.3c6.9,3.2,13.7,6.3,20.6,9.5
		C112.6,159.6,126.9,146.6,123.5,143.8"/>
	<path id="path63" class="st0" d="M68.4,51.3c0.3,5,11.6,7.7,15.6,9.8c4,2.2,7.3,4.2,10.8,7.2c4.7,4,7.9,3.9,13.4,4.9
		c3.9,0.7,5.9,2.7,10.2,0.7c5.1-2.4,5.6-9.9,8.7-15.3c2.3-3.8,9.6-13.1,7.6-18.1c-2.1-5.5-19.5-9.1-24.5-11c-4.7-1.7-9.4-3.5-14-5.4
		c-3.6-1.5-8.4-5.8-10.6-1.7c-2.8,5.1-5.5,9.4-8.5,14.3C74.9,40.3,71.8,49.2,68.4,51.3 M75.1,43.5c1.6-4,5.2-8.7,7.9-11.9
		c4-4.8,5.9-4.7,11.7-2.6c12.1,4.4,23.6,9.1,35.5,13.8c-4.4,7.9-7.2,17.2-11.7,24.8c-2.2,3.8-1.9,3.4-6.1,1.6
		c-2.3-1-4.3-2.6-6.8-3.5c-7-2.3-12.3-5.4-19-8.8c-1.6-0.8-13.1-5.9-12.8-6.7C74.7,48.1,75.2,45.9,75.1,43.5"/>
	<path id="path67" d="M140.2,129.5c-2.8,6.1-6.1,11.9-8.8,18C134.9,141.8,137.9,135.8,140.2,129.5"/>
	<path id="path71" class="st0" d="M105.8,167.4c-1.4-3.2-4.5-3.2-7.4-3.8c-3-0.7-4.5-3.6-7.4-5.1c-3.8-2-7.9-2.3-12-3.1
		c-5.1-1.1-9.8-4.7-14.2-7.5c-10.4-6.7-22.5-11.5-33.8-16.5c-6.8-3-16-6.8-21.3-12.6c1.8,1.8,2.7,4.5,0.2,5.8
		c7.1,6.3,16.5,7.4,24.9,11.1c14.2,6.3,27.5,15.5,41.4,22.7c8,4.2,16.2,8.1,24.8,11c1.4,0.5,9.9,4.6,11.5,3c0.3-0.3-0.3-4.7-0.4-4.9
		C110.1,165.2,108.5,167.3,105.8,167.4"/>
	<path id="path75" class="st5" d="M63.4,102.7c-0.7-0.3-1.2-0.4-1.7-1c5.3-2.4,10.6-4.8,15.9-7.1c2.7-1.2,14.1-3.2,11-7.8
		c-5.1-7.6-11.1-5-18.4-2.9c-3.4,1-18.9,3.2-20,7.3c-1.6,6.1,14.7,5.5,9.3,16.1c9.1-1.9,18.7-3.5,26-10.1c0,0.2-0.3,0.7-0.2,0.8
		c0.9-1.1,1.7-2.3,2.4-3.6C79.7,97.6,72,101.2,63.4,102.7"/>
	<path id="path77" d="M83.8,100.4c0.6-0.8,1-1.5,1.3-2.5c-1.3,1.3-2.6,2.5-3.9,3.8C82.1,101.2,83,100.8,83.8,100.4"/>
	<path id="path79" class="st0" d="M72.7,105.5c-4.7,1.4-9.4,2.7-14.2,4.1c3.6-9.4,0.5-10.2-7.3-15c-8.2-5,6.7-7.4,9.2-8.1
		c7.6-2.1,15.1-4.2,22.7-6.3c2.1-0.6,4.6,3.7,5.4,5c3.3,4.9,3.5,4.6,0.4,9.6c10.4-2.5,0.1-13.9-5.1-16c-6.7-2.6-16.9,1.2-23.2,3.6
		c-3.3,1.3-9.2,2.3-11.9,4.6c-1,0.8-2.8,5.1-4.2,6.8c-3.8,4.3-6.9,5.5-3,11.1c3.8,5.4,8.4,7.6,14.5,7.3c3.3-0.1,6.8-1,10.4-1.6
		C67.4,110.4,71.2,106.2,72.7,105.5 M55,109.4c-3.3-0.3-6.2-1.7-8.7-3.8c-3.6-3-2.7-3-1.5-5.7c4.2-9.5,10.1-1.2,15.6,3
		C58.7,105.3,57.7,108.3,55,109.4"/>
	<path id="path81" class="st0" d="M85,81.4c-3.3-3.5-8.7-0.3-12.5,0.8c-7.1,2-14.2,4-21.4,6c-5.9,1.7-2.2,5.3,1.6,7.7
		c6.7,4.1,7.4,5.5,4.5,13.2c6.2-1.8,24.8-4.2,28.2-12c-7.2,6.6-16.9,8.2-26,10.1C65,96.2,49,98.1,50,91.3c0.6-4,16.9-6.6,20.1-7.5
		c5.6-1.7,14.9-5.6,18.1,2.4c2.3,5.7-5.8,6.3-10,8c-5.6,2.3-11.1,4.9-16.6,7.4c3.4,2.8,15.9-2.5,19.8-4.1c1.3-0.5,3.7-1.9,4.9-2.8
		C92.3,89.9,89.1,87,85,81.4"/>
	<path id="path83" class="st5" d="M52.3,97.8c-5-6.1-3.9-1.4-7.9,1.1c-3.4,2.2-3.1,3.1-0.2,6.2c6.5,6.7,10.6,4,14.7-2.2
		C56.8,101.2,54.5,99.5,52.3,97.8"/>
	<path id="path85" class="st1" d="M132.7,83.3c-6.4-1.2-17.7,6.1-23.8,8.5c-8.2,3.3-15.6,7.9-23.6,11.5c0.4,1,1.1,2.7,1.5,3.5
		c7-0.7,12.7-6.4,19.5-8.4c2.7-0.8,11.4-4.8,12.8-3.5c0.8-0.4,1.6-0.8,2.4-1.3c-0.2,0-1,0.4-1.1,0.3C124.4,90.6,130,88.5,132.7,83.3
		"/>
	<path id="path87" class="st3" d="M91.6,107.5c-1.2,0.3-5.2,1.8-6.2,1.3c-1.5-0.8-2.8-5.6-1.7-6.7c3.9-3.8,10.8-5.8,15.6-8.1
		c7.1-3.5,14.7-5.9,22-9.1C118.4,80,87.7,97.8,83.4,101c-2.6,1.9-4.4,4.3-7.4,5.8c-3.7,1.9-10.3,1.5-10.4,5.8
		c-0.5,11.3,18.7,1.9,22.1,0.1c7.1-3.7,12.9-8.9,20.6-11.5c3.2-1,9.8-2.7,10.6-6.2C110,99.8,100.9,103.6,91.6,107.5 M68.7,113.5
		c-0.7-1.8-0.1-4.1,2.1-4.1c1.9,0,1.5,3.3,2.6,3.5c4.2,0.6,0.5-2,1.5-3.7c0.4-0.7,8-6.3,8.3-2.7C83.6,111.7,73.4,116.4,68.7,113.5"
		/>
	<path id="path89" class="st0" d="M129.4,81.6c2.2,0.2,4.4,0.4,6.6,0.6c-4.8,4.4-9.1,8.4-14.7,11.5c3.2-0.8,21.2-7.6,16.6-14.4
		c-2.1-3.2-13,0.9-13.1,4.2C126.3,82.9,128.3,82.2,129.4,81.6"/>
	<path id="path93" class="st0" d="M83.8,100.4c-4.8,2.7-16.5,3.4-18.2,9.6C72.5,108.6,79.4,106.4,83.8,100.4"/>
	<path id="path95" d="M71.4,105c3.3-0.9,7.1-1.4,9.9-3.4C78.1,103,74.6,103.4,71.4,105"/>
	<path id="path97" class="st0" d="M136.1,82.2c-6.5-0.5-7.7,0.8-12.3,2.7c-6.3,2.5-14.4,4.4-21.4,7.5c-4.6,2.1-14.6,4.9-17.8,8.8
		c-1.4,1.7-2.1,6,0.8,7.6c1.5,0.8,6.3-1.3,8.1-2c3.5-1.5,24.9-8.3,25.2-12.6c-5.4,2.2-11.4,3.2-16.8,5.6c-5.2,2.2-9.4,6.5-15.2,7.1
		c-0.4-0.9-1.1-2.6-1.5-3.5c7.7-3.4,14.8-7.9,22.6-11.1c6.3-2.6,18.3-10.2,24.9-8.9c-2.6,5.1-8.5,7.5-12.4,10.6
		C126.5,92.1,131.3,86.6,136.1,82.2"/>
	<path id="path101" class="st0" d="M76.2,106.9c-3.4,1.7,1,3-0.2,4.7c-2.3,3.5-1.4,0.1-3.2-0.3c-0.5-0.1-5.2-4.1-4.5,0.9
		c0.8,5.5,10.5,0.4,12.5-1.4C87.2,104.7,80.7,106.6,76.2,106.9"/>
</g>
</svg>
