<?xml version="1.0" encoding="utf-8"?>
<!-- Generator: Adobe Illustrator 19.0.0, SVG Export Plug-In . SVG Version: 6.00 Build 0)  -->
<svg version="1.1" id="Layer_1" xmlns="http://www.w3.org/2000/svg" xmlns:xlink="http://www.w3.org/1999/xlink" x="0px" y="0px"
	 viewBox="0 0 180 180" style="enable-background:new 0 0 180 180;" xml:space="preserve">
<style type="text/css">
	.st0{fill:#DC42F9;}
	.st1{fill:#2B393F;}
	.st2{fill:#76A1A6;}
	.st3{fill:#6C80D9;}
	.st4{fill:#FFFFFF;}
	.st5{fill:#F2F0BB;}
	.st6{fill:#D06A5B;}
</style>
<g>
	<path id="path3" d="M115.4,171.5c-2.1-0.9-3.2-2.9-3.5-5.2c0.3,4.3-12.4-1.6-14.4-2.3c-13.3-4.6-25.3-11.8-37.8-18.1
		c-9.7-4.9-19.1-11-29.5-14.3c-6.4-2-13.4-4.2-18.5-8.6c2.4-1.2,1.6-3.8-0.2-5.5c6.8,7.3,19.1,11.2,28,14.8
		c12.8,5.1,24,13.7,36.8,18.5c4.8,1.8,10,1.6,14.7,3.9c3.6,1.8,5.2,3.7,9,5.1c2.8,1.1,6.3,4.2,8.6,2.7c1.5-0.9,2.5-0.2,3.2,0.9
		c1.9-6.6-19-11.6-24.6-14.1c-17.2-7.5-34.5-15.3-51.6-23.2c-8.9-4.1-17.1-8-25.4-13.3c-2.9-1.8,10.2-20.5,12-23.5
		c10-17.2,19.6-34.4,29-51.9c0-0.1-0.8,0.6-1.1,1c-1.5-3.3,2.6-3.7,3.8-5.9C58.5,23.7,66.2,16.7,73,9.3c-1.9-1.5-12.4-0.6-14.3,1.9
		c2.7,2.5,10.1,0.7,4.2,5.6c-0.3-0.2-0.3-0.6-0.6-0.8c-1.6,2.6-3.3,5.2-4.9,7.8c0.1,0,0.1,0,0.1-0.1c0,0.1,0.2-0.1,0.2-0.1
		c-0.1,1.9-1.1,3.6-2.5,5c0.1-0.6,0.2-1.2,0.3-1.8c-4.9,7.3-9.5,14-14.1,21.2c0.9-0.8,1.8-0.9,2.9-1.5c-0.6,1.6-1.4,3.1-2.5,4.5
		c-0.3-1.3-0.6-1.6-0.4-3c-1.3,2.8-2.7,5.5-4,8.3c0.2,0.1,0.7,0,1,0.2c-0.6,1.3-1.4,2.3-2.5,3.1c-0.1-0.2,0.1-0.7-0.1-0.9
		c-3.3,5.2-6.7,11.6-9.3,15.8c-2,3.4-5.6,8.1-7,11.6c-0.4,1.1-0.4,3.4-1.3,4.8C17.3,92.6,15,91.6,14,95c4.1-2,2,2.8,0,4.5
		c-1.1-1.3-1-2.9,0-4.5c-1.2,2.4-3.8,5.4-2.5,7.4c-2.6,0.3-2.9,5.2-4.2,7.4c0.1-3.1,2.1-4.5,3.2-7.4c-4-0.3-7.4,0.9-7.6,5.4
		c-0.1,1.7,0.1,2.8,1.1,4.1c0.7,0.8,2.3-0.1,2.7,0.2c1,0.8,2.5,2.9,3.6,4.5c-2.7,0.7-0.7,5.3,0.4,7.5c2.5,5,6,5.2,10.5,6.6
		c12.1,3.7,22.6,9.8,33.6,16.3c6.7,4,58.9,31.6,62.1,24.2C116.4,171.6,116,171.6,115.4,171.5"/>
	<path id="path5" d="M57.4,23.8c2.2-3.5,4.5-7.1,5.1-10.3c-1-0.8-2.6-1.9-3.8-2.4c-1.6,2.8,1.4,6-0.3,8.3c-2,2.7-5.8,0.6-7.3,5.5
		c-0.3,1.2,0.3,3.9,0.1,4.3c-1,2.2-2.3,1-4.1,3.1c-1.9,2.1-2,6-1.1,8.6C49.8,35.5,53.1,28.7,57.4,23.8"/>
	<path id="path7" d="M52.8,34.4c2.7-0.2,5.6,3.4,7.8,2.2c3.4-1.8-1.2-4.4-3-5.2c1.9-2.3,3.4-5.1,5.5-7.1c1.1-1,4.6,1.2,2-2.2
		c1.6-1.4,2.9-3.1,4.1-4.8c1.7-2.4,3.1-0.8,3.7-1.2c0.5-0.3,2.1,1.9,2.5-0.9c0.4-2.7-3.7-2.5-2.1-5.7c-0.1,0-0.1,0-0.1-0.1
		c-0.1,0-0.1,0-0.1-0.1C65.4,17.1,58.3,25.1,52.8,34.4"/>
	<path id="path9" d="M71.1,139.4c-17.2-11-36.7-16-55-24.4c-2.8-1.3-6.1-3.9-2.3-6.5c1.1-0.7,3.4,0.5,3.6,0.3c2.7-2.3-1-1.1-0.6-3.8
		c0.4-2.9,4.5-6.6,6.1-7.6c1.4-0.9,2.8,1.5,3.9-0.6c0.5-1-2.9-2.8-3.6-3c2.8-3.6,5.4-7.3,7.6-11.3c1.6-2.9,1.8-2.5,3.7-3.2
		c1-0.4,3.6,2.5,4,0.4c0.5-2.7-3.5-3.2-3.6-5.6c-0.1-1.8,2-4.4,3.2-5.6c3.7,4.4,5.9-2,1.3-2.5c0.9-2.1,1.6-6.1,3.2-7.6
		c2.6-2.4,5,1.1,6.9-0.9c2.5-2.6-2.8-3.1-3.2-4.3c-0.6-1.4,0.2-5.3,2.5-5.9c0.7-0.2,3.7,1.9,4.9,2c-1-4.7-5-2.1-2.9-6.7
		c0.8-1.7,6.3-7.3,0.2-5.4c-2.1,0.7-3.8,6.5-4.6,8.2C43.6,50.9,40.8,56.5,38,62c-3.8,7.6-8.6,14.9-12.9,22.3
		c-5.4,9.3-10.8,18.6-16.2,27.8c-1,1.7,21.6,11.9,23.1,12.6c18.3,8.4,36.7,16.6,55.2,24.7C83.3,143.7,74.7,145.5,71.1,139.4"/>
	<path id="path11" class="st0" d="M87.3,149.7c1.4,0.9,2.9,1.5,4.5,1.7C90.6,150.9,87.2,149.7,87.3,149.7"/>
	<path id="path13" class="st0" d="M136,116.7c-1.1,2.4-2.3,4.8-3.4,7.1C134.1,121.7,135.5,118.9,136,116.7"/>
	<path id="path15" class="st0" d="M155.1,76.5c-1.6,3.5-3.2,7-4.8,10.5C152.3,83.6,153.9,80.2,155.1,76.5"/>
	<path id="path17" class="st0" d="M167.1,43.7C167.6,44.1,167.2,43.8,167.1,43.7"/>
	<path id="path19" class="st1" d="M169.7,47.4c-0.7,7.9-5.3,15.3-7.2,23c-2.6,10.8-6.5,19-12.8,28c-5.9,8.4-10.3,17.3-15.7,25.9
		c-3.2,5-9.2,11.1-10.7,16.3c4.6,1.9-4,10.9-5.5,13.2c-1.2,1.8-2.8,3.9-3.5,5.9c-1,3-0.2,2.2,0,4c0.1,1.4,0.8,5.4,1.7,6.6
		c6.5-6.8,9.5-18.5,13.8-26.7c-0.1,0-0.2,0.2-0.2,0.2c0-0.1-0.2,0.2-0.2,0.2c-0.2-3.6,3.2-8.7,4.5-11.9c3.3-8,5.9-16.4,12.1-22.8
		c0.6,3.5-3,5.9-4.4,8.8c-1.4,2.7-2.1,5.9-3.2,8.7c7.7-13.9,16.8-26.5,23.1-41.1C165.3,77.2,180.1,55.5,169.7,47.4"/>
	<path id="path21" class="st2" d="M72.3,15c-1.3,4.2-2.3-0.7-3.6-0.2c-2.8,1-4.4,5.2-6.6,7.1c2.6,3.5-0.9,1.2-2,2.2
		c-2.2,2-3.7,4.9-5.5,7.1c2.1,1,6.5,3.7,2.6,5.3c-2.9,1.2-7.1-6.2-8.7,0.2c5-0.7,0.9,3.2-0.1,5.1c-2.9,5.4,1.2,1.8,2.3,7.2
		c-2.7-0.2-10.7-3.7-7.9,3.6c0.5,1.3,6.3,1.6,4,4.4c-2.1,2.6-4.7-2.7-6.8,0.6c-1.6,2.5-2.4,5.4-3.5,8c4.6,0.6,2.4,7-1.3,2.5
		c-1.4,1.5-2.5,3.3-3.1,5.2c-1,3.2,4.1,2.7,3.5,6c-0.4,2-2.5-0.5-3.4-0.1c-0.6,0.2-1.4-1.1-2.1-0.9c-0.6,0.2-1.3,2.5-1.7,3.1
		c-3,3.6-5,8.4-8,12.1c2.4,0.8,3.9,2.3,2.7,4c-0.5,0.7-2.5-0.7-3-0.3c-0.8,0.5-1.1,1.1-2.4,2.3c-1.4,1.4-4.8,3.6-3.4,5.8
		c3.5,5.6,0.1,1.2-1.8,2.3c-5.3,3-2.4,6.1,2.7,8.1c4.7,1.8,9.4,3.7,14.2,5.4c8,2.9,15.9,6.1,23.7,9.7c7.7,3.6,14,9.7,21.4,13
		c6.5,2.9,12.2,6.1,18.9,8.6c2.3,0.8,13.1,3.8,14,5c0.1,0.2,0.3,0.4,0.4,0.6c3.6-7,7.8-11.7,12.6-17c2.4-2.6,3.2-7.2,5.1-10.9
		c8.2-15.7,16.2-31.7,23.8-47.8c4.3-9.1,7.8-18.6,11.2-28c0.7-1.9,4.7-10.1,3.2-11.2c-1.9-1.6-4-0.9-6.2-1.7
		c-7.2-2.4-13.1-8.7-20.6-11.4c-8.8-3.2-17.1-8-26.1-10.4c-10.7-2.9-24.8-2.1-33.3-9.7c-2.2-1.9-5.5-6.9-7.4-1
		C69.3,11.6,71.4,13.1,72.3,15 M73.9,54.6c5.3-5.1,8.2-12.4,12-18.4c3.3-5.2,5.8-2,11.3,0.2c6.3,2.5,12.7,4.6,19,6.9
		c7.8,2.8,21,4.2,17.5,14.2c-3,8.7-9.9,15.4-12,24.6c4.6-1.5,15.6-5.5,10.9,3.2c-3.4,6.4-12.1,7.4-17.1,10.5
		c-4.9,3-10.4,4.5-15.5,7.3c-6,3.3-14,9.8-20.8,10.7c-4.8,0.6-18.3,8-15.9-4.5c-8.7,1.6-16,3.9-23.1-3.3c-4.9-5-4.2-6.3-0.3-10.6
		c4.4-4.9,5.5-8.1,11.8-10.5c10.4-3.9,27.3-11.2,35.7,0.2c4.9,6.6-3.1,10-6.2,15.2c11.7-5.1,22.7-11.8,34.7-16.1
		c-3.3-0.4-6.5-0.8-9.4-1.5c-8.2-1.9-13.9-7.7-21.4-11.6c-3.1-1.6-14.3-4.8-15-7.9C69.7,61.8,73,56.5,73.9,54.6"/>
	<path id="path23" class="st3" d="M95.8,11.1c-1.8-0.4-3.5-0.8-5.3-1.2C91.9,10.2,97.5,12,95.8,11.1"/>
	<path id="path25" class="st3" d="M125.9,137.4c-0.7,1.3-1.3,2.7-2.1,4c0,0,0.2,0,0.2,0.1C124.8,140.5,125.7,138.5,125.9,137.4"/>
	<path id="path27" d="M141.3,108.1c2-3.6,3.2-7.6,4.4-11.5c-5.8,12.9-12.1,25.2-18.2,37.9C132.1,125.8,137,117.1,141.3,108.1"/>
	<path id="path29" d="M153,93.1c1.3,5.7-4,14.5-6.3,19.6c-3.3,7.2-6.6,14.4-10.1,21.6c-6.3,12.9-12.4,26-19.8,38.3
		c0-0.1,0.3-1,0.3-1.2c1,1.3,2.4,2.1,3.8,2.8c6.7-19.7,17.3-38.5,26.3-57.2c4.6-9.5,8.7-18.7,12.5-28.5c2.9-7.5,5.5-16.9,10-23.7
		c1.5-2.3,8.8-10.3,7.1-12.6c-2.2-3-4.8-5.5-7.1-8.4c-3.9-5.1-6.9-5.1-12.1-8.6c-15.1-10.1-33-18.2-50.9-21.7
		c-3.4-0.7-6.7-1.4-10.1-2c11.4,3.7,24.2,6.3,34.8,11.8c7.8,4,15.5,8,23.3,12c4,2.1,10.3,3.9,12.3,8.5c2.9,6.8-7.6,23.5-11,30.7
		c-2.8,5.9-5.5,11.6-8.2,17.5c8.7-14.1,13.8-29.6,21.2-44.5c4.1,2,4.8,5.1,3.3,7.9C166,67.9,159.5,80.5,153,93.1"/>
	<path id="path31" d="M78.3,5.4c-3.1,2.9,10,4,12.2,4.5C86.2,8.8,82.2,7.3,78.3,5.4"/>
	<path id="path33" d="M154.8,80.4c-1.5,4.1-4.4,7.3-6.5,10.9c-2.5,4.2-3.5,9-5.4,13.5c-4.7,11.3-11.9,21.6-16.8,32.8
		c0.1,0,0.2,0.1,0.2,0.2c7.7-4.9,11.9-19.9,17.1-27.6c4.1-6,8.3-8.8,9-16.1c0.7-7.1,1.5-13,4.6-19.6c1.5-3,15.7-25.6,12.8-26.8
		C167.4,46.6,156.3,77.1,154.8,80.4"/>
	<path id="path35" d="M170.4,49.7c-1-1.9-2-3.8-3-5.7c-4,10.9-8.3,21.7-12.2,32.6C162.7,67.8,166.3,60.6,170.4,49.7"/>
	<path id="path37" d="M145.7,96.6c1.1-3.1,3.1-6.5,4.5-9.6c-5.6,9.4-10.8,19.2-14.1,29.7C139.3,110,142.8,103.4,145.7,96.6"/>
	<path id="path39" d="M84.5,13.5c8.1,2.6,16.5,3.5,24.8,5.4c8.8,2,15.9,6.8,24.4,9.3c7.8,2.3,14.7,5.9,21.4,10.5
		c3.6,2.5,8.8,2.3,12,5.1c-4.1-6.7-14.2-9.5-20.9-12.9c-6.9-3.5-13.5-7.5-20.9-9.9c-16-5.2-31.5-10.2-47.8-13.9
		C79.1,9.5,82.2,12,84.5,13.5"/>
	<path id="path41" d="M132.6,123.8c-2.8,4.1-6.2,8.6-6.7,13.6C128.3,133,130.4,128.4,132.6,123.8"/>
	<path id="path43" d="M145.7,96.6c0.7-1.6,1.5-3.1,2.2-4.7C147.1,93.3,146.1,95.4,145.7,96.6"/>
	<path id="path45" d="M125.9,137.4c-0.1,0.1,1.3-2,1.6-2.9C127.1,135.5,126.3,136.7,125.9,137.4"/>
	<path id="path47" d="M118.8,150.4c0.8-1.3,1.6-2.6,2.2-4c-1.6,2.6-3.3,5.1-4.9,7.7C117.4,153,118.2,151.7,118.8,150.4"/>
	<path id="path49" d="M18.4,78.5c-0.8,2.5-1,5.5,1,7.4c2.2-3.8,4.4-7.6,6.7-11.3C23.2,75.4,20.2,76.5,18.4,78.5"/>
	<path id="path51" d="M16.1,91.3c-6.4-2.2-10.6,7-5.4,10.4C12.5,98.2,14.1,94.7,16.1,91.3"/>
	<path id="path53" d="M28.8,66.9c6.3-2.1,11.7-17.6,15.4-23.2c-4.4-0.7-7,2-6.3,6.1c0.4,2.6-2.4,2.6-3.6,4.1
		c-1.7,2.1-1.4,2.4-2.1,4.8c-0.6,1.7,1.6,3.6-1,4.1c-1.7,0.3-4,0.3-5.3,1.6c-2,2-0.5,6.9,1.1,8.8C28.6,71.2,29.2,69.3,28.8,66.9"/>
	<path id="path55" d="M116.2,166c-5.1-4.1,4-13.2,6.9-17.7c1-1.6,3.4-3.8,2.7-5.7c-1.2-3.5-4.6,3.9-5.3,5.1
		c-4.5,7.7-15.8,21-1.7,26.9C116.9,171.5,115.6,169.8,116.2,166"/>
	<path id="path57" d="M123,141c-5.8,4.4-9,10.9-12.2,17.2c-2.5-2.4-14.7-6.3-18.9-6.8c6.7,3,13.4,5.9,20.1,8.9
		C112.3,156,126.2,143.7,123,141"/>
	<path id="path59" d="M121.1,146.4c1.1-1.6,2.2-3.2,3.1-4.9c0,0-0.2,0-0.2-0.1c-0.1,0-0.1,0-0.2,0
		C122.9,143.1,122,144.8,121.1,146.4"/>
	<path id="path61" d="M112,159c0,0.5,0,1,0.1,1.3c1.3-2.1,2.7-4.2,4-6.3C114.5,155.5,113,157.2,112,159"/>
	<path id="path63" d="M72.8,61.9c0.3,4.7,11.3,7.2,15.3,9.2c3.9,2,7.2,4,10.6,6.8c4.6,3.8,7.7,3.7,13.2,4.6c3.8,0.6,5.8,2.5,10,0.6
		c5-2.2,5.5-9.3,8.6-14.3c2.2-3.6,9.4-12.3,7.4-17c-2.1-5.1-19-8.6-23.9-10.3c-4.6-1.6-9.2-3.3-13.7-5.1c-3.5-1.4-8.2-5.4-10.4-1.6
		c-2.8,4.8-5.4,8.8-8.4,13.4C79.2,51.5,76.1,59.9,72.8,61.9 M79.3,54.6c1.5-3.8,5.1-8.1,7.8-11.2c3.9-4.5,5.8-4.4,11.4-2.4
		c11.8,4.1,23.1,8.6,34.8,13c-4.4,7.4-7,16.1-11.4,23.3c-2.2,3.6-1.9,3.2-5.9,1.5c-2.3-0.9-4.2-2.5-6.7-3.2
		c-6.8-2.2-12-5.1-18.6-8.3c-1.6-0.8-12.8-5.5-12.5-6.3C78.9,58.8,79.5,56.8,79.3,54.6"/>
	<path id="path65" class="st1" d="M101.6,73.6c2.6,1.1,5.4,1.2,8.1,2.1c3.1,1,5.6,3.3,8.6,4.3c4.1,1.3,5.2-7.5,6.7-10.7
		c2.4-5.3,5.3-10.3,8.2-15.3c-8.2-3.1-15.9-7.6-24.2-10.1c-7.2-2.1-15.7-7.4-21.2-1.4c-4.1,4.4-7.4,9.6-8.6,15.2
		c-1.3,5.6,2.8,5.4,7.8,7.9C92,67.9,97.3,70.5,101.6,73.6"/>
	<path id="path67" d="M139.3,127.6c-2.7,5.7-6,11.1-8.6,16.9C134.1,139.2,137.1,133.6,139.3,127.6"/>
	<path id="path69" d="M144.3,113.9c-5.8,6.6-9,14.7-12.1,22.8c-1.2,3.2-4.9,8.5-4.5,12c3.4-6.5,7.4-13.4,10.1-20.3
		C139.3,124.7,145,117.5,144.3,113.9"/>
	<path id="path71" class="st1" d="M105.6,163.2c-1.4-3-4.4-3-7.3-3.6c-3-0.6-4.4-3.4-7.3-4.8c-3.7-1.8-7.7-2.1-11.7-2.9
		c-5-1-9.6-4.4-13.9-7c-10.2-6.3-22-10.8-33.1-15.5c-6.6-2.8-15.7-6.3-20.8-11.8c1.7,1.7,2.6,4.3,0.2,5.5c7,5.9,16.2,7,24.3,10.5
		c13.9,5.9,26.9,14.6,40.5,21.4c7.9,3.9,15.9,7.6,24.2,10.3c1.4,0.5,9.7,4.4,11.3,2.9c0.3-0.3-0.2-4.4-0.4-4.6
		C109.9,161.2,108.3,163.2,105.6,163.2"/>
	<path id="path73" class="st4" d="M112,166.3c0.1-1.2,0.6-1.7-0.2-2.8C111.8,164.4,111.9,165.7,112,166.3"/>
	<path id="path75" class="st5" d="M64.1,102.4c-0.6-0.2-1.2-0.4-1.7-1c5.2-2.3,10.3-4.5,15.5-6.7c2.7-1.1,13.8-3,10.7-7.4
		c-5-7.2-10.9-4.7-18-2.7c-3.3,0.9-18.5,3-19.6,6.8c-1.6,5.7,14.4,5.2,9.1,15.1c8.9-1.8,18.3-3.3,25.4-9.5c0,0.2-0.3,0.6-0.2,0.7
		c0.9-1,1.7-2.2,2.4-3.4C80.1,97.7,72.5,101.1,64.1,102.4"/>
	<path id="path77" d="M84.1,100.3c0.5-0.8,1-1.4,1.3-2.4c-1.3,1.2-2.5,2.4-3.8,3.6C82.4,101.1,83.3,100.7,84.1,100.3"/>
	<path id="path79" d="M73.2,105.1c-4.6,1.3-9.2,2.5-13.9,3.8c3.6-8.8,0.5-9.6-7.2-14.1c-8-4.7,6.5-7,9-7.6c7.4-2,14.8-4,22.2-6
		c2.1-0.6,4.5,3.5,5.3,4.7c3.2,4.6,3.5,4.3,0.4,9c10.1-2.3,0.1-13.1-5-15c-6.5-2.4-16.5,1.2-22.7,3.4c-3.3,1.2-9,2.2-11.6,4.3
		c-1,0.8-2.7,4.8-4.1,6.3c-3.7,4-6.7,5.2-2.9,10.5c3.7,5.1,8.2,7.1,14.2,6.9c3.2-0.1,6.6-0.9,10.1-1.5
		C68.1,109.7,71.8,105.8,73.2,105.1 M55.9,108.8c-3.2-0.3-6.1-1.6-8.6-3.6c-3.5-2.8-2.7-2.8-1.5-5.3c4.2-9,9.9-1.2,15.3,2.9
		C59.6,104.9,58.5,107.8,55.9,108.8"/>
	<path id="path81" d="M85.2,82.5c-3.2-3.3-8.6-0.3-12.2,0.7c-7,1.9-13.9,3.7-20.9,5.6c-5.8,1.6-2.2,5,1.6,7.2
		c6.6,3.9,7.3,5.2,4.4,12.4c6.1-1.7,24.2-3.9,27.6-11.3c-7.1,6.2-16.5,7.7-25.4,9.5C65.7,96.4,50,98.1,51,91.8
		c0.6-3.8,16.5-6.2,19.7-7.1c5.5-1.6,14.6-5.3,17.7,2.3c2.2,5.4-5.7,5.9-9.8,7.5c-5.5,2.1-10.8,4.6-16.2,6.9
		c3.3,2.7,15.6-2.3,19.3-3.8c1.3-0.5,3.7-1.8,4.8-2.6C92.4,90.4,89.3,87.8,85.2,82.5"/>
	<path id="path83" class="st5" d="M53.3,97.9c-4.9-5.7-3.9-1.3-7.7,1.1c-3.3,2.1-3.1,3-0.2,5.8c6.3,6.3,10.4,3.8,14.3-2.1
		C57.6,101.1,55.5,99.5,53.3,97.9"/>
	<path id="path85" class="st6" d="M131.9,84.3c-6.3-1.1-17.3,5.7-23.3,8c-8,3.1-15.3,7.5-23.1,10.8c0.4,0.9,1,2.5,1.4,3.3
		c6.9-0.7,12.5-6,19.1-7.9c2.6-0.7,11.2-4.5,12.5-3.2c0.8-0.4,1.6-0.8,2.4-1.2c-0.2,0-1,0.4-1.1,0.3
		C123.9,91.1,129.3,89.1,131.9,84.3"/>
	<path id="path87" class="st6" d="M91.7,107c-1.2,0.2-5.1,1.7-6.1,1.2c-1.5-0.8-2.8-5.3-1.7-6.3c3.8-3.6,10.6-5.4,15.2-7.6
		c7-3.3,14.4-5.6,21.5-8.5c-2.8-4.6-32.8,12.1-37.1,15.1c-2.5,1.8-4.3,4-7.2,5.4c-3.6,1.8-10,1.4-10.2,5.4
		c-0.5,10.6,18.3,1.8,21.6,0.1c7-3.5,12.6-8.4,20.2-10.8c3.1-1,9.6-2.5,10.4-5.8C109.8,99.8,100.8,103.3,91.7,107 M69.3,112.6
		c-0.7-1.7-0.1-3.8,2.1-3.8c1.8,0,1.5,3.1,2.6,3.2c4.1,0.6,0.5-1.9,1.4-3.5c0.4-0.7,7.8-5.9,8.1-2.6
		C83.9,110.9,73.9,115.4,69.3,112.6"/>
	<path id="path89" d="M128.8,82.7c2.2,0.2,4.3,0.4,6.5,0.6c-4.7,4.1-8.9,7.9-14.4,10.8c3.2-0.8,20.7-7.1,16.2-13.6
		c-2.1-3-12.8,0.8-12.8,4C125.7,83.9,127.6,83.2,128.8,82.7"/>
	<path id="path91" d="M120.7,85.8c2.2-0.3,4-1.4,4-3.6c-2,0.6-4,1.3-5.9,2.1C119.9,84.5,120,85.3,120.7,85.8"/>
	<path id="path93" d="M84.1,100.3c-4.7,2.5-16.2,3.2-17.8,9C73,108,79.7,105.9,84.1,100.3"/>
	<path id="path95" d="M71.9,104.7c3.2-0.9,6.9-1.3,9.7-3.2C78.5,102.8,75.1,103.2,71.9,104.7"/>
	<path id="path97" d="M135.2,83.3c-6.4-0.5-7.5,0.8-12,2.5c-6.1,2.4-14.1,4.1-20.9,7.1c-4.5,1.9-14.3,4.6-17.4,8.2
		c-1.4,1.6-2.1,5.6,0.8,7.1c1.5,0.8,6.1-1.2,7.9-1.9c3.4-1.4,24.4-7.7,24.7-11.8c-5.3,2.1-11.1,3-16.4,5.2
		c-5.1,2.1-9.2,6.1-14.9,6.7c-0.4-0.8-1.1-2.4-1.4-3.3c7.5-3.2,14.5-7.4,22.1-10.4c6.1-2.4,17.9-9.5,24.3-8.4
		c-2.6,4.7-8.3,7.1-12.1,10C125.8,92.6,130.6,87.3,135.2,83.3"/>
	<path id="path99" d="M124,85c-0.1,0-1.8,0.1-3.2,0.9c0,0,0.2,0.1,0.1,0.2C122.5,86.5,122.8,85.7,124,85"/>
	<path id="path101" d="M76.6,106.4c-3.3,1.6,0.9,2.8-0.2,4.4c-2.2,3.2-1.3,0.1-3.2-0.2c-0.5-0.1-5.1-3.8-4.4,0.9
		c0.7,5.1,10.3,0.4,12.2-1.3C87.4,104.3,81.1,106.1,76.6,106.4"/>
</g>
</svg>
