<?xml version="1.0" encoding="utf-8"?>
<!-- Generator: Adobe Illustrator 19.1.0, SVG Export Plug-In . SVG Version: 6.00 Build 0)  -->
<svg version="1.1" id="Layer_1" xmlns:ev="http://www.w3.org/2001/xml-events"
	 xmlns="http://www.w3.org/2000/svg" xmlns:xlink="http://www.w3.org/1999/xlink" x="0px" y="0px" viewBox="-1919 1921 160 160"
	 enable-background="new -1919 1921 160 160" xml:space="preserve">
<path fill="#E1E1AF" d="M-1839,1942c32.585,0,59,26.415,59,59s-26.415,59-59,59s-59-26.415-59-59S-1871.585,1942-1839,1942z"/>
<path fill="#20C05C" d="M-1825.825,1975.547l4.4-13.625l5.682,5.359L-1825.825,1975.547z M-1845.218,1956.734l10.921-1.317
	l-5.787,18.828L-1845.218,1956.734z M-1861.257,1965.719l6.71-2.823l-1.302,14.258L-1861.257,1965.719z"/>
<path fill="#00A6CE" d="M-1864.188,2010.846c-1.764,3.62,6.63,12.102,16.047,16c2.976,1.232,16.79,1.119,24.688-3.692
	c5.65-3.441,11.109-9.846,11.109-9.846l12.344-4.923l-8.641-19.693l-12.343,3.693c0,0-5.312-1.276-12.344-1.231
	C-1840.36,1991.199-1859.615,2001.467-1864.188,2010.846z"/>
<path fill="#504869" d="M-1812.344,2013.308c3.383,4.555-4.937,6.154-4.937,6.154s2.368,3.443,1.234,6.153
	c-1.089,2.604-8.641,1.231-8.641,1.231s1.742,3.692-1.234,4.923c-2.976,1.232-24.195-2.574-32.094-7.384
	c-5.65-3.442-8.64-11.077-8.64-11.077l-12.344-4.923l8.641-19.693l12.343,3.693c0,0,7.324-7.805,13.578-7.385
	c4.78,0.321,5.008,4.936,7.407,8.615C-1830.068,2004.295-1817.453,2006.427-1812.344,2013.308z"/>
<path fill="#FFFFFF" d="M-1807,2015l-11-27l13-4l9,26L-1807,2015z M-1882,2010l9-26l13,4l-11,27L-1882,2010z"/>
<path fill="#98C4E2" d="M-1869,1982l-11,31l-30-14l11-32L-1869,1982z"/>
<path fill="#27628A" d="M-1809,1982l11,31l30-14l-11-32L-1809,1982z"/>
<path fill="#00A6CE" d="M-1828.391,1998.538c-3.255-1.757-7.031-4.468-10.004-1.2c-2.89,3.177-8.472,4.033-11.334,1.025
	c-3.542-3.722,4.751-4.443,7.748-7.939c2.748-3.206,5.425-5.414,10.401-5.364c3.397,0.035,8.511,4.651,11.83,8.555
	C-1814.433,1999.871-1820.738,2002.671-1828.391,1998.538z M-1849.621,2024.378c0,0,2.392-4.812,4.943-3.842
	c2.551,0.969,2.725,6.074,2.725,6.074s0.261,5.858-4.903,5.073c-4.233-0.643-3.991-6.037-3.991-6.037s-1.505,5.466-6.207,3.881
	c-2.742-0.925-2.726-6.075-2.726-6.075s-2.874,1.159-5.138-2.309c-2.264-3.468,3.513-9.271,6.091-7.571
	c2.578,1.7,0.234,7.381,0.234,7.381s4.392-8.399,7.395-6.378C-1848.195,2016.595-1849.621,2024.378-1849.621,2024.378z"/>
<path fill="#27628A" d="M-1885,1998c1.657,0,3,1.343,3,3s-1.343,3-3,3s-3-1.343-3-3S-1886.657,1998-1885,1998z"/>
<path fill="#C0C8A0" d="M-1792,1998c1.657,0,3,1.343,3,3s-1.343,3-3,3s-3-1.343-3-3S-1793.657,1998-1792,1998z"/>
</svg>
