<?xml version="1.0" encoding="utf-8"?>
<!-- Generator: Adobe Illustrator 19.0.0, SVG Export Plug-In . SVG Version: 6.00 Build 0)  -->
<svg version="1.1" id="Layer_1" xmlns="http://www.w3.org/2000/svg" xmlns:xlink="http://www.w3.org/1999/xlink" x="0px" y="0px"
	 viewBox="0 0 180 180" style="enable-background:new 0 0 180 180;" xml:space="preserve">
<style type="text/css">
	.st0{fill:#2B393F;}
	.st1{fill:#D06A5B;}
	.st2{fill:#76A1A6;}
	.st3{fill:#F2F0BB;}
	.st4{fill:#DC42F9;}
	.st5{fill:#6C80D9;}
	.st6{fill:#FFFFFF;}
</style>
<path class="st0" d="M171.8,98.2c0.1,14.6,0,29.3-2.8,43.7c-0.2,1.1-0.3,2.3-0.6,3.5c-4.7,17.6-9.7,20.7-27.9,21.9
	c-33,2-66,1.2-99,1.6c-16.3,0.2-28.5-12.5-29.5-28.6c-1.3-20.4-2-40.9-3.2-61.3c-1-16-1.5-32.7,4.6-48.4c3.4-8.7,9.7-12.6,18.9-12.9
	c36.8-1.1,73.7-2.4,110.5-3.4c12.9-0.4,24.7,9.1,26.3,21.9C171.5,56.7,172.1,77.5,171.8,98.2z"/>
<path class="st1" d="M135.2,81.1c-6.3-12.5-14.5-23.6-24.7-33.3c-7.4-7.1-19.5-9-28.2-2.7c-13.7,9.9-23.2,23.9-33.8,36.6
	c-1.2,1.4-1.6,3.8-1.7,5.8c-1.3,19.2-17.8,27.3-27.7,40.3c-0.9-0.3-1.8-0.5-2.7-0.8c0-14.2-0.5-28.3,0.1-42.4
	c0.7-15.5,1.7-31,4.5-46.3c2.2-11.6,3.2-13.5,14.7-14.2c36.9-2.3,73.8-1,110.7-1.1c8.3,0,12.9,3.7,14.3,13c3.9,26,3.5,52,2.2,78
	c-0.4,7.6-0.8,15.2-1.3,22.8c-0.3,4.1-0.4,8.2-1.1,12.2c-0.7,4.5-2.5,9.2-7.2,10c-4.4,0.7-6-4.2-7.6-7.4c-4.9-10-9.2-20.2-13.8-30.4
	c-2.3-5.1,0.2-9.1,3.2-12.8c3.7-4.4,6.2-9.2,5.3-15.2C136.7,90.1,137.4,85,135.2,81.1z"/>
<path class="st2" d="M91.3,59.9c-0.9-3.6-2.8-7.1-0.5-12.5c3.1,8.4,9.4,13.2,12.6,20.1c7.8,3.7,9.7,12.4,14.9,18.3
	c1.6,1.8,2.3,4.2,5.1,4.7c1.9,1.2,3.9,2.2,6.2,1.4c2.6-0.8,3.6-2.8,4.1-5.2c7.5-0.6,3.7,5.3,4.8,8.4c-15.3,11.7-14.2,25.3-5.3,40.3
	c2.8,4.7,4,10.4,6.5,15.3c3.2,6.3,0.5,8.1-5.3,9.2c-13.1,2.5-13.8,2.5-20.2-9c-2.1-3.8-4.1-7.8-5.9-11.8c-2.8-6.1-3.9-12.2,0.2-18.3
	c2-3,3.2-6.3,1.9-10c-5.6-2.1-11.1-0.1-16.1,1.9c-5.6,2.2-8.8,1.4-11-4c-5.4-9.3-9.6-19.1-12-29.5c-0.7-3-1-6.3-0.8-9.4
	c0.1-1.7,0.3-4.6,3.1-4.1c0.9,0.2,1.3,2.9,1.9,4.5c3.9,4.2,3.1,10.5,6.2,14.4c-2.6-4.7-4.3-10.3-4.3-16.4c0.1-2.7,0.2-5.3,0.4-8.1
	c3.7,0.3,3.1,3.5,4.7,4.8c3.9,4,4.9,9.5,7.1,13.5c-1.7-4.6-5.1-9.4-5.4-15.3c1.8-2.8,3.4-0.9,5.1,0.2c2,1.3,3.3,3.1,4,5.1
	C91.3,66.1,92.9,62.6,91.3,59.9z"/>
<path class="st3" d="M106.8,112.4c-2.5,3.2-5,6.4-7.5,9.6c-7.8,10.1-11.9,10.4-21.4,1.5c-2.7-2.5-4.8-5.8-9.1-7.8
	c-0.1,6.8-5.9,9.6-9.2,14.2c-1.4,5.2-4.3,9.6-8.4,12.9c-5.7,4.5-10.8,9.6-15.9,14.7c-2,2-3.9,4.5-7.3,2.5c-2.2-2-4.7-3.6-6.4-5.9
	c-4.1-5.5-6.2-11-0.5-17.2c7.9-8.6,15.2-17.8,22.9-26.6c3.2-3.6,6.6-7.2,12-7.8c-6.2-10.1-5.3-17.1,2.7-25.2
	c4.2-4.3,6.8-5.3,8.3,2.2c1.5,7.7,3.2,15.4,7.3,22.3c1.7,2.8,3.3,5.5,6.1,7.2c5.8,5.5,12.2,4.2,18.8,1.7
	C102,109.8,105.7,106.1,106.8,112.4z"/>
<path class="st1" d="M61.7,132.1c6.5-6.9,12.9-7.9,20.3-0.9c3.9,3.7,8.4,7.9,14.7,3.6c1.7-1.2,3.4-0.1,4.4,1.6c0.6,1,1,2.1,1.6,3.1
	c10.8,21.5,10.8,21.5-13,21.9c-2.3,0-4.7,0.3-7,0.4c-14.6,1.6-29.1,0.4-43.7,0.7c-6.6,0.1-5.9-4-3-7.4
	C43.5,146.5,51.1,137.6,61.7,132.1z"/>
<path class="st0" d="M61.7,132.1c-7.2,6.8-14.5,13.5-21.6,20.4c-2,1.9-4.8,4.3-3.3,7.5c1.3,2.8,4.7,1.7,7.2,1.7
	c12.8,0.1,25.7,0.1,38.5,0.1c-18.3,1.8-36.5,4.5-54.5-1.8c7.1-7,14.1-14.1,21.2-21c3.3-3.2,6.9-6.1,10.4-9.2
	C60.3,130.7,61,131.4,61.7,132.1z"/>
<path class="st0" d="M123.3,96.5c-3.2,1.6-4.6-1.3-5.1-3c-2.8-9.9-11.9-16.2-14.8-26c0.2-1,0.4-2.1,0.6-3.1c4.2-2.9,7,0.5,10.1,2.3
	l0.4,0.4c3.1,2.9,3.9,7.7,8.2,9.6c0.1,0.9,0.3,1.8,0.4,2.8C125.8,85.2,125.6,90.8,123.3,96.5z"/>
<path class="st0" d="M106.8,112.4c-3.6-2.9-6.6,0.2-9.3,1.6c-7.5,3.8-13,2.6-17-4.9c0.9-0.1,1.9-0.2,2.8-0.3
	c5.3,4,10.5,1.2,15.7-0.3c4.3-1.3,8.6-2.9,11.4,2.5C109.3,111.4,108.1,111.9,106.8,112.4z"/>
<path class="st3" d="M123.3,96.5c-3.2-5.6-3-11.3-0.1-17c2.8-0.4,5-0.2,5.2,3.6c0.1,3,0.8,5.9,1.3,8.9
	C127.2,93,126.8,96.9,123.3,96.5z"/>
<path class="st0" d="M84.4,63.2c4.7,8.5,8.9,17.2,10.9,26.9C89,82.8,85.6,74,82.6,65C83.2,64.4,83.8,63.8,84.4,63.2z"/>
<path class="st0" d="M77.6,68.3c3.6,9.4,6.4,19.1,10.6,28.3c-7.6-7.2-10.9-16.4-12.5-26.4C76.3,69.6,76.9,69,77.6,68.3z"/>
<path class="st3" d="M122.8,76.8c-2.9,0.4-4.8,5.2-8.3,2.3c-4.4-3.7-0.2-7.9,0.1-11.9C122.3,66.1,122.3,71.6,122.8,76.8z"/>
<path class="st3" d="M114.2,66.7c-4.1,2.6-7.3,0.9-10.1-2.3c-0.6-4.4,1.7-8.4,5.4-8C114.9,57,113.1,63,114.2,66.7z"/>
<path class="st0" d="M91.3,59.9c3.2,5.9,7.3,11.5,9.3,20.3c-6-5.8-9.1-10.9-11.2-16.8C90.1,62.2,90.7,61.1,91.3,59.9z"/>
<path class="st3" d="M99.6,47.3c3.1,0.3,4.7,1.9,4.8,4.5c0,2.4-0.9,5-4,4.3c-2-0.5-5.3-0.8-5.1-3.6C95.4,50.2,96.8,47.5,99.6,47.3z"
	/>
<path class="st0" d="M138.6,95.2c-1.9-2.6-1.7-6.5-4.8-8.4c0.5-1.9,1-3.8,1.4-5.7c3.6,3.2,5.8,7.1,5.4,12.1
	C140,93.8,139.3,94.5,138.6,95.2z"/>
<path class="st0" d="M149.4,66.9c0.6,1.9,1.5,3.8,1.7,5.8c0.3,2.5-0.5,5.1-3,5.7c-2.8,0.7-2.9-2.4-3.7-4c-4.4-9-9.4-17.5-16.5-24.6
	c-1.9-1.9-5.9-4.2-3.1-7c3.3-3.4,5.3,1.4,7.6,3.1c1.1,0.9,2,2.1,3,3.1C144.5,51.5,146.5,59.5,149.4,66.9z"/>
<path class="st0" d="M65.2,40.9c-7.8,10.3-16.2,20.1-21.7,31.9c-0.6,1.3-1.7,2.8-3.4,2.2c-2.3-0.7-1.7-2.9-1.1-4.4
	C43.8,57.3,51.3,46.3,65.2,40.9z"/>
<path class="st0" d="M136.9,45.7c9.6-1.7,16,6.4,12.6,16.2C143,58.3,138.4,53.3,136.9,45.7z"/>
<path class="st0" d="M49.7,43.7c-3.1,4.6-5.3,10.2-10.4,13.5c-1.7,1.1-3.8-0.6-2.5-2.6C39.5,50.2,42.7,46,46,42
	C47.3,40.5,49.3,40.7,49.7,43.7z"/>
<path class="st0" d="M136.9,45.7c4.2,5.4,8.4,10.8,12.6,16.2c0,1.7-0.1,3.3-0.1,5c-4.7-5.9-9.3-11.9-14-17.8
	C135.9,47.9,136.4,46.8,136.9,45.7z"/>
<path class="st0" d="M29.1,89.5c2.6,0.4,3.5,2.1,3.9,4.1c0.4,1.8-0.1,3.8-2.2,3.9c-2.4,0.1-3.3-1.9-3.7-4
	C26.9,91.7,27.4,90.2,29.1,89.5z"/>
<path class="st0" d="M91.7,146.6c1.9,0,2.8,1,2.9,2.5c0.1,2-1,3.2-3,3.2c-1.6,0-2.8-0.8-2.9-2.4C88.7,148,89.9,146.9,91.7,146.6z"/>
<g>
	<rect x="-111.4" y="-78.5" class="st2" width="18" height="63.1"/>
	<rect x="-92.2" y="-78.5" class="st0" width="18" height="63.1"/>
	<rect x="-73" y="-78.5" class="st3" width="18" height="63.1"/>
	<rect x="-53.8" y="-78.5" class="st1" width="18" height="63.1"/>
</g>
<g>
	<path id="path3" d="M-92.5,176.8c-2.1-0.9-3.2-2.9-3.5-5.2c0.3,4.3-12.4-1.6-14.4-2.3c-13.3-4.6-25.3-11.8-37.8-18.1
		c-9.7-4.9-19.1-11-29.5-14.3c-6.4-2-13.4-4.2-18.5-8.6c2.4-1.2,1.6-3.8-0.2-5.5c6.8,7.3,19.1,11.2,28,14.8
		c12.8,5.1,24,13.7,36.8,18.5c4.8,1.8,10,1.6,14.7,3.9c3.6,1.8,5.2,3.7,9,5.1c2.8,1.1,6.3,4.2,8.6,2.7c1.5-0.9,2.5-0.2,3.2,0.9
		c1.9-6.6-19-11.6-24.6-14.1c-17.2-7.5-34.5-15.3-51.6-23.2c-8.9-4.1-17.1-8-25.4-13.3c-2.9-1.8,10.2-20.5,12-23.5
		c10-17.2,19.6-34.4,29-51.9c0-0.1-0.8,0.6-1.1,1c-1.5-3.3,2.6-3.7,3.8-5.9c4.7-8.9,12.5-15.9,19.2-23.4c-1.9-1.5-12.4-0.6-14.3,1.9
		c2.7,2.5,10.1,0.7,4.2,5.6c-0.3-0.2-0.3-0.6-0.6-0.8c-1.6,2.6-3.3,5.2-4.9,7.8c0.1,0,0.1,0,0.1-0.1c0,0.1,0.2-0.1,0.2-0.1
		c-0.1,1.9-1.1,3.6-2.5,5c0.1-0.6,0.2-1.2,0.3-1.8c-4.9,7.3-9.5,14-14.1,21.2c0.9-0.8,1.8-0.9,2.9-1.5c-0.6,1.6-1.4,3.1-2.5,4.5
		c-0.3-1.3-0.6-1.6-0.4-3c-1.3,2.8-2.7,5.5-4,8.3c0.2,0.1,0.7,0,1,0.2c-0.6,1.3-1.4,2.3-2.5,3.1c-0.1-0.2,0.1-0.7-0.1-0.9
		c-3.3,5.2-6.7,11.6-9.3,15.8c-2,3.4-5.6,8.1-7,11.6c-0.4,1.1-0.4,3.4-1.3,4.8c-1.1,1.7-3.4,0.8-4.4,4.1c4.1-2,2,2.8,0,4.5
		c-1.1-1.3-1-2.9,0-4.5c-1.2,2.4-3.8,5.4-2.5,7.4c-2.6,0.3-2.9,5.2-4.2,7.4c0.1-3.1,2.1-4.5,3.2-7.4c-4-0.3-7.4,0.9-7.6,5.4
		c-0.1,1.7,0.1,2.8,1.1,4.1c0.7,0.8,2.3-0.1,2.7,0.2c1,0.8,2.5,2.9,3.6,4.5c-2.7,0.7-0.7,5.3,0.4,7.5c2.5,5,6,5.2,10.5,6.6
		c12.1,3.7,22.6,9.8,33.6,16.3c6.7,4,58.9,31.6,62.1,24.2C-91.6,176.9-92,176.9-92.5,176.8"/>
	<path id="path5" d="M-150.5,29.1c2.2-3.5,4.5-7.1,5.1-10.3c-1-0.8-2.6-1.9-3.8-2.4c-1.6,2.8,1.4,6-0.3,8.3c-2,2.7-5.8,0.6-7.3,5.5
		c-0.3,1.2,0.3,3.9,0.1,4.3c-1,2.2-2.3,1-4.1,3.1c-1.9,2.1-2,6-1.1,8.6C-158.2,40.7-154.9,34-150.5,29.1"/>
	<path id="path7" d="M-155.2,39.7c2.7-0.2,5.6,3.4,7.8,2.2c3.4-1.8-1.2-4.4-3-5.2c1.9-2.3,3.4-5.1,5.5-7.1c1.1-1,4.6,1.2,2-2.2
		c1.6-1.4,2.9-3.1,4.1-4.8c1.7-2.4,3.1-0.8,3.7-1.2c0.5-0.3,2.1,1.9,2.5-0.9c0.4-2.7-3.7-2.5-2.1-5.7c-0.1,0-0.1,0-0.1-0.1
		c-0.1,0-0.1,0-0.1-0.1C-142.6,22.4-149.7,30.4-155.2,39.7"/>
	<path id="path9" d="M-136.8,144.7c-17.2-11-36.7-16-55-24.4c-2.8-1.3-6.1-3.9-2.3-6.5c1.1-0.7,3.4,0.5,3.6,0.3
		c2.7-2.3-1-1.1-0.6-3.8c0.4-2.9,4.5-6.6,6.1-7.6c1.4-0.9,2.8,1.5,3.9-0.6c0.5-1-2.9-2.8-3.6-3c2.8-3.6,5.4-7.3,7.6-11.3
		c1.6-2.9,1.8-2.5,3.7-3.2c1-0.4,3.6,2.5,4,0.4c0.5-2.7-3.5-3.2-3.6-5.6c-0.1-1.8,2-4.4,3.2-5.6c3.7,4.4,5.9-2,1.3-2.5
		c0.9-2.1,1.6-6.1,3.2-7.6c2.6-2.4,5,1.1,6.9-0.9c2.5-2.6-2.8-3.1-3.2-4.3c-0.6-1.4,0.2-5.3,2.5-5.9c0.7-0.2,3.7,1.9,4.9,2
		c-1-4.7-5-2.1-2.9-6.7c0.8-1.7,6.3-7.3,0.2-5.4c-2.1,0.7-3.8,6.5-4.6,8.2c-2.8,5.5-5.5,11.1-8.3,16.6c-3.8,7.6-8.6,14.9-12.9,22.3
		c-5.4,9.3-10.8,18.6-16.2,27.8c-1,1.7,21.6,11.9,23.1,12.6c18.3,8.4,36.7,16.6,55.2,24.7C-124.7,149-133.3,150.8-136.8,144.7"/>
	<path id="path11" class="st4" d="M-120.7,155c1.4,0.9,2.9,1.5,4.5,1.7C-117.3,156.2-120.7,155-120.7,155"/>
	<path id="path13" class="st4" d="M-71.9,122c-1.1,2.4-2.3,4.8-3.4,7.1C-73.9,127-72.5,124.2-71.9,122"/>
	<path id="path15" class="st4" d="M-52.9,81.8c-1.6,3.5-3.2,7-4.8,10.5C-55.7,88.9-54.1,85.5-52.9,81.8"/>
	<path id="path17" class="st4" d="M-40.9,49C-40.4,49.4-40.8,49.1-40.9,49"/>
	<path id="path19" class="st0" d="M-38.2,52.7c-0.7,7.9-5.3,15.3-7.2,23c-2.6,10.8-6.5,19-12.8,28c-5.9,8.4-10.3,17.3-15.7,25.9
		c-3.2,5-9.2,11.1-10.7,16.3c4.6,1.9-4,10.9-5.5,13.2c-1.2,1.8-2.8,3.9-3.5,5.9c-1,3-0.2,2.2,0,4c0.1,1.4,0.8,5.4,1.7,6.6
		c6.5-6.8,9.5-18.5,13.8-26.7c-0.1,0-0.2,0.2-0.2,0.2c0-0.1-0.2,0.2-0.2,0.2c-0.2-3.6,3.2-8.7,4.5-11.9c3.3-8,5.9-16.4,12.1-22.8
		c0.6,3.5-3,5.9-4.4,8.8c-1.4,2.7-2.1,5.9-3.2,8.7c7.7-13.9,16.8-26.5,23.1-41.1C-42.7,82.5-27.9,60.8-38.2,52.7"/>
	<path id="path21" class="st2" d="M-135.7,20.3c-1.3,4.2-2.3-0.7-3.6-0.2c-2.8,1-4.4,5.2-6.6,7.1c2.6,3.5-0.9,1.2-2,2.2
		c-2.2,2-3.7,4.9-5.5,7.1c2.1,1,6.5,3.7,2.6,5.3c-2.9,1.2-7.1-6.2-8.7,0.2c5-0.7,0.9,3.2-0.1,5.1c-2.9,5.4,1.2,1.8,2.3,7.2
		c-2.7-0.2-10.7-3.7-7.9,3.6c0.5,1.3,6.3,1.6,4,4.4c-2.1,2.6-4.7-2.7-6.8,0.6c-1.6,2.5-2.4,5.4-3.5,8c4.6,0.6,2.4,7-1.3,2.5
		c-1.4,1.5-2.5,3.3-3.1,5.2c-1,3.2,4.1,2.7,3.5,6c-0.4,2-2.5-0.5-3.4-0.1c-0.6,0.2-1.4-1.1-2.1-0.9c-0.6,0.2-1.3,2.5-1.7,3.1
		c-3,3.6-5,8.4-8,12.1c2.4,0.8,3.9,2.3,2.7,4c-0.5,0.7-2.5-0.7-3-0.3c-0.8,0.5-1.1,1.1-2.4,2.3c-1.4,1.4-4.8,3.6-3.4,5.8
		c3.5,5.6,0.1,1.2-1.8,2.3c-5.3,3-2.4,6.1,2.7,8.1c4.7,1.8,9.4,3.7,14.2,5.4c8,2.9,15.9,6.1,23.7,9.7c7.7,3.6,14,9.7,21.4,13
		c6.5,2.9,12.2,6.1,18.9,8.6c2.3,0.8,13.1,3.8,14,5c0.1,0.2,0.3,0.4,0.4,0.6c3.6-7,7.8-11.7,12.6-17c2.4-2.6,3.2-7.2,5.1-10.9
		c8.2-15.7,16.2-31.7,23.8-47.8c4.3-9.1,7.8-18.6,11.2-28c0.7-1.9,4.7-10.1,3.2-11.2c-1.9-1.6-4-0.9-6.2-1.7
		c-7.2-2.4-13.1-8.7-20.6-11.4c-8.8-3.2-17.1-8-26.1-10.4c-10.7-2.9-24.8-2.1-33.3-9.7c-2.2-1.9-5.5-6.9-7.4-1
		C-138.7,16.9-136.6,18.4-135.7,20.3 M-134.1,59.9c5.3-5.1,8.2-12.4,12-18.4c3.3-5.2,5.8-2,11.3,0.2c6.3,2.5,12.7,4.6,19,6.9
		c7.8,2.8,21,4.2,17.5,14.2c-3,8.7-9.9,15.4-12,24.6c4.6-1.5,15.6-5.5,10.9,3.2c-3.4,6.4-12.1,7.4-17.1,10.5
		c-4.9,3-10.4,4.5-15.5,7.3c-6,3.3-14,9.8-20.8,10.7c-4.8,0.6-18.3,8-15.9-4.5c-8.7,1.6-16,3.9-23.1-3.3c-4.9-5-4.2-6.3-0.3-10.6
		c4.4-4.9,5.5-8.1,11.8-10.5c10.4-3.9,27.3-11.2,35.7,0.2c4.9,6.6-3.1,10-6.2,15.2c11.7-5.1,22.7-11.8,34.7-16.1
		c-3.3-0.4-6.5-0.8-9.4-1.5c-8.2-1.9-13.9-7.7-21.4-11.6c-3.1-1.6-14.3-4.8-15-7.9C-138.2,67.1-134.9,61.8-134.1,59.9"/>
	<path id="path23" class="st5" d="M-112.2,16.4c-1.8-0.4-3.5-0.8-5.3-1.2C-116.1,15.5-110.5,17.3-112.2,16.4"/>
	<path id="path25" class="st5" d="M-82.1,142.7c-0.7,1.3-1.3,2.7-2.1,4c0,0,0.2,0,0.2,0.1C-83.2,145.8-82.3,143.8-82.1,142.7"/>
	<path id="path27" d="M-66.7,113.4c2-3.6,3.2-7.6,4.4-11.5c-5.8,12.9-12.1,25.2-18.2,37.9C-75.8,131.1-70.9,122.4-66.7,113.4"/>
	<path id="path29" d="M-55,98.4c1.3,5.7-4,14.5-6.3,19.6c-3.3,7.2-6.6,14.4-10.1,21.6c-6.3,12.9-12.4,26-19.8,38.3
		c0-0.1,0.3-1,0.3-1.2c1,1.3,2.4,2.1,3.8,2.8c6.7-19.7,17.3-38.5,26.3-57.2c4.6-9.5,8.7-18.7,12.5-28.5c2.9-7.5,5.5-16.9,10-23.7
		c1.5-2.3,8.8-10.3,7.1-12.6c-2.2-3-4.8-5.5-7.1-8.4c-3.9-5.1-6.9-5.1-12.1-8.6c-15.1-10.1-33-18.2-50.9-21.7
		c-3.4-0.7-6.7-1.4-10.1-2c11.4,3.7,24.2,6.3,34.8,11.8c7.8,4,15.5,8,23.3,12c4,2.1,10.3,3.9,12.3,8.5c2.9,6.8-7.6,23.5-11,30.7
		c-2.8,5.9-5.5,11.6-8.2,17.5c8.7-14.1,13.8-29.6,21.2-44.5c4.1,2,4.8,5.1,3.3,7.9C-42,73.2-48.5,85.8-55,98.4"/>
	<path id="path31" d="M-129.7,10.7c-3.1,2.9,10,4,12.2,4.5C-121.7,14.1-125.8,12.6-129.7,10.7"/>
	<path id="path33" d="M-53.2,85.7c-1.5,4.1-4.4,7.3-6.5,10.9c-2.5,4.2-3.5,9-5.4,13.5c-4.7,11.3-11.9,21.6-16.8,32.8
		c0.1,0,0.2,0.1,0.2,0.2c7.7-4.9,11.9-19.9,17.1-27.6c4.1-6,8.3-8.8,9-16.1c0.7-7.1,1.5-13,4.6-19.6c1.5-3,15.7-25.6,12.8-26.8
		C-40.6,51.9-51.7,82.4-53.2,85.7"/>
	<path id="path35" d="M-37.6,55c-1-1.9-2-3.8-3-5.7c-4,10.9-8.3,21.7-12.2,32.6C-45.3,73.1-41.7,65.9-37.6,55"/>
	<path id="path37" d="M-62.3,101.9c1.1-3.1,3.1-6.5,4.5-9.6c-5.6,9.4-10.8,19.2-14.1,29.7C-68.6,115.3-65.1,108.7-62.3,101.9"/>
	<path id="path39" d="M-123.4,18.7c8.1,2.6,16.5,3.5,24.8,5.4c8.8,2,15.9,6.8,24.4,9.3c7.8,2.3,14.7,5.9,21.4,10.5
		c3.6,2.5,8.8,2.3,12,5.1c-4.1-6.7-14.2-9.5-20.9-12.9c-6.9-3.5-13.5-7.5-20.9-9.9c-16-5.2-31.5-10.2-47.8-13.9
		C-128.9,14.8-125.7,17.3-123.4,18.7"/>
	<path id="path41" d="M-75.3,129.1c-2.8,4.1-6.2,8.6-6.7,13.6C-79.7,138.3-77.5,133.7-75.3,129.1"/>
	<path id="path43" d="M-62.3,101.9c0.7-1.6,1.5-3.1,2.2-4.7C-60.9,98.6-61.9,100.7-62.3,101.9"/>
	<path id="path45" d="M-82.1,142.7c-0.1,0.1,1.3-2,1.6-2.9C-80.9,140.8-81.7,142-82.1,142.7"/>
	<path id="path47" d="M-89.1,155.7c0.8-1.3,1.6-2.6,2.2-4c-1.6,2.6-3.3,5.1-4.9,7.7C-90.6,158.3-89.8,157-89.1,155.7"/>
	<path id="path49" d="M-189.6,83.8c-0.8,2.5-1,5.5,1,7.4c2.2-3.8,4.4-7.6,6.7-11.3C-184.7,80.7-187.8,81.8-189.6,83.8"/>
	<path id="path51" d="M-191.8,96.6c-6.4-2.2-10.6,7-5.4,10.4C-195.5,103.5-193.9,99.9-191.8,96.6"/>
	<path id="path53" d="M-179.1,72.2c6.3-2.1,11.7-17.6,15.4-23.2c-4.4-0.7-7,2-6.3,6.1c0.4,2.6-2.4,2.6-3.6,4.1
		c-1.7,2.1-1.4,2.4-2.1,4.8c-0.6,1.7,1.6,3.6-1,4.1c-1.7,0.3-4,0.3-5.3,1.6c-2,2-0.5,6.9,1.1,8.8C-179.4,76.5-178.7,74.6-179.1,72.2
		"/>
	<path id="path55" d="M-91.8,171.3c-5.1-4.1,4-13.2,6.9-17.7c1-1.6,3.4-3.8,2.7-5.7c-1.2-3.5-4.6,3.9-5.3,5.1
		c-4.5,7.7-15.8,21-1.7,26.9C-91.1,176.8-92.3,175.1-91.8,171.3"/>
	<path id="path57" d="M-85,146.3c-5.8,4.4-9,10.9-12.2,17.2c-2.5-2.4-14.7-6.3-18.9-6.8c6.7,3,13.4,5.9,20.1,8.9
		C-95.7,161.2-81.7,149-85,146.3"/>
	<path id="path59" d="M-86.9,151.7c1.1-1.6,2.2-3.2,3.1-4.9c0,0-0.2,0-0.2-0.1c-0.1,0-0.1,0-0.2,0C-85.1,148.4-86,150.1-86.9,151.7"
		/>
	<path id="path61" d="M-95.9,164.3c0,0.5,0,1,0.1,1.3c1.3-2.1,2.7-4.2,4-6.3C-93.4,160.8-95,162.5-95.9,164.3"/>
	<path id="path63" d="M-135.2,67.2c0.3,4.7,11.3,7.2,15.3,9.2c3.9,2,7.2,4,10.6,6.8c4.6,3.8,7.7,3.7,13.2,4.6
		c3.8,0.6,5.8,2.5,10,0.6c5-2.2,5.5-9.3,8.6-14.3c2.2-3.6,9.4-12.3,7.4-17c-2.1-5.1-19-8.6-23.9-10.3c-4.6-1.6-9.2-3.3-13.7-5.1
		c-3.5-1.4-8.2-5.4-10.4-1.6c-2.8,4.8-5.4,8.8-8.4,13.4C-128.8,56.8-131.9,65.2-135.2,67.2 M-128.7,59.9c1.5-3.8,5.1-8.1,7.8-11.2
		c3.9-4.5,5.8-4.4,11.4-2.4c11.8,4.1,23.1,8.6,34.8,13c-4.4,7.4-7,16.1-11.4,23.3c-2.2,3.6-1.9,3.2-5.9,1.5
		c-2.3-0.9-4.2-2.5-6.7-3.2c-6.8-2.2-12-5.1-18.6-8.3c-1.6-0.8-12.8-5.5-12.5-6.3C-129,64.1-128.5,62.1-128.7,59.9"/>
	<path id="path65" class="st0" d="M-106.3,78.9c2.6,1.1,5.4,1.2,8.1,2.1c3.1,1,5.6,3.3,8.6,4.3c4.1,1.3,5.2-7.5,6.7-10.7
		c2.4-5.3,5.3-10.3,8.2-15.3c-8.2-3.1-15.9-7.6-24.2-10.1c-7.2-2.1-15.7-7.4-21.2-1.4c-4.1,4.4-7.4,9.6-8.6,15.2
		c-1.3,5.6,2.8,5.4,7.8,7.9C-116,73.2-110.7,75.8-106.3,78.9"/>
	<path id="path67" d="M-68.7,132.9c-2.7,5.7-6,11.1-8.6,16.9C-73.9,144.5-70.9,138.9-68.7,132.9"/>
	<path id="path69" d="M-63.7,119.2c-5.8,6.6-9,14.7-12.1,22.8c-1.2,3.2-4.9,8.5-4.5,12c3.4-6.5,7.4-13.4,10.1-20.3
		C-68.6,130-63,122.7-63.7,119.2"/>
	<path id="path71" class="st0" d="M-102.4,168.5c-1.4-3-4.4-3-7.3-3.6c-3-0.6-4.4-3.4-7.3-4.8c-3.7-1.8-7.7-2.1-11.7-2.9
		c-5-1-9.6-4.4-13.9-7c-10.2-6.3-22-10.8-33.1-15.5c-6.6-2.8-15.7-6.3-20.8-11.8c1.7,1.7,2.6,4.3,0.2,5.5c7,5.9,16.2,7,24.3,10.5
		c13.9,5.9,26.9,14.6,40.5,21.4c7.9,3.9,15.9,7.6,24.2,10.3c1.4,0.5,9.7,4.4,11.3,2.9c0.3-0.3-0.2-4.4-0.4-4.6
		C-98.1,166.5-99.7,168.5-102.4,168.5"/>
	<path id="path73" class="st6" d="M-96,171.6c0.1-1.2,0.6-1.7-0.2-2.8C-96.2,169.7-96.1,171-96,171.6"/>
	<path id="path75" class="st3" d="M-143.9,107.7c-0.6-0.2-1.2-0.4-1.7-1c5.2-2.3,10.3-4.5,15.5-6.7c2.7-1.1,13.8-3,10.7-7.4
		c-5-7.2-10.9-4.7-18-2.7c-3.3,0.9-18.5,3-19.6,6.8c-1.6,5.7,14.4,5.2,9.1,15.1c8.9-1.8,18.3-3.3,25.4-9.5c0,0.2-0.3,0.6-0.2,0.7
		c0.9-1,1.7-2.2,2.4-3.4C-127.9,102.9-135.5,106.4-143.9,107.7"/>
	<path id="path77" d="M-123.8,105.6c0.5-0.8,1-1.4,1.3-2.4c-1.3,1.2-2.5,2.4-3.8,3.6C-125.5,106.4-124.7,106-123.8,105.6"/>
	<path id="path79" d="M-134.8,110.4c-4.6,1.3-9.2,2.5-13.9,3.8c3.6-8.8,0.5-9.6-7.2-14.1c-8-4.7,6.5-7,9-7.6c7.4-2,14.8-4,22.2-6
		c2.1-0.6,4.5,3.5,5.3,4.7c3.2,4.6,3.5,4.3,0.4,9c10.1-2.3,0.1-13.1-5-15c-6.5-2.4-16.5,1.2-22.7,3.4c-3.3,1.2-9,2.2-11.6,4.3
		c-1,0.8-2.7,4.8-4.1,6.3c-3.7,4-6.7,5.2-2.9,10.5c3.7,5.1,8.2,7.1,14.2,6.9c3.2-0.1,6.6-0.9,10.1-1.5
		C-139.9,115-136.2,111.1-134.8,110.4 M-152.1,114.1c-3.2-0.3-6.1-1.6-8.6-3.6c-3.5-2.8-2.7-2.8-1.5-5.3c4.2-9,9.9-1.2,15.3,2.9
		C-148.4,110.2-149.4,113-152.1,114.1"/>
	<path id="path81" d="M-122.7,87.8c-3.2-3.3-8.6-0.3-12.2,0.7c-7,1.9-13.9,3.7-20.9,5.6c-5.8,1.6-2.2,5,1.6,7.2
		c6.6,3.9,7.3,5.2,4.4,12.4c6.1-1.7,24.2-3.9,27.6-11.3c-7.1,6.2-16.5,7.7-25.4,9.5c5.5-10.3-10.2-8.6-9.2-14.9
		c0.6-3.8,16.5-6.2,19.7-7.1c5.5-1.6,14.6-5.3,17.7,2.3c2.2,5.4-5.7,5.9-9.8,7.5c-5.5,2.1-10.8,4.6-16.2,6.9
		c3.3,2.7,15.6-2.3,19.3-3.8c1.3-0.5,3.7-1.8,4.8-2.6C-115.6,95.7-118.7,93-122.7,87.8"/>
	<path id="path83" class="st3" d="M-154.7,103.2c-4.9-5.7-3.9-1.3-7.7,1.1c-3.3,2.1-3.1,3-0.2,5.8c6.3,6.3,10.4,3.8,14.3-2.1
		C-150.3,106.4-152.5,104.8-154.7,103.2"/>
	<path id="path85" class="st1" d="M-76.1,89.6c-6.3-1.1-17.3,5.7-23.3,8c-8,3.1-15.3,7.5-23.1,10.8c0.4,0.9,1,2.5,1.4,3.3
		c6.9-0.7,12.5-6,19.1-7.9c2.6-0.7,11.2-4.5,12.5-3.2c0.8-0.4,1.6-0.8,2.4-1.2c-0.2,0-1,0.4-1.1,0.3C-84.1,96.4-78.7,94.4-76.1,89.6
		"/>
	<path id="path87" class="st1" d="M-116.2,112.3c-1.2,0.2-5.1,1.7-6.1,1.2c-1.5-0.8-2.8-5.3-1.7-6.3c3.8-3.6,10.6-5.4,15.2-7.6
		c7-3.3,14.4-5.6,21.5-8.5c-2.8-4.6-32.8,12.1-37.1,15.1c-2.5,1.8-4.3,4-7.2,5.4c-3.6,1.8-10,1.4-10.2,5.4
		c-0.5,10.6,18.3,1.8,21.6,0.1c7-3.5,12.6-8.4,20.2-10.8c3.1-1,9.6-2.5,10.4-5.8C-98.2,105-107.2,108.6-116.2,112.3 M-138.7,117.9
		c-0.7-1.7-0.1-3.8,2.1-3.8c1.8,0,1.5,3.1,2.6,3.2c4.1,0.6,0.5-1.9,1.4-3.5c0.4-0.7,7.8-5.9,8.1-2.6
		C-124,116.2-134.1,120.7-138.7,117.9"/>
	<path id="path89" d="M-79.2,88c2.2,0.2,4.3,0.4,6.5,0.6c-4.7,4.1-8.9,7.9-14.4,10.8c3.2-0.8,20.7-7.1,16.2-13.6
		c-2.1-3-12.8,0.8-12.8,4C-82.3,89.2-80.4,88.5-79.2,88"/>
	<path id="path91" d="M-87.2,91.1c2.2-0.3,4-1.4,4-3.6c-2,0.6-4,1.3-5.9,2.1C-88.1,89.8-88,90.6-87.2,91.1"/>
	<path id="path93" d="M-123.8,105.6c-4.7,2.5-16.2,3.2-17.8,9C-134.9,113.3-128.2,111.2-123.8,105.6"/>
	<path id="path95" d="M-136,109.9c3.2-0.9,6.9-1.3,9.7-3.2C-129.5,108.1-132.9,108.5-136,109.9"/>
	<path id="path97" d="M-72.7,88.6c-6.4-0.5-7.5,0.8-12,2.5c-6.1,2.4-14.1,4.1-20.9,7.1c-4.5,1.9-14.3,4.6-17.4,8.2
		c-1.4,1.6-2.1,5.6,0.8,7.1c1.5,0.8,6.1-1.2,7.9-1.9c3.4-1.4,24.4-7.7,24.7-11.8c-5.3,2.1-11.1,3-16.4,5.2
		c-5.1,2.1-9.2,6.1-14.9,6.7c-0.4-0.8-1.1-2.4-1.4-3.3c7.5-3.2,14.5-7.4,22.1-10.4c6.1-2.4,17.9-9.5,24.3-8.4
		c-2.6,4.7-8.3,7.1-12.1,10C-82.1,97.9-77.4,92.6-72.7,88.6"/>
	<path id="path99" d="M-84,90.3c-0.1,0-1.8,0.1-3.2,0.9c0,0,0.2,0.1,0.1,0.2C-85.5,91.8-85.2,90.9-84,90.3"/>
	<path id="path101" d="M-131.4,111.7c-3.3,1.6,0.9,2.8-0.2,4.4c-2.2,3.2-1.3,0.1-3.2-0.2c-0.5-0.1-5.1-3.8-4.4,0.9
		c0.7,5.1,10.3,0.4,12.2-1.3C-120.6,109.6-126.9,111.4-131.4,111.7"/>
</g>
</svg>
