<?xml version="1.0" encoding="utf-8"?>
<!-- Generator: Adobe Illustrator 19.0.0, SVG Export Plug-In . SVG Version: 6.00 Build 0)  -->
<svg version="1.1" id="Layer_1" xmlns="http://www.w3.org/2000/svg" xmlns:xlink="http://www.w3.org/1999/xlink" x="0px" y="0px"
	 viewBox="0 0 180 180" style="enable-background:new 0 0 180 180;" xml:space="preserve">
<style type="text/css">
	.st0{fill:#2B393F;}
	.st1{fill:#D06A5B;}
	.st2{fill:#76A1A6;}
	.st3{fill:#F2F0BB;}
</style>
<g>
	<path class="st0" d="M179,97.3c0.1,15.8,0,31.6-3.1,47.2c-0.2,1.2-0.3,2.5-0.6,3.7c-5.1,19-10.5,22.4-30.1,23.6
		c-35.6,2.2-71.3,1.2-106.9,1.7C20.6,173.7,7.4,160,6.3,142.6c-1.4-22.1-2.1-44.2-3.5-66.2c-1-17.3-1.6-35.3,4.9-52.3
		c3.6-9.4,10.5-13.6,20.4-13.9C67.9,9,107.7,7.6,147.4,6.5c13.9-0.4,26.6,9.9,28.4,23.7C178.6,52.4,179.3,74.9,179,97.3z"/>
	<path class="st1" d="M139.4,78.8c-6.8-13.5-15.7-25.5-26.6-36c-8-7.7-21.1-9.7-30.5-3c-14.8,10.7-25,25.8-36.5,39.6
		c-1.3,1.6-1.7,4.1-1.9,6.3c-1.4,20.8-19.3,29.5-30,43.5c-1-0.3-2-0.5-2.9-0.8c0-15.3-0.6-30.6,0.1-45.8c0.8-16.7,1.8-33.4,4.9-50
		C18.4,20,19.6,18,32,17.2c39.8-2.5,79.7-1.1,119.5-1.2c9,0,14,3.9,15.5,14c4.2,28.1,3.8,56.1,2.4,84.3c-0.4,8.2-0.9,16.4-1.4,24.6
		c-0.3,4.4-0.5,8.9-1.2,13.2c-0.8,4.8-2.7,10-7.8,10.8c-4.8,0.8-6.5-4.6-8.2-8c-5.2-10.8-9.9-21.9-14.8-32.8
		c-2.5-5.6,0.2-9.8,3.5-13.8c4-4.8,6.7-9.9,5.8-16.4C141,88.5,141.8,83,139.4,78.8z"/>
	<path class="st2" d="M92,55.9c-1-3.9-3-7.6-0.5-13.4c3.3,9.1,10.2,14.2,13.6,21.7c8.5,4,10.5,13.3,16.1,19.8c1.7,2,2.4,4.6,5.5,5.1
		c2.1,1.3,4.2,2.3,6.7,1.5c2.8-0.8,3.9-3,4.5-5.6c8.1-0.6,4,5.7,5.2,9c-16.5,12.6-15.3,27.4-5.7,43.6c3,5.1,4.3,11.2,7,16.6
		c3.4,6.7,0.6,8.7-5.8,9.9c-14.2,2.7-14.9,2.7-21.8-9.7c-2.3-4.1-4.4-8.4-6.4-12.7c-3.1-6.6-4.2-13.2,0.2-19.8
		c2.1-3.2,3.4-6.8,2-10.8c-6.1-2.2-12-0.1-17.3,2c-6,2.4-9.5,1.5-11.9-4.3c-5.8-10-10.4-20.6-12.9-31.9c-0.7-3.3-1-6.8-0.9-10.1
		c0.1-1.8,0.4-5,3.3-4.4c1,0.2,1.4,3.2,2,4.8c4.2,4.6,3.3,11.4,6.7,15.6C79,77.6,77.2,71.5,77.2,65c0.1-2.9,0.3-5.8,0.4-8.7
		c4,0.3,3.3,3.7,5,5.2c4.2,4.3,5.2,10.2,7.7,14.6c-1.9-5-5.5-10.2-5.8-16.5c1.9-3,3.7-1,5.5,0.2c2.1,1.4,3.5,3.3,4.3,5.5
		C92,62.6,93.8,58.8,92,55.9z"/>
	<path class="st3" d="M108.8,112.6c-2.7,3.5-5.4,6.9-8.1,10.4c-8.4,10.9-12.8,11.2-23.1,1.6c-2.9-2.7-5.2-6.3-9.8-8.4
		c-0.1,7.4-6.4,10.4-9.9,15.3c-1.6,5.6-4.6,10.4-9,13.9c-6.1,4.9-11.7,10.4-17.1,15.9c-2.2,2.2-4.2,4.9-7.9,2.7
		c-2.3-2.1-5.1-3.9-6.9-6.4c-4.4-5.9-6.7-11.9-0.5-18.6c8.6-9.3,16.4-19.2,24.7-28.7c3.5-3.9,7.1-7.8,13-8.4
		c-6.7-10.9-5.7-18.5,2.9-27.2c4.5-4.6,7.4-5.7,8.9,2.4c1.6,8.3,3.5,16.7,7.9,24.1c1.8,3,3.6,5.9,6.6,7.8c6.3,6,13.1,4.6,20.3,1.8
		C103.5,109.8,107.5,105.8,108.8,112.6z"/>
	<path class="st1" d="M60.1,133.9c7-7.5,13.9-8.5,21.9-0.9c4.2,4,9.1,8.5,15.9,3.9c1.8-1.2,3.7-0.1,4.7,1.7c0.6,1.1,1.1,2.3,1.7,3.4
		c11.6,23.2,11.6,23.2-14.1,23.7c-2.5,0-5.1,0.3-7.6,0.4c-15.7,1.8-31.5,0.5-47.2,0.7c-7.2,0.1-6.3-4.3-3.2-7.9
		C40.3,149.4,48.6,139.8,60.1,133.9z"/>
	<path class="st0" d="M60.1,133.9c-7.8,7.3-15.7,14.6-23.3,22.1c-2.1,2.1-5.2,4.7-3.5,8.1c1.5,3,5.1,1.8,7.7,1.8
		c13.9,0.1,27.7,0.1,41.6,0.2c-19.7,2-39.4,4.9-58.9-2c7.6-7.6,15.2-15.2,22.9-22.6c3.6-3.5,7.4-6.6,11.2-9.9
		C58.6,132.3,59.3,133.1,60.1,133.9z"/>
	<path class="st0" d="M126.5,95.4c-3.4,1.7-5-1.4-5.5-3.2c-3-10.7-12.8-17.5-15.9-28.1c0.2-1.1,0.4-2.2,0.6-3.3
		c4.5-3.1,7.6,0.5,10.9,2.5l0.4,0.5c3.4,3.1,4.2,8.4,8.9,10.4c0.1,1,0.3,2,0.4,3C129.3,83.2,129,89.3,126.5,95.4z"/>
	<path class="st0" d="M108.8,112.6c-3.9-3.2-7.2,0.3-10,1.7c-8.1,4.1-14,2.8-18.3-5.3c1-0.1,2-0.2,3-0.4c5.8,4.3,11.4,1.3,17-0.4
		c4.6-1.4,9.3-3.1,12.3,2.7C111.4,111.5,110.1,112.1,108.8,112.6z"/>
	<path class="st3" d="M126.5,95.4c-3.5-6.1-3.3-12.2-0.1-18.3c3-0.5,5.4-0.2,5.6,3.8c0.1,3.2,0.9,6.4,1.4,9.6
		C130.7,91.6,130.3,95.8,126.5,95.4z"/>
	<path class="st0" d="M84.5,59.5c5.1,9.1,9.6,18.5,11.8,29c-6.8-7.9-10.4-17.4-13.7-27.1C83.3,60.8,83.9,60.1,84.5,59.5z"/>
	<path class="st0" d="M77.2,65c3.9,10.1,6.9,20.6,11.4,30.6c-8.2-7.8-11.8-17.7-13.5-28.5C75.8,66.4,76.5,65.7,77.2,65z"/>
	<path class="st3" d="M124.5,72.6c-3,0.5-5,5.4-8.5,2.4c-4.5-3.8-0.2-8.1,0.1-12.2C124,61.6,124,67.3,124.5,72.6z"/>
	<path class="st3" d="M115.7,62.3c-4.3,2.7-7.5,0.9-10.4-2.4c-0.6-4.5,1.7-8.6,5.6-8.2C116.4,52.3,114.6,58.4,115.7,62.3z"/>
	<path class="st0" d="M92,55.9c3.5,6.4,7.8,12.4,10.1,21.9C95.6,71.5,92.3,66,90,59.7C90.7,58.4,91.3,57.2,92,55.9z"/>
	<path class="st3" d="M100.8,42.3c3.2,0.3,4.9,1.9,4.9,4.6c0,2.5-1,5.1-4.1,4.4c-2.1-0.5-5.4-0.8-5.3-3.6
		C96.4,45.3,97.8,42.5,100.8,42.3z"/>
	<path class="st0" d="M143.1,94c-2.1-2.8-1.9-7-5.2-9c0.5-2,1-4.1,1.6-6.1c3.9,3.5,6.2,7.7,5.8,13.1C144.5,92.6,143.8,93.3,143.1,94
		z"/>
</g>
</svg>
