<?xml version="1.0"?><svg width="788.87598" height="1095.6573" xmlns="http://www.w3.org/2000/svg" xmlns:xlink="http://www.w3.org/1999/xlink">
 <defs>
  <filter color-interpolation-filters="sRGB" id="filter3845">
   <feGaussianBlur id="feGaussianBlur3847" stdDeviation="8.991094"/>
  </filter>
 </defs>
 <metadata id="metadata7">image/svg+xml</metadata>
 <g>
  <title>Layer 1</title>
  <g id="layer1">
   <path fill="#ffffaa" filter="url(#filter3845)" d="m31.475262,71.554977l0,1047.523758l741.822102,0l0,-1047.523758l-677.783485,0c0.964066,2.394882 1.523247,5.004326 1.523247,7.744461c0,11.465012 -9.306618,20.776299 -20.765915,20.776299c-11.45929,0 -20.734837,-9.311287 -20.734837,-20.776299c0,-2.740135 0.528114,-5.349579 1.492157,-7.744461l-25.553268,0zm43.739017,70.042267c0.35363,-0.017944 0.69883,0 1.056946,0c11.459282,0 20.765915,9.280167 20.765915,20.745178c0,11.465027 -9.306633,20.745209 -20.765915,20.745209c-11.459297,0 -20.73484,-9.280182 -20.73484,-20.745209c0,-11.106735 8.714806,-20.189194 19.677895,-20.745178zm-42.682068,12.969635c11.459293,0 20.765923,9.311279 20.765923,20.776291c0,11.465027 -9.306629,20.745209 -20.765923,20.745209c-11.459288,0 -20.734837,-9.280182 -20.734837,-20.745209c0,-11.465012 9.275549,-20.776291 20.734837,-20.776291zm0,83.042984c11.459293,0 20.765923,9.311279 20.765923,20.776306c0,11.464996 -9.306629,20.745239 -20.765923,20.745239c-11.459288,0 -20.734837,-9.280243 -20.734837,-20.745239c0,-11.465027 9.275549,-20.776306 20.734837,-20.776306zm0,83.04303c11.459293,0 20.765923,9.280182 20.765923,20.745178c0,11.465027 -9.306629,20.776306 -20.765923,20.776306c-11.459288,0 -20.734837,-9.311279 -20.734837,-20.776306c0,-11.464996 9.275549,-20.745178 20.734837,-20.745178zm0,83.042969c11.459293,0 20.765923,9.280212 20.765923,20.745239c0,11.464996 -9.306629,20.776276 -20.765923,20.776276c-11.459288,0 -20.734837,-9.311279 -20.734837,-20.776276c0,-11.465027 9.275549,-20.745239 20.734837,-20.745239zm-1.05695,83.04303c0.353653,-0.017914 0.698849,0 1.05695,0c11.459293,0 20.765923,9.280182 20.765923,20.745178c0,11.465027 -9.306629,20.776245 -20.765923,20.776245c-11.459288,0 -20.734837,-9.311218 -20.734837,-20.776245c0,-11.10675 8.714815,-20.189209 19.677887,-20.745178zm1.05695,83.011841c11.459293,0 20.765923,9.311279 20.765923,20.776367c0,11.465027 -9.306629,20.745178 -20.765923,20.745178c-11.459288,0 -20.734837,-9.280151 -20.734837,-20.745178c0,-11.465088 9.275549,-20.776367 20.734837,-20.776367zm0,83.04303c11.459293,0 20.765923,9.311279 20.765923,20.776245c0,11.465088 -9.306629,20.745178 -20.765923,20.745178c-11.459288,0 -20.734837,-9.28009 -20.734837,-20.745178c0,-11.464966 9.275549,-20.776245 20.734837,-20.776245zm0,83.04303c11.459293,0 20.765923,9.280151 20.765923,20.745178c0,11.465027 -9.306629,20.776245 -20.765923,20.776245c-11.459288,0 -20.734837,-9.311218 -20.734837,-20.776245c0,-11.465027 9.275549,-20.745178 20.734837,-20.745178zm0,83.042908c11.459293,0 20.765923,9.280212 20.765923,20.745178c0,11.465088 -9.306629,20.776367 -20.765923,20.776367c-11.459288,0 -20.734837,-9.311279 -20.734837,-20.776367c0,-11.464966 9.275549,-20.745178 20.734837,-20.745178zm0,83.04303c11.459293,0 20.765923,9.280212 20.765923,20.745178c0,11.465088 -9.306629,20.776306 -20.765923,20.776306c-11.459288,0 -20.734837,-9.311218 -20.734837,-20.776306c0,-11.464966 9.275549,-20.745178 20.734837,-20.745178zm0,83.011841c11.459293,0 20.765923,9.311279 20.765923,20.77655c0,11.464966 -9.306629,20.745056 -20.765923,20.745056c-11.459288,0 -20.734837,-9.28009 -20.734837,-20.745056c0,-11.465271 9.275549,-20.77655 20.734837,-20.77655z" id="path3763"/>
   <g id="g3804">
    <path fill="#ffffaa" d="m26.501766,66.578896l0,1047.523521l741.822086,0l0,-1047.523521l-677.783463,0c0.96405,2.39489 1.523239,5.004349 1.523239,7.744461c0,11.465019 -9.306633,20.776299 -20.765915,20.776299c-11.45929,0 -20.734837,-9.311279 -20.734837,-20.776299c0,-2.740112 0.528103,-5.349571 1.492161,-7.744461l-25.553272,0zm43.739002,70.042259c0.353653,-0.017914 0.698845,0 1.056946,0c11.459282,0 20.765915,9.280197 20.765915,20.745209c0,11.464996 -9.306633,20.745193 -20.765915,20.745193c-11.45929,0 -20.734837,-9.280197 -20.734837,-20.745193c0,-11.106735 8.714806,-20.189224 19.677891,-20.745209zm1.056946,83.011917c11.459282,0 20.765915,9.311249 20.765915,20.776276c0,11.465012 -9.306633,20.745193 -20.765915,20.745193c-11.45929,0 -20.734837,-9.280182 -20.734837,-20.745193c0,-11.465027 9.275547,-20.776276 20.734837,-20.776276zm0,83.042984c11.459282,0 20.765915,9.311279 20.765915,20.776306c0,11.464996 -9.306633,20.745209 -20.765915,20.745209c-11.45929,0 -20.734837,-9.280212 -20.734837,-20.745209c0,-11.465027 9.275547,-20.776306 20.734837,-20.776306zm0,83.042999c11.459282,0 20.765915,9.280182 20.765915,20.745178c0,11.464996 -9.306633,20.776306 -20.765915,20.776306c-11.45929,0 -20.734837,-9.31131 -20.734837,-20.776306c0,-11.464996 9.275547,-20.745178 20.734837,-20.745178zm0,83.042999c11.459282,0 20.765915,9.280182 20.765915,20.745209c0,11.464996 -9.306633,20.776306 -20.765915,20.776306c-11.45929,0 -20.734837,-9.31131 -20.734837,-20.776306c0,-11.465027 9.275547,-20.745209 20.734837,-20.745209zm-1.056946,83.042999c0.353653,-0.017883 0.698845,0 1.056946,0c11.459282,0 20.765915,9.280151 20.765915,20.745178c0,11.464966 -9.306633,20.776306 -20.765915,20.776306c-11.45929,0 -20.734837,-9.31134 -20.734837,-20.776306c0,-11.106689 8.714806,-20.189148 19.677891,-20.745178zm1.056946,83.011902c11.459282,0 20.765915,9.311279 20.765915,20.776306c0,11.464966 -9.306633,20.745178 -20.765915,20.745178c-11.45929,0 -20.734837,-9.280212 -20.734837,-20.745178c0,-11.465027 9.275547,-20.776306 20.734837,-20.776306zm0,83.042969c11.459282,0 20.765915,9.311279 20.765915,20.776306c0,11.465027 -9.306633,20.745239 -20.765915,20.745239c-11.45929,0 -20.734837,-9.280212 -20.734837,-20.745239c0,-11.465027 9.275547,-20.776306 20.734837,-20.776306zm0,83.04303c11.459282,0 20.765915,9.280212 20.765915,20.745178c0,11.465027 -9.306633,20.776306 -20.765915,20.776306c-11.45929,0 -20.734837,-9.311279 -20.734837,-20.776306c0,-11.464966 9.275547,-20.745178 20.734837,-20.745178zm0,83.042969c11.459282,0 20.765915,9.280273 20.765915,20.745239c0,11.465027 -9.306633,20.776306 -20.765915,20.776306c-11.45929,0 -20.734837,-9.311279 -20.734837,-20.776306c0,-11.464966 9.275547,-20.745239 20.734837,-20.745239zm0,83.04303c11.459282,0 20.765915,9.280151 20.765915,20.745178c0,11.464966 -9.306633,20.776245 -20.765915,20.776245c-11.45929,0 -20.734837,-9.311279 -20.734837,-20.776245c0,-11.465027 9.275547,-20.745178 20.734837,-20.745178zm0,83.01178c11.459282,0 20.765915,9.311279 20.765915,20.776367c0,11.464966 -9.306633,20.745117 -20.765915,20.745117c-11.45929,0 -20.734837,-9.280151 -20.734837,-20.745117c0,-11.465088 9.275547,-20.776367 20.734837,-20.776367z" id="rect2816"/>
    <g id="g3777">
     <path fill="#ffffaa" stroke="#ff5555" stroke-width="3" stroke-miterlimit="4" id="path2880" d="m153.115921,66.737473l0,1047.415359"/>
     <path fill="#ffffaa" stroke="#ff5555" stroke-width="1.758296" stroke-miterlimit="4" d="m766.990723,200.480133l-613.269028,0" id="path3656"/>
     <path fill="#ffffaa" stroke="#ff5555" stroke-width="1.758296" stroke-miterlimit="4" id="path3658" d="m766.990723,1032.527588l-613.269028,0"/>
     <path fill="#ffffaa" stroke="#5f8dd3" stroke-width="1.758296" stroke-miterlimit="4" id="path3660" d="m766.989624,598.420898l-613.268997,0"/>
     <use transform="matrix(0.994775 0 0 0.995272 3.04598 5.29587)" fill="#ffffaa" height="1052.3622" width="744.09448" id="use3682" xlink:href="#path3660" y="-36.347813" x="0"/>
     <use transform="matrix(0.994775 0 0 0.995272 3.04598 5.29587)" fill="#ffffaa" height="1052.3622" width="744.09448" id="use3684" xlink:href="#path3660" y="-72.695656" x="0"/>
     <use transform="matrix(0.994775 0 0 0.995272 3.04598 5.29587)" fill="#ffffaa" height="1052.3622" width="744.09448" id="use3686" xlink:href="#path3660" y="-109.043488" x="0"/>
     <use transform="matrix(0.994775 0 0 0.995272 3.04598 5.29587)" fill="#ffffaa" height="1052.3622" width="744.09448" id="use3688" xlink:href="#path3660" y="-145.391327" x="0"/>
     <use transform="matrix(0.994775 0 0 0.995272 3.04598 5.29587)" fill="#ffffaa" height="1052.3622" width="744.09448" id="use3690" xlink:href="#path3660" y="-181.739166" x="0"/>
     <use transform="matrix(0.994775 0 0 0.995272 3.04598 5.29587)" fill="#ffffaa" height="1052.3622" width="744.09448" id="use3692" xlink:href="#path3660" y="-218.087006" x="0"/>
     <use transform="matrix(0.994775 0 0 0.995272 3.04598 5.29587)" fill="#ffffaa" height="1052.3622" width="744.09448" id="use3694" xlink:href="#path3660" y="-254.434845" x="0"/>
     <use transform="matrix(0.994775 0 0 0.995272 3.04598 5.29587)" fill="#ffffaa" height="1052.3622" width="744.09448" id="use3696" xlink:href="#path3660" y="-290.782684" x="0"/>
     <use transform="matrix(0.994775 0 0 0.995272 3.04598 5.29587)" fill="#ffffaa" height="1052.3622" width="744.09448" id="use3698" xlink:href="#path3660" y="-327.130524" x="0"/>
     <use transform="matrix(0.994775 0 0 0.995272 3.04598 5.29587)" fill="#ffffaa" height="1052.3622" width="744.09448" id="use3700" xlink:href="#path3660" y="-363.478363" x="0"/>
     <use transform="matrix(0.994775 0 0 0.995272 3.04598 5.29587)" fill="#ffffaa" height="1052.3622" width="744.09448" x="0" y="36.347843" xlink:href="#path3660" id="use3702"/>
     <use transform="matrix(0.994775 0 0 0.995272 3.04598 5.29587)" fill="#ffffaa" id="use3704" xlink:href="#path3660" y="109.04351" x="0" width="744.09448" height="1052.3622"/>
     <use transform="matrix(0.994775 0 0 0.995272 3.04598 5.29587)" fill="#ffffaa" height="1052.3622" width="744.09448" x="0" y="145.391357" xlink:href="#path3660" id="use3706"/>
     <use transform="matrix(0.994775 0 0 0.995272 3.04598 5.29587)" fill="#ffffaa" id="use3708" xlink:href="#path3660" y="181.739197" x="0" width="744.09448" height="1052.3622"/>
     <use transform="matrix(0.994775 0 0 0.995272 3.04598 5.29587)" fill="#ffffaa" height="1052.3622" width="744.09448" x="0" y="218.087036" xlink:href="#path3660" id="use3710"/>
     <use transform="matrix(0.994775 0 0 0.995272 3.04598 5.29587)" fill="#ffffaa" id="use3712" xlink:href="#path3660" y="254.434875" x="0" width="744.09448" height="1052.3622"/>
     <use transform="matrix(0.994775 0 0 0.995272 3.04598 5.29587)" fill="#ffffaa" height="1052.3622" width="744.09448" x="0" y="290.782715" xlink:href="#path3660" id="use3714"/>
     <use transform="matrix(0.994775 0 0 0.995272 3.04598 5.29587)" fill="#ffffaa" id="use3716" xlink:href="#path3660" y="327.130524" x="0" width="744.09448" height="1052.3622"/>
     <use transform="matrix(0.994775 0 0 0.995272 3.04598 5.29587)" fill="#ffffaa" height="1052.3622" width="744.09448" x="0" y="399.826172" xlink:href="#path3660" id="use3718"/>
     <use transform="matrix(0.994775 0 0 0.995272 3.04598 5.29587)" fill="#ffffaa" height="1052.3622" width="744.09448" x="0" y="72.695671" xlink:href="#path3660" id="use3720"/>
     <use transform="matrix(0.994775 0 0 0.995272 3.04598 5.29587)" fill="#ffffaa" id="use3722" xlink:href="#path3660" y="363.478363" x="0" width="744.09448" height="1052.3622"/>
    </g>
   </g>
  </g>
 </g>
</svg>