<?xml version="1.0" encoding="utf-8"?>
<!-- Generator: Adobe Illustrator 19.0.0, SVG Export Plug-In . SVG Version: 6.00 Build 0)  -->
<svg version="1.1" id="Capa_1" xmlns="http://www.w3.org/2000/svg" xmlns:xlink="http://www.w3.org/1999/xlink" x="0px" y="0px"
	 viewBox="-6326.3 -3594.8 6918.3 4252.8" style="enable-background:new -6326.3 -3594.8 6918.3 4252.8;" xml:space="preserve">
<style type="text/css">
	.st0{fill:#EC1C24;}
	.st1{fill:#314DA0;}
</style>
<path class="st0" d="M250.9,450.8c10.7,0,21.4,11,21.9,11c8.4,0,12.6-9.6,26-9.6c0,12.1-8.8,24.9-17.2,30.8
	c-7.5,5.3-10.9,3.1-20.1-4.4c-4.6-3.7-13.5-12.1-15.1-17.9C245.4,457.1,247.2,450.8,250.9,450.8L250.9,450.8z M272.8,408.3
	c4.4,3.2,1.4,1.4,4.4,6.6c2.1,3.5,2.5,3.3,4.9,6c3.9,4.4,4.4,9.7,4.4,18.9c0,4.9-4.2,4.1-12.3,9.6c-4.8-7.2-15-9.6-24.6-9.6
	c-7.2,0-14.2,10.4-11.8,1.9c0.7-2.6,0.9-2.3,6.8-4.2c4.1-1.3,5.3-1.8,8.7-3.6C260.7,429.9,271.9,418.4,272.8,408.3L272.8,408.3z
	 M319.3,433c10.9,0,22-11.2,27-18.1c11.8-16.3,15.4-46.3-22.5-14.3c-2.7,2.3-4,3.7-8.6,3.7c-0.1,0-30.1-15.2-30.1-1.4
	C285.1,416.4,315.4,433,319.3,433L319.3,433z M197.5,387.8c0,10.3,8.4,18.8,14,24.3c3.5,3.5,16.8,16.8,21.6,16.8
	c6.5,0,18.9-7.1,22.1-10.7c12-13.5,12.6-34.5,1.1-34.5c-7,0-11.7,3.1-16.4,5.5c-4.5,2.3-9,5.8-13.7,6.9
	C224.6,395.8,197.5,372.9,197.5,387.8L197.5,387.8z M315.2,323.4c14.2,0,9,6.8,19.2,6.8c5.8,0,23.3-25.2,23.3,0
	c0,12.6-9,30.1-20.5,30.1C328.1,360.4,298.2,323.4,315.2,323.4L315.2,323.4z M298.8,327.6c0,16.2,20.1,39.5,32.9,42.4v11
	c-21.5,11.4-7,12.4-25.9,6.8c-3.7-1.1-7.2-1.3-12.4-1.3c-1.6-19.2-2.7-35.5-2.7-57.5c4.2-1.1,6.4-3.3,9.6-5.5
	C299.7,325,298.8,327.2,298.8,327.6L298.8,327.6z M365.9,315.2l0.4,0.4C366.3,315.6,365.7,315.4,365.9,315.2L365.9,315.2z
	 M309.7,312.5L309.7,312.5L309.7,312.5z M283.7,320.7c1.7,0,9.6-7.5,11.3-9.2c10.9-10.9,17.3-24.6,16.1-40.1
	c-6.8,1.6-10.6,5.2-15.5,9.1c-3.2,2.6-3.7,2.7-6.7,5.6c-11.4,11-12.2-1.1-28.4-1.1C225.6,285.1,273.6,320.7,283.7,320.7L283.7,320.7
	z M338.5,250.9c0-18.6,25.7,3.8,28.7,4.1c6.2,0.7,15.1-16.4,28.8-16.4c16.6,0-8.1,56.1-30.7,41.7c-4.8-3-6.7-4.9-11-8.2
	C348.8,267.7,338.5,258.4,338.5,250.9L338.5,250.9z M309.7,312.5c4.5-8.5,22.2-39.3,8.5-49.6c-11.9-8.9-27.5,7.3-33.7,12.2
	c-4.7,3.7-5.8,3-12.2,0.9c-8.4-2.7-22.7-3.5-29.2,1.3c-22.2,16.5,16.6,49.7,36.5,54.3c0,21.7,1.1,38.4,2.7,57.5l-5.7,3.9
	c-0.2,0.2-0.5,0.6-0.6,0.8c-0.1,0.2-0.4,0.5-0.6,0.8c0-21.7-17-25.3-34.1-19c-4.8,1.8-9.6,5.5-13.8,6.7c-10.1-2.7-11.7-12.1-30-9.5
	c-11.5,1.6-14,15-9.2,26.8c9.8,24.3,35.5,33.7,37.8,41.6c8.6,28.8-5.2,132.6,4.1,152c14.8,3.4,8.3-7.8,8.2-19.1l1.4-65.7
	c-0.1-11.4,0-22.8,0-34.2c10.8,7.2,5.9,10.5,30.1,23.3l-0.1,73.9c-0.9,9.2-4.7,13.7,8.3,13.7c4.1-7.8,2.6-9.6,2.7-20.6
	c0.1-8.3,1.8-12.3,1.5-21.9c-0.3-7.7-1.5-12.3-1.4-21.9c0-8.2,0-16.4,0-24.6c4.2-1,5.3-2.1,8.2-4.1c0,21.9-2.6,72,1.4,89
	c12.4,1,9.6,2.2,9.6-32.9l0.3-66.8c0.9-4.7,14.8-21.5,8-34.6c-4.9-9.4-10.8,0.3-11-12.2c9.6,6.4,9,5.4,17.8,9.6
	c0,24.8,1.4,47.8,1.4,73.9c0,13.3-4.5,64.7-1.4,71.2c2.6,1.2,4.4,1.8,6.9,0.2c3.7-2.3,2.7-3.1,2.8-8.3c0.3-16.6,2.7-41.3,2.6-60.3
	c-0.1-23.1,0.6-37.9-1.3-60.3c-1.5-17.1-0.4-16.5,4-17.7l-1.4,141c0.9,4.1,4.6,6.2,8.8,3.6c4.1-2.5,2.1-44.6,2.1-51.5
	c0-8.7-0.2-17.4-0.1-26.1c0.1-8.5,1.4-14.3,1.4-24.6c0-12.6-2.8-43.3,2.5-50.9c2.2-3.2,16.3-11.4,20.8-31.3
	c5.2-23.1-11-31.1-21.9-25.9c0.2-10.5,1.2-1.8,13.4-14l11.2-17.5l2.7,75.3c0.2,6.9,1.4,7.6,1.5,15c0.3,25.4,4.2,68,4.1,90.4
	c-0.1,12.2-2.1,54.4,1.4,61.6c7.7,3.7,9.7,2.1,9.7-6.7l-0.1-59.1c-0.1-7.8-1.5-9.5-1.5-17.7c0-23.3-1.5-35.3-2.7-57.5l-1.3-37
	c0.1-8.4-1-11.2-1.4-17.8s0.1-13.9,0.1-20.6c-0.1-7.8-1.5-9.5-1.5-17.7v-60.3c9.9-4.8,15.8-6.7,23.1-16.6
	c13.8-18.5,18.1-50.3-8-49.2c-12,0.5-18.4,8.7-26,13.8c-38.6-25.8-55.6,11.7-23.9,36.2c6.7,5.2,13.5,12.4,22.5,14.5v21.9
	c-3.5-2.4-9.3-11.5-25.1-1.8C323.3,322.7,343.1,312.5,309.7,312.5z"/>
<path class="st0" d="M137.7,233.1c0-17.3,23.1,2.7,23.3,2.7c8.3,0,13.1-9.8,27.4-11c4.3,8.1,2.1,13.5-2.7,23.3
	c-2.7,5.4-8.6,16.2-15.5,17.1C162.3,266.3,137.7,242.9,137.7,233.1L137.7,233.1z M183.5,213.9c-2.6,0.4-5.6,1.3-8.9,2.7l-10.9,6.9
	c-11.7-7.9-8.7-8.2-23.3-8.2c-11.7,0-13.7,11.8-13.7,20.5c0,15.2,25.3,33.5,37,39.7c0,14.5,0.3,27.3,1.3,39.8l6.9,158.7
	c-0.1,8.8,1.3,11.2,1.4,19.1c0.1,6.8-0.1,13.8-0.1,20.6c0,8.8,1.4,11.2,1.5,19.1l-0.1,41.1c-0.1,10.3-1.8,16.4,6.9,16.4
	c7.1,0,4.1-14.5,4.1-34.2c0-22.9-0.2-49.5-2.5-70c-0.6-5.7,0-11.9-0.2-17.6c-0.2-7-1.5-8.4-1.5-16.3c0-18.7-2.8-41.5-2.7-52
	c0.1-16.8-1.4-20.9-1.3-34.3c0.1-8.4-1.2-10.6-1.4-17.7c-0.4-11.8,0.9-25.5,0-36.9c-0.9-11.3-1.3-22.4-1.3-35.7
	c22.6-6,38.2-56.8,16.3-61.6L183.5,213.9L183.5,213.9z"/>
<path class="st1" d="M117.7,359c-1.5-1-31.5-24.2-31.5-1.4v6.8c0,16.4,18,37.9,31.5,41.1c0,23.7,5.6,69.7,5.4,93.1
	c-0.1,9.5,1.5,13.3,1.4,23.2v49.3c0,7.5-2.3,19.2,5.5,19.2c3.2,0,5.5-2.3,5.5-5.5v-53.4c0-22.7-2.6-42-2.7-63l-4.1-61.6
	c35-8.2,36.1-60.2,21.9-60.2c-9.6,0-11.3-0.2-20.1,4.5C125.8,353.8,121.8,357.9,117.7,359z"/>
<path class="st1" d="M12.2,402.1c-3.9,0-16.7-8.9-20-11.5c-26.5-20.8-11.6-30.6,7.7-21.4c15.1,7.2,7.4,5.7,23.5-5.2
	c14.4-9.8,14.8-9,23-7.1C52.3,379.1,24.8,402.1,12.2,402.1L12.2,402.1z M58.7,360.5c-0.4-8.9-5.2-15.9-17.8-15.9
	c-9.5,0-27.8,11-31.5,16.4c-19.1-10.1-42.4-7.4-42.4,8.2c0,23.3,22.2,33.8,41.1,43.8c0,59.6-5.5,115-5.5,175.2c0,5.9,8.6,3.3,11,2.7
	c0-61.4,5.5-118.3,5.5-179.3c10.6-0.9,20.2-11.1,26.4-17.4c6.2-6.4,12.8-19.9,13.3-31.2v-2.5H58.7z"/>
<path class="st0" d="M74.2,490.5c-6.7,0-35.6-17.3-35.6-30.1c0-13.8,30,1.4,30.1,1.4c6.3,0,7.1-3.1,11.9-5.9
	C115.8,434.9,90.8,490.5,74.2,490.5L74.2,490.5z M52.3,443.9c-17.4,0-24.6,0.7-24.6,20.5c0,11.5,21.8,27.5,31,31.9
	c15.5,7.5,9.6,19.4,8.7,36.5v46.6c0,6.3,9.6,9.4,10.9-2.8c0.8-7,0.1-18.5,0.1-25.9c0-27.8,2.6-18.4,0-49.3
	c27.9-6.5,44.3-61.6,17.8-61.6c-15.3,0-14,3.4-23.7,7.9C65.8,450.8,62.5,443.9,52.3,443.9z"/>
<path class="st1" d="M-44.4,519.5c-13.6,0-34.1-45.6-5.2-28.4c3.9,2.3,4.6,4.8,9.8,4.8c0.1,0,24.7-12.5,24.7-1.1
	C-15.2,505.3-38.9,519.5-44.4,519.5L-44.4,519.5z M-43,484.4c-8-3.7-6.9-6.5-19.4-6.5c-21.7,0-8.3,45.2,14.6,50.5
	c-2.1,25.3,0,17.6,0,40.4c0,6.1-0.6,15.5,0.1,21.2c1.1,10,8.9,7.5,8.9,2.3v-38.2c-0.7-14-5.6-23.8,7.1-29.9
	c7.5-3.6,25.4-16.7,25.4-26.2c0-16.2-5.9-16.8-20.2-16.8C-34.8,481.3-37.5,486.9-43,484.4z"/>
<path class="st1" d="M-199.8,257.4c0-17,22.7,2.6,22.8,2.6c8.1,0,12.8-9.6,26.9-10.8c4.2,7.9,2.1,13.2-2.6,22.8
	c-2.6,5.3-8.4,15.9-15.2,16.8C-175.7,290-199.8,267-199.8,257.4L-199.8,257.4z M-154.9,238.6c-2.5,0.4-5.5,1.3-8.7,2.6l-10.7,6.8
	c-11.5-7.7-8.5-8-22.8-8c-11.5,0-13.4,11.6-13.4,20.1c0,14.9,24.8,32.8,36.3,38.9c0,14.2,0.3,26.8,1.3,39l6.8,155.6
	c-0.1,8.6,1.3,11,1.4,18.7c0.1,6.7-0.1,13.5-0.1,20.2c0,8.6,1.4,11,1.5,18.7l-0.1,40.3c-0.1,10.1-1.8,16.1,6.8,16.1
	c7,0,4-14.2,4-33.5c0-22.5-0.2-48.5-2.5-68.6c-0.6-5.6,0-11.7-0.2-17.3c-0.2-6.9-1.5-8.2-1.5-16c0-18.3-2.7-40.7-2.6-51
	c0.1-16.5-1.4-20.5-1.3-33.6c0.1-8.2-1.2-10.4-1.4-17.4c-0.4-11.6,0.9-25,0-36.2c-0.9-11.1-1.3-22-1.3-35
	c22.2-5.9,37.5-55.7,16-60.4L-154.9,238.6L-154.9,238.6z"/>
<path class="st0" d="M-3286.1-2181.8c10.9,0,22-11.2,27-18.1c11.8-16.3,15.4-46.3-22.5-14.3c-2.7,2.3-4,3.7-8.6,3.7
	c-0.1,0-30.1-15.2-30.1-1.4C-3320.3-2198.4-3290-2181.8-3286.1-2181.8L-3286.1-2181.8z"/>
<path class="st0" d="M-2826.7-949.8c0,10.3,8.4,18.8,14,24.3c3.5,3.5,16.8,16.8,21.6,16.8c6.5,0,18.9-7.1,22.1-10.7
	c12-13.5,12.6-34.5,1.1-34.5c-7,0-11.7,3.1-16.4,5.5c-4.5,2.3-9,5.8-13.7,6.9C-2799.6-941.8-2826.7-964.7-2826.7-949.8
	L-2826.7-949.8z"/>
<path class="st0" d="M-68.3,8.5c14.2,0,9,6.8,19.2,6.8c5.8,0,23.3-25.2,23.3,0c0,12.6-9,30.1-20.5,30.1
	C-55.4,45.5-85.3,8.5-68.3,8.5L-68.3,8.5z"/>
<path class="st0" d="M-341.6,87l0.4,0.4C-341.2,87.4-341.8,87.2-341.6,87L-341.6,87z"/>
<path class="st0" d="M-397.8,84.3L-397.8,84.3L-397.8,84.3z"/>
<path class="st0" d="M144.5,81.8c1.7,0,9.6-7.5,11.3-9.2c10.9-10.9,17.3-24.6,16.1-40.1c-6.8,1.6-10.6,5.2-15.5,9.1
	c-3.2,2.6-3.7,2.7-6.7,5.6c-11.4,11-12.2-1.1-28.4-1.1C86.4,46.2,134.4,81.8,144.5,81.8L144.5,81.8z"/>
<path class="st0" d="M-4440.2-2922.7c0-18.6,25.7,3.8,28.7,4.1c6.2,0.7,15.1-16.4,28.8-16.4c16.6,0-8.1,56.1-30.7,41.7
	c-4.8-3-6.7-4.9-11-8.2C-4429.9-2905.9-4440.2-2915.2-4440.2-2922.7L-4440.2-2922.7z"/>
<path class="st1" d="M-106,417.4c-1.2-0.8-24.7-19-24.7-1.1v5.3c0,12.9,14.1,29.7,24.7,32.3c0,18.6,4.4,54.7,4.2,73.1
	c-0.1,7.5,1.2,10.4,1.1,18.2v38.7c0,5.9-1.8,15.1,4.3,15.1c2.5,0,4.3-1.8,4.3-4.3v-41.9c0-17.8-2-33-2.1-49.5l-3.2-48.4
	c27.5-6.4,28.3-47.3,17.2-47.3c-7.5,0-8.9-0.2-15.8,3.5C-99.6,413.3-102.7,416.6-106,417.4z"/>
<path class="st1" d="M-792.1-360.9c3.7,0,5.5,6.3,4.5,9.9c-1.6,5.8-10.5,14.2-15.1,17.9c-9.2,7.5-12.6,9.7-20.1,4.4
	c-8.4-5.9-17.2-18.7-17.2-30.8c13.4,0,17.6,9.6,26,9.6C-813.5-349.9-802.8-360.9-792.1-360.9L-792.1-360.9z"/>
<path class="st1" d="M-1986.9-447c13.6,0,27.5-14,33.8-22.6c14.8-20.4,19.3-57.9-28.1-17.9c-3.4,2.9-5,4.6-10.8,4.6
	c-0.1,0-37.6-19-37.6-1.8C-2029.7-467.7-1991.8-447-1986.9-447L-1986.9-447z"/>
<path class="st1" d="M-66.5,274.2c0,7.9,6.4,14.4,10.7,18.6c2.7,2.7,12.9,12.9,16.6,12.9c5,0,14.5-5.4,16.9-8.2
	c9.2-10.3,9.7-26.4,0.8-26.4c-5.4,0-9,2.4-12.6,4.2c-3.4,1.8-6.9,4.4-10.5,5.3C-45.8,280.4-66.5,262.8-66.5,274.2L-66.5,274.2z"/>
<path class="st0" d="M-1126.6-129.3c14.2,0,9,6.8,19.2,6.8c5.8,0,23.3-25.2,23.3,0c0,12.6-9,30.1-20.5,30.1
	C-1113.7-92.3-1143.6-129.3-1126.6-129.3L-1126.6-129.3z"/>
<path class="st1" d="M-1366.4-240.7c1.7,0,9.6-7.5,11.3-9.2c10.9-10.9,17.3-24.6,16.1-40.1c-6.8,1.6-10.6,5.2-15.5,9.1
	c-3.2,2.6-3.7,2.7-6.7,5.6c-11.4,11-12.2-1.1-28.4-1.1C-1424.5-276.3-1376.5-240.7-1366.4-240.7L-1366.4-240.7z"/>
<path class="st1" d="M-3721.5-1738.8c0-18.6,25.7,3.8,28.7,4.1c6.2,0.7,15.1-16.4,28.8-16.4c16.6,0-8.1,56.1-30.7,41.7
	c-4.8-3-6.7-4.9-11-8.2C-3711.2-1722-3721.5-1731.3-3721.5-1738.8L-3721.5-1738.8z"/>
<path class="st1" d="M-480.3,82.8c1.9,0,2.8,3.2,2.3,5c-0.8,2.9-5.3,7.2-7.6,9.1c-4.7,3.8-6.4,4.9-10.2,2.2c-4.3-3-8.7-9.5-8.7-15.6
	c6.8,0,8.9,4.9,13.2,4.9C-491.1,88.4-485.7,82.8-480.3,82.8L-480.3,82.8z"/>
<path class="st1" d="M-353.9,325.7c2.6,0,3.9,4.5,3.2,7c-1.1,4.1-7.5,10.1-10.7,12.7c-6.5,5.3-9,6.9-14.3,3.1
	c-6-4.2-12.2-13.3-12.2-21.9c9.5,0,12.5,6.8,18.5,6.8C-369.1,333.5-361.5,325.7-353.9,325.7L-353.9,325.7z"/>
<path class="st1" d="M282.2-277.6c2.6,0,3.8,4.4,3.1,6.9c-1.1,4-7.3,9.9-10.5,12.4c-6.4,5.2-8.8,6.7-14,3.1c-5.8-4.1-12-13-12-21.4
	c9.3,0,12.2,6.7,18.1,6.7C267.3-269.9,274.8-277.6,282.2-277.6L282.2-277.6z"/>
<path class="st0" d="M-280.3,406.6c-7.3-3.9-8.7-3.7-16.6-3.7c-11.7,0-10.8,42.9,18,49.6l-3.4,50.8c-0.1,17.3-2.2,33.2-2.2,51.9v44
	c0,2.6,1.9,4.5,4.5,4.5c6.4,0,4.5-9.6,4.5-15.8v-40.6c-0.1-8.2,1.2-11.3,1.2-19.1c-0.2-19.3,4.5-57.2,4.5-76.7
	c11.1-2.6,26-20.4,26-33.9V412c0-18.8-24.7,0.3-26,1.2C-273.1,412.2-276.4,408.9-280.3,406.6z"/>
<path class="st0" d="M-225.3,353.9c-1.6-1.1-34-26.1-34-1.5v7.3c0,17.7,19.4,40.9,34,44.4c0,25.6,6.1,75.3,5.8,100.6
	c-0.1,10.3,1.6,14.4,1.5,25.1V583c0,8.1-2.5,20.7,5.9,20.7c3.5,0,5.9-2.5,5.9-5.9v-57.7c0-24.5-2.8-45.4-2.9-68.1l-4.4-66.6
	c37.8-8.9,39-65,23.7-65c-10.4,0-12.2-0.2-21.7,4.9C-216.5,348.2-220.8,352.7-225.3,353.9z"/>
<path class="st1" d="M-530.2-214.4c0,7.9,6.4,14.4,10.7,18.6c2.7,2.7,12.9,12.9,16.6,12.9c5,0,14.5-5.4,16.9-8.2
	c9.2-10.3,9.7-26.4,0.8-26.4c-5.4,0-9,2.4-12.6,4.2c-3.4,1.8-6.9,4.4-10.5,5.3C-509.5-208.2-530.2-225.8-530.2-214.4L-530.2-214.4z"
	/>
<path class="st0" d="M-717.4-38.1c1.7,0,9.6-7.5,11.3-9.2c10.9-10.9,17.3-24.6,16.1-40.1c-6.8,1.6-10.6,5.2-15.5,9.1
	c-3.2,2.6-3.7,2.7-6.7,5.6c-11.4,11-12.2-1.1-28.4-1.1C-775.5-73.7-727.5-38.1-717.4-38.1L-717.4-38.1z"/>
<path class="st0" d="M-238.8-33c2.1,0,11.6-9,13.6-11.1c13.1-13.1,20.9-29.7,19.4-48.4c-8.2,1.9-12.8,6.3-18.7,11
	c-3.9,3.1-4.5,3.3-8.1,6.8c-13.8,13.3-14.7-1.3-34.3-1.3C-308.9-75.9-251-33-238.8-33L-238.8-33z"/>
<path class="st0" d="M-395-914.9c1.2,0,6.6-5.1,7.7-6.3c7.5-7.5,11.8-16.8,11-27.5c-4.7,1.1-7.3,3.6-10.6,6.2
	c-2.2,1.8-2.5,1.8-4.6,3.8c-7.8,7.5-8.4-0.8-19.4-0.8C-434.8-939.2-402-914.9-395-914.9L-395-914.9z"/>
<path class="st0" d="M-1468.3-746.7c9.6,0,19.2,9.9,19.7,9.9c7.5,0,11.3-8.6,23.3-8.6c0,10.9-7.9,22.3-15.4,27.6
	c-6.7,4.8-9.8,2.8-18-3.9c-4.1-3.3-12.1-10.9-13.5-16.1C-1473.2-741-1471.6-746.7-1468.3-746.7L-1468.3-746.7z"/>
</svg>
