<?xml version="1.0" encoding="utf-8"?>
<!-- Generator: Adobe Illustrator 19.0.0, SVG Export Plug-In . SVG Version: 6.00 Build 0)  -->
<svg version="1.1" id="Layer_1" xmlns="http://www.w3.org/2000/svg" xmlns:xlink="http://www.w3.org/1999/xlink" x="0px" y="0px"
	 viewBox="1074 -564 1080 1920" style="enable-background:new 1074 -564 1080 1920;" xml:space="preserve">
<style type="text/css">
	.st0{fill:#AD232E;stroke:#AD232E;stroke-width:1.51;}
	.st1{fill:#BD4A42;stroke:#BD4A42;stroke-width:1.51;}
	.st2{fill:#8897BA;stroke:#8897BA;stroke-width:1.51;}
	.st3{fill:#C9756A;stroke:#C9756A;stroke-width:1.51;}
	.st4{fill:#C08384;stroke:#C08384;stroke-width:1.51;}
	.st5{fill:#7E91B5;stroke:#7E91B5;stroke-width:1.51;}
	.st6{fill:#94AAD1;stroke:#94AAD1;stroke-width:1.51;}
	.st7{fill:#95647A;stroke:#95647A;stroke-width:1.51;}
	.st8{fill:#814B69;stroke:#814B69;stroke-width:1.51;}
	.st9{fill:#4E82B4;stroke:#4E82B4;stroke-width:1.51;}
	.st10{fill:#3B7DB6;stroke:#3B7DB6;stroke-width:1.51;}
	.st11{fill:#9A90A8;stroke:#9A90A8;stroke-width:1.51;}
	.st12{fill:#95A0C2;stroke:#95A0C2;stroke-width:1.51;}
	.st13{fill:#8D5A6D;stroke:#8D5A6D;stroke-width:1.51;}
	.st14{fill:#947182;stroke:#947182;stroke-width:1.51;}
	.st15{fill:#6E8CB5;stroke:#6E8CB5;stroke-width:1.51;}
	.st16{fill:#8498BD;stroke:#8498BD;stroke-width:1.51;}
	.st17{fill:#1B5A9B;stroke:#1B5A9B;stroke-width:1.51;}
	.st18{fill:#4D7BA9;stroke:#4D7BA9;stroke-width:1.51;}
	.st19{fill:#9F798E;stroke:#9F798E;stroke-width:1.51;}
	.st20{fill:#844360;stroke:#844360;stroke-width:1.51;}
	.st21{fill:#276CAF;stroke:#276CAF;stroke-width:1.51;}
	.st22{fill:#A28EA6;stroke:#A28EA6;stroke-width:1.51;}
	.st23{fill:#905570;stroke:#905570;stroke-width:1.51;}
	.st24{fill:#6E93C0;stroke:#6E93C0;stroke-width:1.51;}
	.st25{fill:#7FA1CD;stroke:#7FA1CD;stroke-width:1.51;}
	.st26{fill:#CB6F62;stroke:#CB6F62;stroke-width:1.51;}
	.st27{fill:#9197B5;stroke:#9197B5;stroke-width:1.51;}
	.st28{fill:#3570A4;stroke:#3570A4;stroke-width:1.51;}
	.st29{fill:#ABA0AE;stroke:#ABA0AE;stroke-width:1.51;}
	.st30{fill:#A6A6BB;stroke:#A6A6BB;stroke-width:1.51;}
	.st31{fill:#A1B4D2;stroke:#A1B4D2;stroke-width:1.51;}
	.st32{fill:#2D73B3;stroke:#2D73B3;stroke-width:1.51;}
	.st33{fill:#3B85BC;stroke:#3B85BC;stroke-width:1.51;}
	.st34{fill:#86ACD3;stroke:#86ACD3;stroke-width:1.51;}
	.st35{fill:#79ACD2;stroke:#79ACD2;stroke-width:1.51;}
	.st36{fill:#4C8EC2;stroke:#4C8EC2;stroke-width:1.51;}
	.st37{fill:#996378;stroke:#996378;stroke-width:1.51;}
	.st38{fill:#945C71;stroke:#945C71;stroke-width:1.51;}
	.st39{fill:#609FCA;stroke:#609FCA;stroke-width:1.51;}
	.st40{fill:#A58493;stroke:#A58493;stroke-width:1.51;}
	.st41{fill:#9C6F7A;stroke:#9C6F7A;stroke-width:1.51;}
	.st42{fill:#A67F8C;stroke:#A67F8C;stroke-width:1.51;}
	.st43{fill:#9DBBD9;stroke:#9DBBD9;stroke-width:1.51;}
	.st44{fill:#A8717B;stroke:#A8717B;stroke-width:1.51;}
	.st45{fill:#A8727D;stroke:#A8727D;stroke-width:1.51;}
	.st46{fill:#B1898F;stroke:#B1898F;stroke-width:1.51;}
	.st47{fill:#5396C5;stroke:#5396C5;stroke-width:1.51;}
	.st48{fill:#99C1DD;stroke:#99C1DD;stroke-width:1.51;}
	.st49{fill:#B7B1B8;stroke:#B7B1B8;stroke-width:1.51;}
	.st50{fill:#C1C5CD;stroke:#C1C5CD;stroke-width:1.51;}
	.st51{fill:#A8C7DF;stroke:#A8C7DF;stroke-width:1.51;}
	.st52{fill:#BACFDF;stroke:#BACFDF;stroke-width:1.51;}
	.st53{fill:#94C2DD;stroke:#94C2DD;stroke-width:1.51;}
	.st54{fill:#BE9FA0;stroke:#BE9FA0;stroke-width:1.51;}
	.st55{fill:#70ADD1;stroke:#70ADD1;stroke-width:1.51;}
	.st56{fill:#578EC2;stroke:#578EC2;stroke-width:1.51;}
	.st57{fill:#D3C9C8;stroke:#D3C9C8;stroke-width:1.51;}
	.st58{fill:#6E9FCB;stroke:#6E9FCB;stroke-width:1.51;}
	.st59{fill:#6C93BF;stroke:#6C93BF;stroke-width:1.51;}
	.st60{fill:#CBA09C;stroke:#CBA09C;stroke-width:1.51;}
	.st61{fill:#C18889;stroke:#C18889;stroke-width:1.51;}
	.st62{fill:#C8DFEB;stroke:#C8DFEB;stroke-width:1.51;}
	.st63{fill:#A7CFE4;stroke:#A7CFE4;stroke-width:1.51;}
	.st64{fill:#BDDBEB;stroke:#BDDBEB;stroke-width:1.51;}
	.st65{fill:#D3E0E8;stroke:#D3E0E8;stroke-width:1.51;}
	.st66{fill:#D7B6AE;stroke:#D7B6AE;stroke-width:1.51;}
	.st67{fill:#90C2DC;stroke:#90C2DC;stroke-width:1.51;}
	.st68{fill:#D7D7D7;stroke:#D7D7D7;stroke-width:1.51;}
	.st69{fill:#BF8082;stroke:#BF8082;stroke-width:1.51;}
	.st70{fill:#CA6151;stroke:#CA6151;stroke-width:1.51;}
	.st71{fill:#8ABBD9;stroke:#8ABBD9;stroke-width:1.51;}
	.st72{fill:#7E9CC6;stroke:#7E9CC6;stroke-width:1.51;}
	.st73{fill:#C98686;stroke:#C98686;stroke-width:1.51;}
	.st74{fill:#E5BCB1;stroke:#E5BCB1;stroke-width:1.51;}
	.st75{fill:#EED9D0;stroke:#EED9D0;stroke-width:1.51;}
	.st76{fill:#D9E8F2;stroke:#D9E8F2;stroke-width:1.51;}
	.st77{fill:#B4D4E6;stroke:#B4D4E6;stroke-width:1.51;}
	.st78{fill:#C6DFED;stroke:#C6DFED;stroke-width:1.51;}
	.st79{fill:#E7E0DD;stroke:#E7E0DD;stroke-width:1.51;}
	.st80{fill:#E0EBF2;stroke:#E0EBF2;stroke-width:1.51;}
	.st81{fill:#EBEDEF;stroke:#EBEDEF;stroke-width:1.51;}
	.st82{fill:#DC9892;stroke:#DC9892;stroke-width:1.51;}
	.st83{fill:#E7B2A6;stroke:#E7B2A6;stroke-width:1.51;}
	.st84{fill:#8EADD3;stroke:#8EADD3;stroke-width:1.51;}
	.st85{fill:#E79C8F;stroke:#E79C8F;stroke-width:1.51;}
	.st86{fill:#BBD5E7;stroke:#BBD5E7;stroke-width:1.51;}
	.st87{fill:#F7DCCF;stroke:#F7DCCF;stroke-width:1.51;}
	.st88{fill:#94A9D1;stroke:#94A9D1;stroke-width:1.51;}
	.st89{fill:#DE908A;stroke:#DE908A;stroke-width:1.51;}
	.st90{fill:#FBE5DA;stroke:#FBE5DA;stroke-width:1.51;}
	.st91{fill:#E6EEF4;stroke:#E6EEF4;stroke-width:1.51;}
	.st92{fill:#F5C5B4;stroke:#F5C5B4;stroke-width:1.51;}
	.st93{fill:#A0B6D4;stroke:#A0B6D4;stroke-width:1.51;}
	.st94{fill:#DAE6ED;stroke:#DAE6ED;stroke-width:1.51;}
	.st95{fill:#F4F5F6;stroke:#F4F5F6;stroke-width:1.51;}
	.st96{fill:#B1CADE;stroke:#B1CADE;stroke-width:1.51;}
	.st97{fill:#F9EFEA;stroke:#F9EFEA;stroke-width:1.51;}
	.st98{fill:#F3B8A6;stroke:#F3B8A6;stroke-width:1.51;}
	.st99{fill:#E0887C;stroke:#E0887C;stroke-width:1.51;}
	.st100{fill:#E9DFD9;stroke:#E9DFD9;stroke-width:1.51;}
	.st101{fill:#A5AFC8;stroke:#A5AFC8;stroke-width:1.51;}
	.st102{fill:#9F9EBA;stroke:#9F9EBA;stroke-width:1.51;}
	.st103{fill:#F6B9A1;stroke:#F6B9A1;stroke-width:1.51;}
	.st104{fill:#DADDE0;stroke:#DADDE0;stroke-width:1.51;}
	.st105{fill:#C1CDD6;stroke:#C1CDD6;stroke-width:1.51;}
	.st106{fill:#FBE8DD;stroke:#FBE8DD;stroke-width:1.51;}
	.st107{fill:#FCDCCB;stroke:#FCDCCB;stroke-width:1.51;}
	.st108{fill:#FCCDB5;stroke:#FCCDB5;stroke-width:1.51;}
	.st109{fill:#E6907E;stroke:#E6907E;stroke-width:1.51;}
	.st110{fill:#F0A48C;stroke:#F0A48C;stroke-width:1.51;}
	.st111{fill:#B9BFC9;stroke:#B9BFC9;stroke-width:1.51;}
	.st112{fill:#F9E8DF;stroke:#F9E8DF;stroke-width:1.51;}
	.st113{fill:#A998A6;stroke:#A998A6;stroke-width:1.51;}
	.st114{fill:#977486;stroke:#977486;stroke-width:1.51;}
	.st115{fill:#A291A9;stroke:#A291A9;stroke-width:1.51;}
	.st116{fill:#DB7865;stroke:#DB7865;stroke-width:1.51;}
	.st117{fill:#FAC0A5;stroke:#FAC0A5;stroke-width:1.51;}
	.st118{fill:#FBC2A7;stroke:#FBC2A7;stroke-width:1.51;}
	.st119{fill:#F9DACC;stroke:#F9DACC;stroke-width:1.51;}
	.st120{fill:#FACDB8;stroke:#FACDB8;stroke-width:1.51;}
	.st121{fill:#EE987C;stroke:#EE987C;stroke-width:1.51;}
	.st122{fill:#E17C64;stroke:#E17C64;stroke-width:1.51;}
	.st123{fill:#E9C9BD;stroke:#E9C9BD;stroke-width:1.51;}
	.st124{fill:#DCC8C1;stroke:#DCC8C1;stroke-width:1.51;}
	.st125{fill:#B8B0B7;stroke:#B8B0B7;stroke-width:1.51;}
	.st126{fill:#C3B3B2;stroke:#C3B3B2;stroke-width:1.51;}
	.st127{fill:#F3A382;stroke:#F3A382;stroke-width:1.51;}
	.st128{fill:#BC9799;stroke:#BC9799;stroke-width:1.51;}
	.st129{fill:#E6B9AD;stroke:#E6B9AD;stroke-width:1.51;}
	.st130{fill:#ED9373;stroke:#ED9373;stroke-width:1.51;}
	.st131{fill:#A68796;stroke:#A68796;stroke-width:1.51;}
	.st132{fill:#B4989E;stroke:#B4989E;stroke-width:1.51;}
	.st133{fill:#D6A8A1;stroke:#D6A8A1;stroke-width:1.51;}
	.st134{fill:#F5B9A6;stroke:#F5B9A6;stroke-width:1.51;}
	.st135{fill:#F1B5A6;stroke:#F1B5A6;stroke-width:1.51;}
	.st136{fill:#D76753;stroke:#D76753;stroke-width:1.51;}
	.st137{fill:#9E7287;stroke:#9E7287;stroke-width:1.51;}
	.st138{fill:#F1A386;stroke:#F1A386;stroke-width:1.51;}
	.st139{fill:#CA4E43;stroke:#CA4E43;stroke-width:1.51;}
	.st140{fill:#DF735B;stroke:#DF735B;stroke-width:1.51;}
	.st141{fill:#EFA289;stroke:#EFA289;stroke-width:1.51;}
	.st142{fill:#D35B4B;stroke:#D35B4B;stroke-width:1.51;}
	.st143{fill:#945A75;stroke:#945A75;stroke-width:1.51;}
	.st144{fill:#E89480;stroke:#E89480;stroke-width:1.51;}
	.st145{fill:#D69792;stroke:#D69792;stroke-width:1.51;}
	.st146{fill:#C13938;stroke:#C13938;stroke-width:1.51;}
	.st147{fill:#B48287;stroke:#B48287;stroke-width:1.51;}
	.st148{fill:#D09995;stroke:#D09995;stroke-width:1.51;}
	.st149{fill:#AB7F87;stroke:#AB7F87;stroke-width:1.51;}
	.st150{fill:#9C6A7E;stroke:#9C6A7E;stroke-width:1.51;}
	.st151{fill:#EAA192;stroke:#EAA192;stroke-width:1.51;}
	.st152{fill:#E1816E;stroke:#E1816E;stroke-width:1.51;}
	.st153{fill:#D76854;stroke:#D76854;stroke-width:1.51;}
	.st154{fill:#E49C93;stroke:#E49C93;stroke-width:1.51;}
	.st155{fill:#C13B38;stroke:#C13B38;stroke-width:1.51;}
	.st156{fill:#CD5B4C;stroke:#CD5B4C;stroke-width:1.51;}
	.st157{fill:#BD4840;stroke:#BD4840;stroke-width:1.51;}
	.st158{fill:#D98D89;stroke:#D98D89;stroke-width:1.51;}
	.st159{fill:#D38882;stroke:#D38882;stroke-width:1.51;}
	.st160{fill:#BE7F82;stroke:#BE7F82;stroke-width:1.51;}
	.st161{fill:#8F516D;stroke:#8F516D;stroke-width:1.51;}
	.st162{fill:#88526C;stroke:#88526C;stroke-width:1.51;}
	.st163{fill:#AC727C;stroke:#AC727C;stroke-width:1.51;}
	.st164{fill:#8F6072;stroke:#8F6072;stroke-width:1.51;}
	.st165{fill:#BB7F83;stroke:#BB7F83;stroke-width:1.51;}
	.st166{fill:#B11C2B;stroke:#B11C2B;stroke-width:1.51;}
	.st167{fill:#DA7F71;stroke:#DA7F71;stroke-width:1.51;}
	.st168{fill:#CE7163;stroke:#CE7163;stroke-width:1.51;}
	.st169{fill:#AE2B31;stroke:#AE2B31;stroke-width:1.51;}
	.st170{fill:#BC8183;stroke:#BC8183;stroke-width:1.51;}
	.st171{fill:#C06154;stroke:#C06154;stroke-width:1.51;}
	.st172{fill:#C57E79;stroke:#C57E79;stroke-width:1.51;}
</style>
<path class="st0" d="M2415,1209l-9,228l-7,235L2415,1209z"/>
<path class="st1" d="M2449,522l-34,687l-16,463L2449,522z"/>
<path class="st2" d="M736,16l-5,738l32-534L736,16z"/>
<path class="st3" d="M2481,11l-32,511l-50,1150L2481,11z"/>
<path class="st4" d="M2481,11l-21,207l-11,304L2481,11z"/>
<path class="st5" d="M731-214v968l5-738L731-214z"/>
<path class="st6" d="M1433-849l71,216l224-53L1433-849z"/>
<path class="st7" d="M2244-887l-261,17l185,203L2244-887z"/>
<path class="st8" d="M2383-901l17,185l83,299L2383-901z"/>
<path class="st9" d="M964-902l256,190l70-141L964-902z"/>
<path class="st10" d="M964-902l66,215l190-25L964-902z"/>
<path class="st11" d="M1779-917l-51,231l255-184L1779-917z"/>
<path class="st12" d="M1779-917l-346,68l295,163L1779-917z"/>
<path class="st13" d="M1779-917l465,30l139-14L1779-917z"/>
<path class="st14" d="M1779-917l204,47l261-17L1779-917z"/>
<path class="st15" d="M1779-917l-815,15l326,49L1779-917z"/>
<path class="st16" d="M1779-917l-489,64l143,4L1779-917z"/>
<path class="st17" d="M800-931l-64,285l228-256L800-931z"/>
<path class="st18" d="M800-931l164,29l815-15L800-931z"/>
<path class="st19" d="M1983-870l31,203h154L1983-870z"/>
<path class="st20" d="M2383-901l-139,14l156,171L2383-901z"/>
<path class="st21" d="M964-902L736-646l294-41L964-902z"/>
<path class="st22" d="M1983-870l-255,184l286,19L1983-870z"/>
<path class="st23" d="M2244-887l-76,220l232-49L2244-887z"/>
<path class="st24" d="M1290-853l-70,141l213-137L1290-853z"/>
<path class="st25" d="M1433-849l-213,137l284,79L1433-849z"/>
<path class="st26" d="M2449,522l-34,167v520L2449,522z"/>
<path class="st27" d="M763,220l-32,534l47-283L763,220z"/>
<path class="st28" d="M736-646l-5,432l64-177L736-646z"/>
<path class="st29" d="M2014-667l-298,180l279,33L2014-667z"/>
<path class="st30" d="M1728-686l-12,199l298-180L1728-686z"/>
<path class="st31" d="M1728-686l-224,53l212,146L1728-686z"/>
<path class="st32" d="M1030-687l-294,41l59,255L1030-687z"/>
<path class="st33" d="M1030-687L795-391l280-64L1030-687z"/>
<path class="st34" d="M1220-712l245,239l39-160L1220-712z"/>
<path class="st35" d="M1220-712l23,298l222-59L1220-712z"/>
<path class="st36" d="M1220-712l-190,25l45,232L1220-712z"/>
<path class="st37" d="M2400-716l-232,49l51,231L2400-716z"/>
<path class="st38" d="M2400-716l-181,280l264,19L2400-716z"/>
<path class="st39" d="M1220-712l-145,257l168,41L1220-712z"/>
<path class="st40" d="M2014-667l-19,213l173-213H2014z"/>
<path class="st41" d="M2483-417l-52,237l50,191L2483-417z"/>
<path class="st42" d="M2168-667l-173,213l224,18L2168-667z"/>
<path class="st43" d="M1504-633l-39,160l251-14L1504-633z"/>
<path class="st44" d="M2483-417l-272,194l220,43L2483-417z"/>
<path class="st45" d="M2219-436l-8,213l272-194L2219-436z"/>
<path class="st46" d="M1995-454l216,231l8-213L1995-454z"/>
<path class="st47" d="M1075-455l-280,64l269,239L1075-455z"/>
<path class="st48" d="M1465-473l-222,59l270,177L1465-473z"/>
<path class="st49" d="M1716-487l239,301l40-268L1716-487z"/>
<path class="st50" d="M1716-487l12,319l227-18L1716-487z"/>
<path class="st51" d="M1716-487l-251,14l48,236L1716-487z"/>
<path class="st52" d="M1716-487l-203,250l215,69L1716-487z"/>
<path class="st53" d="M1243-414l-29,194l299-17L1243-414z"/>
<path class="st54" d="M1995-454l-40,268l256-37L1995-454z"/>
<path class="st55" d="M1075-455l139,235l29-194L1075-455z"/>
<path class="st55" d="M1075-455l-11,303l150-68L1075-455z"/>
<path class="st56" d="M795-391l-64,177l333,62L795-391z"/>
<path class="st57" d="M1955-186l-227,18L1907-5L1955-186z"/>
<path class="st58" d="M731-214L965,13l99-165L731-214z"/>
<path class="st59" d="M731-214l5,230l229-3L731-214z"/>
<path class="st60" d="M2211-223l-256,37l242,213L2211-223z"/>
<path class="st61" d="M2211-223l-14,250l234-207L2211-223z"/>
<path class="st62" d="M1513-237l-13,224l228-155L1513-237z"/>
<path class="st63" d="M1513-237l-299,17l75,207L1513-237z"/>
<path class="st64" d="M1513-237L1289-13h211L1513-237z"/>
<path class="st65" d="M1728-168L1500-13l233-5L1728-168z"/>
<path class="st66" d="M1955-186L1907-5l290,32L1955-186z"/>
<path class="st67" d="M1214-220l-150,68l225,139L1214-220z"/>
<path class="st68" d="M1728-168l5,150l174,13L1728-168z"/>
<path class="st69" d="M2431-180L2197,27l284-16L2431-180z"/>
<path class="st70" d="M2415,689l-29,313l29,207V689z"/>
<path class="st71" d="M1064-152L965,13l324-26L1064-152z"/>
<path class="st72" d="M965,13l-229,3l27,204L965,13z"/>
<path class="st73" d="M2481,11l-284,16l263,191L2481,11z"/>
<path class="st74" d="M1907-5l71,255l219-223L1907-5z"/>
<path class="st75" d="M1907-5l-211,302l282-47L1907-5z"/>
<path class="st76" d="M1500-13l-204,304l231-18L1500-13z"/>
<path class="st48" d="M1289-13L965,13l61,289L1289-13z"/>
<path class="st77" d="M1289-13l-263,315l270-11L1289-13z"/>
<path class="st78" d="M1289-13l7,304l204-304H1289z"/>
<path class="st79" d="M1733-18l-37,315L1907-5L1733-18z"/>
<path class="st80" d="M1733-18l-233,5l27,286L1733-18z"/>
<path class="st81" d="M1733-18l-206,291l169,24L1733-18z"/>
<path class="st82" d="M2197,27l-54,295l317-104L2197,27z"/>
<path class="st83" d="M2197,27l-219,223l165,72L2197,27z"/>
<path class="st84" d="M965,13L763,220l263,82L965,13z"/>
<path class="st85" d="M2143,322l41,212l265-12L2143,322z"/>
<path class="st86" d="M1296,291l-270,11l193,150L1296,291z"/>
<path class="st87" d="M1978,250l-282,47l253,163L1978,250z"/>
<path class="st88" d="M763,220l15,251l248-169L763,220z"/>
<path class="st89" d="M2460,218l-317,104l306,200L2460,218z"/>
<path class="st90" d="M1696,297l70,223l183-60L1696,297z"/>
<path class="st91" d="M1527,273l-231,18l232,228L1527,273z"/>
<path class="st92" d="M1978,250l-29,210l194-138L1978,250z"/>
<path class="st93" d="M1026,302L778,471l282,57L1026,302z"/>
<path class="st94" d="M1296,291l-77,161l309,67L1296,291z"/>
<path class="st95" d="M1527,273l1,246l168-222L1527,273z"/>
<path class="st96" d="M1026,302l34,226l159-76L1026,302z"/>
<path class="st97" d="M1696,297l-168,222l238,1L1696,297z"/>
<path class="st98" d="M2143,322l-194,138l235,74L2143,322z"/>
<path class="st99" d="M2449,522l-265,12l231,155L2449,522z"/>
<path class="st100" d="M1528,519l-280,244l235,11L1528,519z"/>
<path class="st101" d="M778,471l264,294l18-237L778,471z"/>
<path class="st102" d="M778,471l-47,283l311,11L778,471z"/>
<path class="st103" d="M1949,460l44,324l191-250L1949,460z"/>
<path class="st104" d="M1219,452l29,311l280-244L1219,452z"/>
<path class="st105" d="M1219,452l-159,76l188,235L1219,452z"/>
<path class="st106" d="M1528,519l224,168l14-167L1528,519z"/>
<path class="st107" d="M1949,460l-183,60l-14,167L1949,460z"/>
<path class="st108" d="M1949,460l-197,227l241,97L1949,460z"/>
<path class="st109" d="M2184,534l11,243l220-88L2184,534z"/>
<path class="st110" d="M2184,534l-191,250l202-7L2184,534z"/>
<path class="st111" d="M1060,528l-18,237l206-2L1060,528z"/>
<path class="st112" d="M1528,519l-45,255l269-87L1528,519z"/>
<path class="st113" d="M1042,765L820,957l179-28L1042,765z"/>
<path class="st114" d="M731,754l47,505l42-302L731,754z"/>
<path class="st115" d="M731,754l89,203l222-192L731,754z"/>
<path class="st116" d="M2415,689l-220,88l191,225L2415,689z"/>
<path class="st117" d="M1752,687l163,278l78-181L1752,687z"/>
<path class="st118" d="M1752,687l25,342l138-64L1752,687z"/>
<path class="st119" d="M1752,687l-269,87l50,205L1752,687z"/>
<path class="st120" d="M1752,687l-219,292l244,50L1752,687z"/>
<path class="st121" d="M2195,777l-202,7l152,190L2195,777z"/>
<path class="st122" d="M2195,777l-50,197l241,28L2195,777z"/>
<path class="st123" d="M1483,774l-228,222l278-17L1483,774z"/>
<path class="st124" d="M1248,763l7,233l228-222L1248,763z"/>
<path class="st125" d="M1248,763l-206,2l-43,164L1248,763z"/>
<path class="st126" d="M1248,763L999,929l256,67L1248,763z"/>
<path class="st127" d="M1993,784l-78,181l230,9L1993,784z"/>
<path class="st128" d="M1255,996l-241,206l199,1L1255,996z"/>
<path class="st129" d="M1533,979l-278,17l272,228L1533,979z"/>
<path class="st130" d="M1915,965l43,296l187-287L1915,965z"/>
<path class="st131" d="M999,929l-179,28l194,245L999,929z"/>
<path class="st132" d="M999,929l15,273l241-206L999,929z"/>
<path class="st133" d="M1255,996l-42,207l314,21L1255,996z"/>
<path class="st134" d="M1533,979l176,266l68-216L1533,979z"/>
<path class="st135" d="M1533,979l-6,245l182,21L1533,979z"/>
<path class="st136" d="M2145,974l91,286l150-258L2145,974z"/>
<path class="st137" d="M820,957l-42,302l236-57L820,957z"/>
<path class="st138" d="M1915,965l-138,64l181,232L1915,965z"/>
<path class="st139" d="M2386,1002l-150,258l179-51L2386,1002z"/>
<path class="st140" d="M2145,974l-187,287l278-1L2145,974z"/>
<path class="st141" d="M1777,1029l-68,216l249,16L1777,1029z"/>
<path class="st142" d="M2236,1260l-278,1l270,219L2236,1260z"/>
<path class="st143" d="M778,1259l25,165l210-24L778,1259z"/>
<path class="st144" d="M1709,1245l40,217l209-201L1709,1245z"/>
<path class="st145" d="M1527,1224l-278,177l190,67L1527,1224z"/>
<path class="st146" d="M2415,1209l-179,51l170,177L2415,1209z"/>
<path class="st147" d="M1213,1203l-200,197l236,1L1213,1203z"/>
<path class="st148" d="M1213,1203l36,198l278-177L1213,1203z"/>
<path class="st149" d="M1014,1202l-1,198l200-197L1014,1202z"/>
<path class="st150" d="M1014,1202l-236,57l235,141L1014,1202z"/>
<path class="st151" d="M1527,1224l222,238l-40-217L1527,1224z"/>
<path class="st152" d="M1958,1261l-209,201l172,23L1958,1261z"/>
<path class="st153" d="M1958,1261l-37,224l307-5L1958,1261z"/>
<path class="st154" d="M1527,1224l-88,244l310-6L1527,1224z"/>
<path class="st155" d="M2236,1260l-8,220l178-43L2236,1260z"/>
<path class="st156" d="M2228,1480l-307,5l42,164L2228,1480z"/>
<path class="st157" d="M2228,1480l-265,169l201,32L2228,1480z"/>
<path class="st158" d="M1749,1462l-310,6l18,184L1749,1462z"/>
<path class="st159" d="M1749,1462l-292,190l305,17L1749,1462z"/>
<path class="st160" d="M1249,1401l-29,320l219-253L1249,1401z"/>
<path class="st161" d="M1013,1400l-210,24l32,215L1013,1400z"/>
<path class="st162" d="M1013,1400l-178,239l129,73L1013,1400z"/>
<path class="st163" d="M1013,1400l207,321l29-320L1013,1400z"/>
<path class="st164" d="M1013,1400l-49,312l256,9L1013,1400z"/>
<path class="st165" d="M1439,1468l-219,253l237-69L1439,1468z"/>
<path class="st166" d="M2406,1437l-178,43l171,192L2406,1437z"/>
<path class="st167" d="M1749,1462l13,207l159-184L1749,1462z"/>
<path class="st168" d="M1921,1485l-159,184l201-20L1921,1485z"/>
<path class="st169" d="M2228,1480l-64,201l235-9L2228,1480z"/>
<path class="st170" d="M1457,1652l-237,69l542-52L1457,1652z"/>
<path class="st171" d="M1963,1649l-201,20l402,12L1963,1649z"/>
<path class="st172" d="M1762,1669l-542,52l944-40L1762,1669z"/>
</svg>
