<svg xmlns="http://www.w3.org/2000/svg" width="1920" height="1080"><path d="M-324,-253L-89,-260L139,-269Z" fill="#ad232e" stroke="#ad232e" stroke-width="1.51"/><path d="M-324,-253L139,-269L826,-303Z" fill="#bd4a42" stroke="#bd4a42" stroke-width="1.51"/><path d="M1128,1383L594,1415L1332,1410Z" fill="#8897ba" stroke="#8897ba" stroke-width="1.51"/><path d="M-324,-253L826,-303L1337,-335Z" fill="#c9756a" stroke="#c9756a" stroke-width="1.51"/><path d="M826,-303L1130,-314L1337,-335Z" fill="#c08384" stroke="#c08384" stroke-width="1.51"/><path d="M1332,1410L594,1415L1562,1415Z" fill="#7e91b5" stroke="#7e91b5" stroke-width="1.51"/><path d="M2034,418L1981,642L2197,713Z" fill="#94aad1" stroke="#94aad1" stroke-width="1.51"/><path d="M2015,-22L2218,163L2235,-98Z" fill="#95647a" stroke="#95647a" stroke-width="1.51"/><path d="M1765,-337L2064,-254L2249,-237Z" fill="#814b69" stroke="#814b69" stroke-width="1.51"/><path d="M2201,856L2060,926L2250,1182Z" fill="#4e82b4" stroke="#4e82b4" stroke-width="1.51"/><path d="M2060,926L2035,1116L2250,1182Z" fill="#3b7db6" stroke="#3b7db6" stroke-width="1.51"/><path d="M2218,163L2034,418L2265,367Z" fill="#9a90a8" stroke="#9a90a8" stroke-width="1.51"/><path d="M2034,418L2197,713L2265,367Z" fill="#95a0c2" stroke="#95a0c2" stroke-width="1.51"/><path d="M2249,-237L2235,-98L2265,367Z" fill="#8d5a6d" stroke="#8d5a6d" stroke-width="1.51"/><path d="M2235,-98L2218,163L2265,367Z" fill="#947182" stroke="#947182" stroke-width="1.51"/><path d="M2201,856L2250,1182L2265,367Z" fill="#6e8cb5" stroke="#6e8cb5" stroke-width="1.51"/><path d="M2197,713L2201,856L2265,367Z" fill="#8498bd" stroke="#8498bd" stroke-width="1.51"/><path d="M2250,1182L1994,1410L2279,1346Z" fill="#1b5a9b" stroke="#1b5a9b" stroke-width="1.51"/><path d="M2265,367L2250,1182L2279,1346Z" fill="#4d7ba9" stroke="#4d7ba9" stroke-width="1.51"/><path d="M2015,-22L2015,132L2218,163Z" fill="#9f798e" stroke="#9f798e" stroke-width="1.51"/><path d="M2064,-254L2235,-98L2249,-237Z" fill="#844360" stroke="#844360" stroke-width="1.51"/><path d="M2035,1116L1994,1410L2250,1182Z" fill="#276caf" stroke="#276caf" stroke-width="1.51"/><path d="M2015,132L2034,418L2218,163Z" fill="#a28ea6" stroke="#a28ea6" stroke-width="1.51"/><path d="M2064,-254L2015,-22L2235,-98Z" fill="#905570" stroke="#905570" stroke-width="1.51"/><path d="M2197,713L2060,926L2201,856Z" fill="#6e93c0" stroke="#6e93c0" stroke-width="1.51"/><path d="M1981,642L2060,926L2197,713Z" fill="#7fa1cd" stroke="#7fa1cd" stroke-width="1.51"/><path d="M139,-269L659,-269L826,-303Z" fill="#cb6f62" stroke="#cb6f62" stroke-width="1.51"/><path d="M877,1368L594,1415L1128,1383Z" fill="#9197b5" stroke="#9197b5" stroke-width="1.51"/><path d="M1739,1351L1562,1415L1994,1410Z" fill="#3570a4" stroke="#3570a4" stroke-width="1.51"/><path d="M1802,151L1835,430L2015,132Z" fill="#aba0ae" stroke="#aba0ae" stroke-width="1.51"/><path d="M2015,132L1835,430L2034,418Z" fill="#a6a6bb" stroke="#a6a6bb" stroke-width="1.51"/><path d="M1835,430L1981,642L2034,418Z" fill="#a1b4d2" stroke="#a1b4d2" stroke-width="1.51"/><path d="M1739,1351L1994,1410L2035,1116Z" fill="#2d73b3" stroke="#2d73b3" stroke-width="1.51"/><path d="M1803,1071L1739,1351L2035,1116Z" fill="#3b85bc" stroke="#3b85bc" stroke-width="1.51"/><path d="M1981,642L1821,681L2060,926Z" fill="#86acd3" stroke="#86acd3" stroke-width="1.51"/><path d="M1821,681L1762,903L2060,926Z" fill="#79acd2" stroke="#79acd2" stroke-width="1.51"/><path d="M1803,1071L2035,1116L2060,926Z" fill="#4c8ec2" stroke="#4c8ec2" stroke-width="1.51"/><path d="M1784,-73L2015,-22L2064,-254Z" fill="#996378" stroke="#996378" stroke-width="1.51"/><path d="M1765,-337L1784,-73L2064,-254Z" fill="#945c71" stroke="#945c71" stroke-width="1.51"/><path d="M1762,903L1803,1071L2060,926Z" fill="#609fca" stroke="#609fca" stroke-width="1.51"/><path d="M2015,-22L1802,151L2015,132Z" fill="#a58493" stroke="#a58493" stroke-width="1.51"/><path d="M1337,-335L1528,-285L1765,-337Z" fill="#9c6f7a" stroke="#9c6f7a" stroke-width="1.51"/><path d="M1784,-73L1802,151L2015,-22Z" fill="#a67f8c" stroke="#a67f8c" stroke-width="1.51"/><path d="M1835,430L1821,681L1981,642Z" fill="#9dbbd9" stroke="#9dbbd9" stroke-width="1.51"/><path d="M1528,-285L1571,-65L1765,-337Z" fill="#a8717b" stroke="#a8717b" stroke-width="1.51"/><path d="M1765,-337L1571,-65L1784,-73Z" fill="#a8727d" stroke="#a8727d" stroke-width="1.51"/><path d="M1784,-73L1571,-65L1802,151Z" fill="#b1898f" stroke="#b1898f" stroke-width="1.51"/><path d="M1500,1082L1739,1351L1803,1071Z" fill="#5396c5" stroke="#5396c5" stroke-width="1.51"/><path d="M1585,633L1762,903L1821,681Z" fill="#99c1dd" stroke="#99c1dd" stroke-width="1.51"/><path d="M1802,151L1534,191L1835,430Z" fill="#b7b1b8" stroke="#b7b1b8" stroke-width="1.51"/><path d="M1534,191L1516,418L1835,430Z" fill="#c1c5cd" stroke="#c1c5cd" stroke-width="1.51"/><path d="M1585,633L1821,681L1835,430Z" fill="#a8c7df" stroke="#a8c7df" stroke-width="1.51"/><path d="M1516,418L1585,633L1835,430Z" fill="#bacfdf" stroke="#bacfdf" stroke-width="1.51"/><path d="M1585,633L1568,932L1762,903Z" fill="#94c2dd" stroke="#94c2dd" stroke-width="1.51"/><path d="M1571,-65L1534,191L1802,151Z" fill="#be9fa0" stroke="#be9fa0" stroke-width="1.51"/><path d="M1762,903L1568,932L1803,1071Z" fill="#70add1" stroke="#70add1" stroke-width="1.51"/><path d="M1568,932L1500,1082L1803,1071Z" fill="#70add1" stroke="#70add1" stroke-width="1.51"/><path d="M1500,1082L1562,1415L1739,1351Z" fill="#578ec2" stroke="#578ec2" stroke-width="1.51"/><path d="M1353,239L1516,418L1534,191Z" fill="#d3c9c8" stroke="#d3c9c8" stroke-width="1.51"/><path d="M1500,1082L1335,1181L1562,1415Z" fill="#6e9fcb" stroke="#6e9fcb" stroke-width="1.51"/><path d="M1335,1181L1332,1410L1562,1415Z" fill="#6c93bf" stroke="#6c93bf" stroke-width="1.51"/><path d="M1321,-51L1534,191L1571,-65Z" fill="#cba09c" stroke="#cba09c" stroke-width="1.51"/><path d="M1528,-285L1321,-51L1571,-65Z" fill="#c18889" stroke="#c18889" stroke-width="1.51"/><path d="M1516,418L1361,646L1585,633Z" fill="#c8dfeb" stroke="#c8dfeb" stroke-width="1.51"/><path d="M1361,857L1568,932L1585,633Z" fill="#a7cfe4" stroke="#a7cfe4" stroke-width="1.51"/><path d="M1361,646L1361,857L1585,633Z" fill="#bddbeb" stroke="#bddbeb" stroke-width="1.51"/><path d="M1366,413L1361,646L1516,418Z" fill="#d3e0e8" stroke="#d3e0e8" stroke-width="1.51"/><path d="M1321,-51L1353,239L1534,191Z" fill="#d7b6ae" stroke="#d7b6ae" stroke-width="1.51"/><path d="M1361,857L1500,1082L1568,932Z" fill="#90c2dc" stroke="#90c2dc" stroke-width="1.51"/><path d="M1353,239L1366,413L1516,418Z" fill="#d7d7d7" stroke="#d7d7d7" stroke-width="1.51"/><path d="M1337,-335L1321,-51L1528,-285Z" fill="#bf8082" stroke="#bf8082" stroke-width="1.51"/><path d="M139,-269L346,-240L659,-269Z" fill="#ca6151" stroke="#ca6151" stroke-width="1.51"/><path d="M1361,857L1335,1181L1500,1082Z" fill="#8abbd9" stroke="#8abbd9" stroke-width="1.51"/><path d="M1128,1383L1332,1410L1335,1181Z" fill="#7e9cc6" stroke="#7e9cc6" stroke-width="1.51"/><path d="M1130,-314L1321,-51L1337,-335Z" fill="#c98686" stroke="#c98686" stroke-width="1.51"/><path d="M1321,-51L1098,168L1353,239Z" fill="#e5bcb1" stroke="#e5bcb1" stroke-width="1.51"/><path d="M1098,168L1051,450L1353,239Z" fill="#eed9d0" stroke="#eed9d0" stroke-width="1.51"/><path d="M1075,619L1057,850L1361,646Z" fill="#d9e8f2" stroke="#d9e8f2" stroke-width="1.51"/><path d="M1046,1120L1335,1181L1361,857Z" fill="#99c1dd" stroke="#99c1dd" stroke-width="1.51"/><path d="M1057,850L1046,1120L1361,857Z" fill="#b4d4e6" stroke="#b4d4e6" stroke-width="1.51"/><path d="M1361,646L1057,850L1361,857Z" fill="#c6dfed" stroke="#c6dfed" stroke-width="1.51"/><path d="M1353,239L1051,450L1366,413Z" fill="#e7e0dd" stroke="#e7e0dd" stroke-width="1.51"/><path d="M1075,619L1361,646L1366,413Z" fill="#e0ebf2" stroke="#e0ebf2" stroke-width="1.51"/><path d="M1051,450L1075,619L1366,413Z" fill="#ebedef" stroke="#ebedef" stroke-width="1.51"/><path d="M1130,-314L1026,3L1321,-51Z" fill="#dc9892" stroke="#dc9892" stroke-width="1.51"/><path d="M1026,3L1098,168L1321,-51Z" fill="#e7b2a6" stroke="#e7b2a6" stroke-width="1.51"/><path d="M1046,1120L1128,1383L1335,1181Z" fill="#8eadd3" stroke="#8eadd3" stroke-width="1.51"/><path d="M826,-303L814,-38L1026,3Z" fill="#e79c8f" stroke="#e79c8f" stroke-width="1.51"/><path d="M896,927L1046,1120L1057,850Z" fill="#bbd5e7" stroke="#bbd5e7" stroke-width="1.51"/><path d="M888,197L1051,450L1098,168Z" fill="#f7dccf" stroke="#f7dccf" stroke-width="1.51"/><path d="M1046,1120L877,1368L1128,1383Z" fill="#94a9d1" stroke="#94a9d1" stroke-width="1.51"/><path d="M826,-303L1026,3L1130,-314Z" fill="#de908a" stroke="#de908a" stroke-width="1.51"/><path d="M888,197L828,380L1051,450Z" fill="#fbe5da" stroke="#fbe5da" stroke-width="1.51"/><path d="M829,618L1057,850L1075,619Z" fill="#e6eef4" stroke="#e6eef4" stroke-width="1.51"/><path d="M1026,3L888,197L1098,168Z" fill="#f5c5b4" stroke="#f5c5b4" stroke-width="1.51"/><path d="M820,1086L877,1368L1046,1120Z" fill="#a0b6d4" stroke="#a0b6d4" stroke-width="1.51"/><path d="M829,618L896,927L1057,850Z" fill="#dae6ed" stroke="#dae6ed" stroke-width="1.51"/><path d="M1051,450L829,618L1075,619Z" fill="#f4f5f6" stroke="#f4f5f6" stroke-width="1.51"/><path d="M896,927L820,1086L1046,1120Z" fill="#b1cade" stroke="#b1cade" stroke-width="1.51"/><path d="M828,380L829,618L1051,450Z" fill="#f9efea" stroke="#f9efea" stroke-width="1.51"/><path d="M814,-38L888,197L1026,3Z" fill="#f3b8a6" stroke="#f3b8a6" stroke-width="1.51"/><path d="M659,-269L814,-38L826,-303Z" fill="#e0887c" stroke="#e0887c" stroke-width="1.51"/><path d="M574,663L585,898L829,618Z" fill="#e9dfd9" stroke="#e9dfd9" stroke-width="1.51"/><path d="M820,1086L583,1104L877,1368Z" fill="#a5afc8" stroke="#a5afc8" stroke-width="1.51"/><path d="M583,1104L594,1415L877,1368Z" fill="#9f9eba" stroke="#9f9eba" stroke-width="1.51"/><path d="M814,-38L564,153L888,197Z" fill="#f6b9a1" stroke="#f6b9a1" stroke-width="1.51"/><path d="M829,618L585,898L896,927Z" fill="#dadde0" stroke="#dadde0" stroke-width="1.51"/><path d="M585,898L820,1086L896,927Z" fill="#c1cdd6" stroke="#c1cdd6" stroke-width="1.51"/><path d="M828,380L661,394L829,618Z" fill="#fbe8dd" stroke="#fbe8dd" stroke-width="1.51"/><path d="M661,394L828,380L888,197Z" fill="#fcdccb" stroke="#fcdccb" stroke-width="1.51"/><path d="M564,153L661,394L888,197Z" fill="#fccdb5" stroke="#fccdb5" stroke-width="1.51"/><path d="M659,-269L571,-49L814,-38Z" fill="#e6907e" stroke="#e6907e" stroke-width="1.51"/><path d="M571,-49L564,153L814,-38Z" fill="#f0a48c" stroke="#f0a48c" stroke-width="1.51"/><path d="M585,898L583,1104L820,1086Z" fill="#b9bfc9" stroke="#b9bfc9" stroke-width="1.51"/><path d="M661,394L574,663L829,618Z" fill="#f9e8df" stroke="#f9e8df" stroke-width="1.51"/><path d="M419,1147L391,1326L583,1104Z" fill="#a998a6" stroke="#a998a6" stroke-width="1.51"/><path d="M391,1326L89,1368L594,1415Z" fill="#977486" stroke="#977486" stroke-width="1.51"/><path d="M583,1104L391,1326L594,1415Z" fill="#a291a9" stroke="#a291a9" stroke-width="1.51"/><path d="M346,-240L571,-49L659,-269Z" fill="#db7865" stroke="#db7865" stroke-width="1.51"/><path d="M564,153L383,231L661,394Z" fill="#fac0a5" stroke="#fac0a5" stroke-width="1.51"/><path d="M383,231L319,369L661,394Z" fill="#fbc2a7" stroke="#fbc2a7" stroke-width="1.51"/><path d="M369,613L574,663L661,394Z" fill="#f9dacc" stroke="#f9dacc" stroke-width="1.51"/><path d="M319,369L369,613L661,394Z" fill="#facdb8" stroke="#facdb8" stroke-width="1.51"/><path d="M374,1L564,153L571,-49Z" fill="#ee987c" stroke="#ee987c" stroke-width="1.51"/><path d="M346,-240L374,1L571,-49Z" fill="#e17c64" stroke="#e17c64" stroke-width="1.51"/><path d="M369,613L352,891L574,663Z" fill="#e9c9bd" stroke="#e9c9bd" stroke-width="1.51"/><path d="M574,663L352,891L585,898Z" fill="#dcc8c1" stroke="#dcc8c1" stroke-width="1.51"/><path d="M419,1147L583,1104L585,898Z" fill="#b8b0b7" stroke="#b8b0b7" stroke-width="1.51"/><path d="M352,891L419,1147L585,898Z" fill="#c3b3b2" stroke="#c3b3b2" stroke-width="1.51"/><path d="M374,1L383,231L564,153Z" fill="#f3a382" stroke="#f3a382" stroke-width="1.51"/><path d="M145,933L146,1132L352,891Z" fill="#bc9799" stroke="#bc9799" stroke-width="1.51"/><path d="M124,619L352,891L369,613Z" fill="#e6b9ad" stroke="#e6b9ad" stroke-width="1.51"/><path d="M374,1L87,188L383,231Z" fill="#ed9373" stroke="#ed9373" stroke-width="1.51"/><path d="M146,1132L391,1326L419,1147Z" fill="#a68796" stroke="#a68796" stroke-width="1.51"/><path d="M352,891L146,1132L419,1147Z" fill="#b4989e" stroke="#b4989e" stroke-width="1.51"/><path d="M124,619L145,933L352,891Z" fill="#d6a8a1" stroke="#d6a8a1" stroke-width="1.51"/><path d="M319,369L103,437L369,613Z" fill="#f5b9a6" stroke="#f5b9a6" stroke-width="1.51"/><path d="M103,437L124,619L369,613Z" fill="#f1b5a6" stroke="#f1b5a6" stroke-width="1.51"/><path d="M346,-240L88,-90L374,1Z" fill="#d76753" stroke="#d76753" stroke-width="1.51"/><path d="M146,1132L89,1368L391,1326Z" fill="#9e7287" stroke="#9e7287" stroke-width="1.51"/><path d="M87,188L319,369L383,231Z" fill="#f1a386" stroke="#f1a386" stroke-width="1.51"/><path d="M139,-269L88,-90L346,-240Z" fill="#ca4e43" stroke="#ca4e43" stroke-width="1.51"/><path d="M88,-90L87,188L374,1Z" fill="#df735b" stroke="#df735b" stroke-width="1.51"/><path d="M87,188L103,437L319,369Z" fill="#efa289" stroke="#efa289" stroke-width="1.51"/><path d="M-132,-82L87,188L88,-90Z" fill="#d35b4b" stroke="#d35b4b" stroke-width="1.51"/><path d="M-52,1133L-76,1343L89,1368Z" fill="#945a75" stroke="#945a75" stroke-width="1.51"/><path d="M87,188L-114,397L103,437Z" fill="#e89480" stroke="#e89480" stroke-width="1.51"/><path d="M-120,707L-53,897L124,619Z" fill="#d69792" stroke="#d69792" stroke-width="1.51"/><path d="M-89,-260L88,-90L139,-269Z" fill="#c13938" stroke="#c13938" stroke-width="1.51"/><path d="M-53,897L-52,1133L145,933Z" fill="#b48287" stroke="#b48287" stroke-width="1.51"/><path d="M124,619L-53,897L145,933Z" fill="#d09995" stroke="#d09995" stroke-width="1.51"/><path d="M145,933L-52,1133L146,1132Z" fill="#ab7f87" stroke="#ab7f87" stroke-width="1.51"/><path d="M-52,1133L89,1368L146,1132Z" fill="#9c6a7e" stroke="#9c6a7e" stroke-width="1.51"/><path d="M103,437L-114,397L124,619Z" fill="#eaa192" stroke="#eaa192" stroke-width="1.51"/><path d="M-137,225L-114,397L87,188Z" fill="#e1816e" stroke="#e1816e" stroke-width="1.51"/><path d="M-132,-82L-137,225L87,188Z" fill="#d76854" stroke="#d76854" stroke-width="1.51"/><path d="M-114,397L-120,707L124,619Z" fill="#e49c93" stroke="#e49c93" stroke-width="1.51"/><path d="M-89,-260L-132,-82L88,-90Z" fill="#c13b38" stroke="#c13b38" stroke-width="1.51"/><path d="M-301,183L-137,225L-132,-82Z" fill="#cd5b4c" stroke="#cd5b4c" stroke-width="1.51"/><path d="M-333,-18L-301,183L-132,-82Z" fill="#bd4840" stroke="#bd4840" stroke-width="1.51"/><path d="M-304,689L-120,707L-114,397Z" fill="#d98d89" stroke="#d98d89" stroke-width="1.51"/><path d="M-321,384L-304,689L-114,397Z" fill="#d38882" stroke="#d38882" stroke-width="1.51"/><path d="M-120,707L-373,926L-53,897Z" fill="#be7f82" stroke="#be7f82" stroke-width="1.51"/><path d="M-291,1311L-76,1343L-52,1133Z" fill="#8f516d" stroke="#8f516d" stroke-width="1.51"/><path d="M-364,1182L-291,1311L-52,1133Z" fill="#88526c" stroke="#88526c" stroke-width="1.51"/><path d="M-53,897L-373,926L-52,1133Z" fill="#ac727c" stroke="#ac727c" stroke-width="1.51"/><path d="M-373,926L-364,1182L-52,1133Z" fill="#8f6072" stroke="#8f6072" stroke-width="1.51"/><path d="M-304,689L-373,926L-120,707Z" fill="#bb7f83" stroke="#bb7f83" stroke-width="1.51"/><path d="M-324,-253L-132,-82L-89,-260Z" fill="#b11c2b" stroke="#b11c2b" stroke-width="1.51"/><path d="M-137,225L-321,384L-114,397Z" fill="#da7f71" stroke="#da7f71" stroke-width="1.51"/><path d="M-301,183L-321,384L-137,225Z" fill="#ce7163" stroke="#ce7163" stroke-width="1.51"/><path d="M-324,-253L-333,-18L-132,-82Z" fill="#ae2b31" stroke="#ae2b31" stroke-width="1.51"/><path d="M-321,384L-373,926L-304,689Z" fill="#bc8183" stroke="#bc8183" stroke-width="1.51"/><path d="M-333,-18L-321,384L-301,183Z" fill="#c06154" stroke="#c06154" stroke-width="1.51"/><path d="M-333,-18L-373,926L-321,384Z" fill="#c57e79" stroke="#c57e79" stroke-width="1.51"/></svg>